<svg width="375" height="318" viewBox="0 0 375 318" fill="none" xmlns="http://www.w3.org/2000/svg">
<path d="M121.85 171C121.63 171 121.45 170.93 121.31 170.79C121.17 170.65 121.1 170.47 121.1 170.25V150.75C121.1 150.53 121.17 150.35 121.31 150.21C121.45 150.07 121.63 150 121.85 150H135.86C136.08 150 136.26 150.07 136.4 150.21C136.54 150.35 136.61 150.53 136.61 150.75V153.57C136.61 153.79 136.54 153.97 136.4 154.11C136.26 154.25 136.08 154.32 135.86 154.32H126.29V158.37H135.2C135.42 158.37 135.6 158.45 135.74 158.61C135.88 158.75 135.95 158.93 135.95 159.15V161.76C135.95 161.96 135.88 162.14 135.74 162.3C135.6 162.44 135.42 162.51 135.2 162.51H126.29V166.68H136.1C136.32 166.68 136.5 166.75 136.64 166.89C136.78 167.03 136.85 167.21 136.85 167.43V170.25C136.85 170.47 136.78 170.65 136.64 170.79C136.5 170.93 136.32 171 136.1 171H121.85ZM141.01 171C140.79 171 140.61 170.93 140.47 170.79C140.33 170.65 140.26 170.47 140.26 170.25V150.75C140.26 150.53 140.33 150.35 140.47 150.21C140.61 150.07 140.79 150 141.01 150H149.41C151.07 150 152.51 150.26 153.73 150.78C154.97 151.28 155.93 152.04 156.61 153.06C157.31 154.08 157.66 155.37 157.66 156.93C157.66 158.47 157.31 159.74 156.61 160.74C155.93 161.74 154.97 162.48 153.73 162.96C152.51 163.44 151.07 163.68 149.41 163.68H145.84V170.25C145.84 170.47 145.76 170.65 145.6 170.79C145.46 170.93 145.28 171 145.06 171H141.01ZM145.75 159.54H149.26C150.12 159.54 150.8 159.32 151.3 158.88C151.82 158.44 152.08 157.77 152.08 156.87C152.08 156.11 151.86 155.47 151.42 154.95C150.98 154.43 150.26 154.17 149.26 154.17H145.75V159.54ZM161.284 171C161.064 171 160.884 170.93 160.744 170.79C160.604 170.65 160.534 170.47 160.534 170.25V150.75C160.534 150.53 160.604 150.35 160.744 150.21C160.884 150.07 161.064 150 161.284 150H165.304C165.524 150 165.704 150.07 165.844 150.21C165.984 150.35 166.054 150.53 166.054 150.75V170.25C166.054 170.47 165.984 170.65 165.844 170.79C165.704 170.93 165.524 171 165.304 171H161.284ZM178.87 171.3C176.97 171.3 175.34 170.99 173.98 170.37C172.64 169.75 171.59 168.84 170.83 167.64C170.09 166.44 169.68 164.95 169.6 163.17C169.58 162.35 169.57 161.47 169.57 160.53C169.57 159.59 169.58 158.69 169.6 157.83C169.68 156.09 170.1 154.62 170.86 153.42C171.62 152.2 172.68 151.28 174.04 150.66C175.4 150.02 177.01 149.7 178.87 149.7C180.19 149.7 181.41 149.87 182.53 150.21C183.65 150.53 184.63 151.01 185.47 151.65C186.31 152.27 186.96 153.03 187.42 153.93C187.9 154.81 188.15 155.81 188.17 156.93C188.19 157.11 188.13 157.26 187.99 157.38C187.87 157.5 187.72 157.56 187.54 157.56H183.49C183.23 157.56 183.03 157.51 182.89 157.41C182.75 157.29 182.63 157.08 182.53 156.78C182.25 155.72 181.79 155 181.15 154.62C180.53 154.22 179.76 154.02 178.84 154.02C177.74 154.02 176.87 154.33 176.23 154.95C175.59 155.55 175.24 156.56 175.18 157.98C175.12 159.62 175.12 161.3 175.18 163.02C175.24 164.44 175.59 165.46 176.23 166.08C176.87 166.68 177.74 166.98 178.84 166.98C179.76 166.98 180.54 166.78 181.18 166.38C181.82 165.98 182.27 165.26 182.53 164.22C182.61 163.92 182.72 163.72 182.86 163.62C183.02 163.5 183.23 163.44 183.49 163.44H187.54C187.72 163.44 187.87 163.5 187.99 163.62C188.13 163.74 188.19 163.89 188.17 164.07C188.15 165.19 187.9 166.2 187.42 167.1C186.96 167.98 186.31 168.74 185.47 169.38C184.63 170 183.65 170.48 182.53 170.82C181.41 171.14 180.19 171.3 178.87 171.3ZM198.461 171C198.241 171 198.061 170.93 197.921 170.79C197.781 170.65 197.711 170.47 197.711 170.25V150.75C197.711 150.53 197.781 150.35 197.921 150.21C198.061 150.07 198.241 150 198.461 150H206.621C209.201 150 211.231 150.6 212.711 151.8C214.211 152.98 214.961 154.66 214.961 156.84C214.961 158.26 214.611 159.46 213.911 160.44C213.231 161.42 212.331 162.16 211.211 162.66L215.351 170.04C215.411 170.16 215.441 170.27 215.441 170.37C215.441 170.53 215.371 170.68 215.231 170.82C215.111 170.94 214.961 171 214.781 171H210.821C210.441 171 210.161 170.91 209.981 170.73C209.801 170.53 209.671 170.35 209.591 170.19L206.171 163.59H203.081V170.25C203.081 170.47 203.011 170.65 202.871 170.79C202.731 170.93 202.551 171 202.331 171H198.461ZM203.081 159.36H206.561C207.501 159.36 208.201 159.13 208.661 158.67C209.141 158.21 209.381 157.58 209.381 156.78C209.381 156 209.151 155.37 208.691 154.89C208.251 154.41 207.541 154.17 206.561 154.17H203.081V159.36ZM219.204 171C218.984 171 218.804 170.93 218.664 170.79C218.524 170.65 218.454 170.47 218.454 170.25V150.75C218.454 150.53 218.524 150.35 218.664 150.21C218.804 150.07 218.984 150 219.204 150H227.604C229.264 150 230.704 150.26 231.924 150.78C233.164 151.28 234.124 152.04 234.804 153.06C235.504 154.08 235.854 155.37 235.854 156.93C235.854 158.47 235.504 159.74 234.804 160.74C234.124 161.74 233.164 162.48 231.924 162.96C230.704 163.44 229.264 163.68 227.604 163.68H224.034V170.25C224.034 170.47 223.954 170.65 223.794 170.79C223.654 170.93 223.474 171 223.254 171H219.204ZM223.944 159.54H227.454C228.314 159.54 228.994 159.32 229.494 158.88C230.014 158.44 230.274 157.77 230.274 156.87C230.274 156.11 230.054 155.47 229.614 154.95C229.174 154.43 228.454 154.17 227.454 154.17H223.944V159.54ZM246.557 171.3C244.557 171.3 242.897 171.02 241.577 170.46C240.257 169.88 239.257 169.13 238.577 168.21C237.897 167.29 237.537 166.31 237.497 165.27C237.497 165.11 237.557 164.97 237.677 164.85C237.817 164.71 237.977 164.64 238.157 164.64H241.937C242.217 164.64 242.427 164.69 242.567 164.79C242.727 164.89 242.867 165.02 242.987 165.18C243.147 165.48 243.367 165.77 243.647 166.05C243.947 166.33 244.327 166.56 244.787 166.74C245.267 166.9 245.857 166.98 246.557 166.98C247.717 166.98 248.587 166.8 249.167 166.44C249.767 166.08 250.067 165.59 250.067 164.97C250.067 164.53 249.907 164.17 249.587 163.89C249.267 163.59 248.747 163.33 248.027 163.11C247.327 162.87 246.387 162.63 245.207 162.39C243.687 162.07 242.387 161.66 241.307 161.16C240.247 160.64 239.437 159.97 238.877 159.15C238.317 158.31 238.037 157.27 238.037 156.03C238.037 154.81 238.377 153.72 239.057 152.76C239.757 151.8 240.727 151.05 241.967 150.51C243.207 149.97 244.677 149.7 246.377 149.7C247.757 149.7 248.967 149.88 250.007 150.24C251.067 150.6 251.957 151.08 252.677 151.68C253.397 152.28 253.937 152.92 254.297 153.6C254.677 154.26 254.877 154.91 254.897 155.55C254.897 155.71 254.837 155.86 254.717 156C254.597 156.12 254.447 156.18 254.267 156.18H250.307C250.087 156.18 249.897 156.14 249.737 156.06C249.577 155.98 249.437 155.85 249.317 155.67C249.197 155.23 248.877 154.85 248.357 154.53C247.857 154.19 247.197 154.02 246.377 154.02C245.497 154.02 244.807 154.18 244.307 154.5C243.827 154.8 243.587 155.27 243.587 155.91C243.587 156.31 243.717 156.66 243.977 156.96C244.257 157.26 244.707 157.52 245.327 157.74C245.967 157.96 246.837 158.19 247.937 158.43C249.757 158.77 251.227 159.2 252.347 159.72C253.467 160.22 254.287 160.88 254.807 161.7C255.327 162.5 255.587 163.51 255.587 164.73C255.587 166.09 255.197 167.27 254.417 168.27C253.657 169.25 252.597 170 251.237 170.52C249.877 171.04 248.317 171.3 246.557 171.3Z" fill="#EA9975"/>
<g filter="url(#filter0_f_19_3198)">
<path fill-rule="evenodd" clip-rule="evenodd" d="M179.24 171.3C176.38 171.3 174.135 170.61 172.505 169.23C170.875 167.85 170.01 165.83 169.91 163.17C169.89 162.63 169.88 161.75 169.88 160.53C169.88 159.29 169.89 158.39 169.91 157.83C170.01 155.23 170.885 153.225 172.535 151.815C174.185 150.405 176.42 149.7 179.24 149.7C181.02 149.7 182.615 149.99 184.025 150.57C185.435 151.15 186.55 151.99 187.37 153.09C188.19 154.19 188.62 155.49 188.66 156.99C188.66 157.17 188.595 157.32 188.465 157.44C188.335 157.56 188.18 157.62 188 157.62H183.74C183.46 157.62 183.255 157.565 183.125 157.455C182.995 157.345 182.88 157.14 182.78 156.84C182.5 155.86 182.075 155.175 181.505 154.785C180.935 154.395 180.18 154.2 179.24 154.2C176.98 154.2 175.81 155.46 175.73 157.98C175.71 158.52 175.7 159.35 175.7 160.47C175.7 161.59 175.71 162.44 175.73 163.02C175.81 165.54 176.98 166.8 179.24 166.8C180.16 166.8 180.915 166.6 181.505 166.2C182.095 165.8 182.52 165.12 182.78 164.16C182.86 163.86 182.97 163.655 183.11 163.545C183.25 163.435 183.46 163.38 183.74 163.38H188C188.18 163.38 188.335 163.44 188.465 163.56C188.595 163.68 188.66 163.83 188.66 164.01C188.62 165.51 188.19 166.81 187.37 167.91C186.55 169.01 185.435 169.85 184.025 170.43C182.615 171.01 181.02 171.3 179.24 171.3ZM121.265 170.775C121.415 170.925 121.59 171 121.79 171H136.19C136.41 171 136.595 170.93 136.745 170.79C136.895 170.65 136.97 170.47 136.97 170.25V167.28C136.97 167.06 136.895 166.875 136.745 166.725C136.595 166.575 136.41 166.5 136.19 166.5H126.47V162.6H135.29C135.51 162.6 135.695 162.525 135.845 162.375C135.995 162.225 136.07 162.04 136.07 161.82V159.09C136.07 158.87 135.995 158.685 135.845 158.535C135.695 158.385 135.51 158.31 135.29 158.31H126.47V154.5H135.95C136.17 154.5 136.355 154.43 136.505 154.29C136.655 154.15 136.73 153.97 136.73 153.75V150.78C136.73 150.56 136.655 150.375 136.505 150.225C136.355 150.075 136.17 150 135.95 150H121.79C121.57 150 121.39 150.075 121.25 150.225C121.11 150.375 121.04 150.56 121.04 150.78V170.25C121.04 170.45 121.115 170.625 121.265 170.775ZM140.525 170.775C140.675 170.925 140.85 171 141.05 171H145.37C145.59 171 145.77 170.925 145.91 170.775C146.05 170.625 146.12 170.45 146.12 170.25V163.77H149.54C152.14 163.77 154.18 163.205 155.66 162.075C157.14 160.945 157.88 159.24 157.88 156.96C157.88 154.68 157.14 152.95 155.66 151.77C154.18 150.59 152.14 150 149.54 150H141.05C140.83 150 140.65 150.075 140.51 150.225C140.37 150.375 140.3 150.56 140.3 150.78V170.25C140.3 170.45 140.375 170.625 140.525 170.775ZM149.39 159.48C150.21 159.48 150.855 159.265 151.325 158.835C151.795 158.405 152.03 157.77 152.03 156.93C152.03 156.15 151.815 155.52 151.385 155.04C150.955 154.56 150.29 154.32 149.39 154.32H146.03V159.48H149.39ZM160.895 170.775C161.045 170.925 161.22 171 161.42 171H165.71C165.93 171 166.11 170.925 166.25 170.775C166.39 170.625 166.46 170.45 166.46 170.25V150.75C166.46 150.53 166.39 150.35 166.25 150.21C166.11 150.07 165.93 150 165.71 150H161.42C161.22 150 161.045 150.07 160.895 150.21C160.745 150.35 160.67 150.53 160.67 150.75V170.25C160.67 170.45 160.745 170.625 160.895 170.775ZM198.245 170.775C198.395 170.925 198.57 171 198.77 171H202.88C203.1 171 203.285 170.93 203.435 170.79C203.585 170.65 203.66 170.47 203.66 170.25V163.68H206.54L209.84 170.19C210.08 170.73 210.49 171 211.07 171H215.3C215.48 171 215.63 170.935 215.75 170.805C215.87 170.675 215.93 170.53 215.93 170.37C215.93 170.27 215.9 170.16 215.84 170.04L211.79 162.72C212.93 162.18 213.825 161.42 214.475 160.44C215.125 159.46 215.45 158.27 215.45 156.87C215.45 154.69 214.705 153 213.215 151.8C211.725 150.6 209.66 150 207.02 150H198.77C198.55 150 198.37 150.075 198.23 150.225C198.09 150.375 198.02 150.56 198.02 150.78V170.25C198.02 170.45 198.095 170.625 198.245 170.775ZM206.99 159.27C207.85 159.27 208.505 159.055 208.955 158.625C209.405 158.195 209.63 157.6 209.63 156.84C209.63 156.08 209.405 155.47 208.955 155.01C208.505 154.55 207.85 154.32 206.99 154.32H203.66V159.27H206.99ZM219.095 170.775C219.245 170.925 219.42 171 219.62 171H223.94C224.16 171 224.34 170.925 224.48 170.775C224.62 170.625 224.69 170.45 224.69 170.25V163.77H228.11C230.71 163.77 232.75 163.205 234.23 162.075C235.71 160.945 236.45 159.24 236.45 156.96C236.45 154.68 235.71 152.95 234.23 151.77C232.75 150.59 230.71 150 228.11 150H219.62C219.4 150 219.22 150.075 219.08 150.225C218.94 150.375 218.87 150.56 218.87 150.78V170.25C218.87 170.45 218.945 170.625 219.095 170.775ZM227.96 159.48C228.78 159.48 229.425 159.265 229.895 158.835C230.365 158.405 230.6 157.77 230.6 156.93C230.6 156.15 230.385 155.52 229.955 155.04C229.525 154.56 228.86 154.32 227.96 154.32H224.6V159.48H227.96ZM242.24 170.46C243.6 171.02 245.25 171.3 247.19 171.3C248.97 171.3 250.55 171.035 251.93 170.505C253.31 169.975 254.39 169.21 255.17 168.21C255.95 167.21 256.34 166.03 256.34 164.67C256.34 163.43 256.075 162.405 255.545 161.595C255.015 160.785 254.195 160.125 253.085 159.615C251.975 159.105 250.48 158.68 248.6 158.34C246.96 158 245.84 157.665 245.24 157.335C244.64 157.005 244.34 156.55 244.34 155.97C244.34 155.39 244.57 154.95 245.03 154.65C245.49 154.35 246.14 154.2 246.98 154.2C247.72 154.2 248.34 154.345 248.84 154.635C249.34 154.925 249.65 155.28 249.77 155.7C250.01 156.06 250.35 156.24 250.79 156.24H254.99C255.17 156.24 255.32 156.175 255.44 156.045C255.56 155.915 255.62 155.76 255.62 155.58C255.58 154.7 255.215 153.805 254.525 152.895C253.835 151.985 252.845 151.225 251.555 150.615C250.265 150.005 248.74 149.7 246.98 149.7C245.3 149.7 243.825 149.97 242.555 150.51C241.285 151.05 240.305 151.805 239.615 152.775C238.925 153.745 238.58 154.85 238.58 156.09C238.58 157.91 239.18 159.31 240.38 160.29C241.58 161.27 243.39 162 245.81 162.48C247.05 162.74 248 162.975 248.66 163.185C249.32 163.395 249.8 163.635 250.1 163.905C250.4 164.175 250.55 164.52 250.55 164.94C250.55 165.52 250.26 165.975 249.68 166.305C249.1 166.635 248.27 166.8 247.19 166.8C246.27 166.8 245.535 166.645 244.985 166.335C244.435 166.025 244.03 165.63 243.77 165.15C243.59 164.95 243.425 164.81 243.275 164.73C243.125 164.65 242.93 164.61 242.69 164.61H238.7C238.52 164.61 238.365 164.67 238.235 164.79C238.105 164.91 238.04 165.06 238.04 165.24C238.08 166.32 238.45 167.32 239.15 168.24C239.85 169.16 240.88 169.9 242.24 170.46Z" fill="#EA9975"/>
</g>
<mask id="mask0_19_3198" style="mask-type:luminance" maskUnits="userSpaceOnUse" x="180" y="57" width="70" height="33">
<path fill-rule="evenodd" clip-rule="evenodd" d="M180.835 89.7196V57.5873L249.067 57.5873V89.7196H180.835Z" fill="white"/>
</mask>
<g mask="url(#mask0_19_3198)">
<path fill-rule="evenodd" clip-rule="evenodd" d="M243.841 79.8986L244.379 79.5416C249.714 75.3409 250.633 67.6096 246.43 62.2749C242.23 56.9402 234.5 56.0237 229.166 60.2229L215.578 70.9254L198.481 62.6613C192.369 59.7056 185.017 62.2676 182.063 68.3817C179.108 74.4966 181.668 81.848 187.781 84.8015H187.782C206.087 92.8013 227.202 90.9545 243.841 79.8986Z" fill="#EA9975"/>
</g>
<path fill-rule="evenodd" clip-rule="evenodd" d="M266.734 44.2075C267.407 21.4204 249.483 2.40199 226.696 1.72952L214.683 1.11666C191.896 0.446838 172.882 18.3716 172.211 41.1616C171.539 63.9486 189.462 82.9661 212.249 83.6386L224.261 84.2498C247.049 84.9222 266.064 66.9939 266.734 44.2075Z" fill="#FBC399"/>
<path fill-rule="evenodd" clip-rule="evenodd" d="M254.895 62.5444L487.015 75.3374C500.594 75.3374 511.604 51.5351 511.604 37.9537C511.604 24.3723 500.594 6.84584 487.015 6.84584L254.895 13.3631C241.314 13.3631 230.306 24.3723 230.306 37.9537C230.306 51.5351 241.314 62.5444 254.895 62.5444Z" fill="#FBC399"/>
<path fill-rule="evenodd" clip-rule="evenodd" d="M204.918 74.5269L216.929 75.1381C231.02 75.5535 243.661 68.8523 251.419 58.2918C253.646 55.2608 257.278 53.5909 261.033 53.8041L479.683 66.2256C493.262 66.2256 504.27 35.9061 504.27 22.3247C504.27 18.6027 503.42 15.0877 501.94 11.9257C507.806 16.4209 511.604 29.9931 511.604 37.9537C511.604 51.5351 500.594 75.3374 487.015 75.3374L265.965 62.7795C263.516 62.6405 261.19 63.8249 259.829 65.8665C252.197 77.3093 239.024 84.6848 224.261 84.2498L212.25 83.6387C197.585 83.2064 184.946 75.1709 177.97 63.4288C185.05 70.0464 194.469 74.2189 204.918 74.5269Z" fill="#EA9975"/>
<path fill-rule="evenodd" clip-rule="evenodd" d="M205.729 71.7357C211.08 71.7357 215.425 67.4042 215.44 62.0482C215.452 56.6843 211.117 52.3243 205.753 52.3098L172.783 52.222H172.758C167.406 52.222 163.059 56.5537 163.046 61.9094C163.032 67.2726 167.368 71.6334 172.732 71.6478L205.701 71.7357H205.729Z" fill="#FBC399"/>
<path fill-rule="evenodd" clip-rule="evenodd" d="M172.732 67.5228C172.732 67.5228 211.08 71.7358 205.729 71.7358H205.701L172.732 71.6479C167.368 71.6332 163.032 67.2725 163.046 61.9093C163.048 61.2086 163.127 60.5262 163.269 59.8684C164.214 64.2328 168.084 67.51 172.732 67.5228Z" fill="#EA9975"/>
<mask id="mask1_19_3198" style="mask-type:luminance" maskUnits="userSpaceOnUse" x="159" y="35" width="55" height="21">
<path fill-rule="evenodd" clip-rule="evenodd" d="M159.349 55.0855V35.571H213.569V55.0855H159.349Z" fill="white"/>
</mask>
<g mask="url(#mask1_19_3198)">
<path fill-rule="evenodd" clip-rule="evenodd" d="M203.858 55.0855C209.209 55.0855 213.554 50.753 213.569 45.3961C213.581 40.0322 209.244 35.6724 203.882 35.6586L169.085 35.571H169.061C163.708 35.571 159.363 39.9035 159.348 45.2592C159.336 50.6241 163.673 54.9831 169.036 54.9969L203.832 55.0855H203.858Z" fill="#FBC399"/>
</g>
<mask id="mask2_19_3198" style="mask-type:luminance" maskUnits="userSpaceOnUse" x="159" y="43" width="46" height="13">
<path fill-rule="evenodd" clip-rule="evenodd" d="M159.349 55.0854V43.4319H204.349V55.0854H159.349Z" fill="white"/>
</mask>
<g mask="url(#mask2_19_3198)">
<path fill-rule="evenodd" clip-rule="evenodd" d="M169.036 51.281C169.036 51.281 209.209 55.0854 203.858 55.0854H203.832L169.036 54.9968C163.673 54.983 159.336 50.624 159.348 45.2591C159.35 44.6342 159.416 44.024 159.531 43.4319C160.399 47.8942 164.318 51.2692 169.036 51.281Z" fill="#EA9975"/>
</g>
<path fill-rule="evenodd" clip-rule="evenodd" d="M170.26 37.4513H170.285L204.817 37.3617C210.181 37.347 214.517 32.9872 214.504 27.6231C214.49 22.2674 210.143 17.9358 204.793 17.9358H204.766L170.236 18.0254C164.872 18.0399 160.534 22.3999 160.549 27.7638C160.563 33.1197 164.908 37.4513 170.26 37.4513Z" fill="#FBC399"/>
<path fill-rule="evenodd" clip-rule="evenodd" d="M170.26 33.9109H170.285C170.285 33.9109 210.181 37.3469 204.817 37.3616L170.285 37.4512H170.26C164.908 37.4512 160.563 33.1196 160.549 27.7639C160.547 27.1479 160.609 26.5479 160.717 25.963C161.548 30.4855 165.504 33.9109 170.26 33.9109Z" fill="#EA9975"/>
<path fill-rule="evenodd" clip-rule="evenodd" d="M175.312 20.6137H175.337L209.867 20.5242C215.231 20.5095 219.569 16.1497 219.554 10.7855C219.54 5.42984 215.195 1.0983 209.843 1.0983H209.818L175.286 1.18786C169.922 1.20234 165.586 5.56236 165.599 10.9263C165.614 16.2822 169.96 20.6137 175.312 20.6137Z" fill="#FBC399"/>
<path fill-rule="evenodd" clip-rule="evenodd" d="M175.312 17.0743H175.337C175.337 17.0743 215.231 20.5096 209.867 20.5241L175.337 20.6138H175.312C169.96 20.6138 165.614 16.2821 165.599 10.9264C165.597 10.3106 165.66 9.71031 165.769 9.12545C166.6 13.6482 170.554 17.0743 175.312 17.0743Z" fill="#EA9975"/>
<path d="M267.762 29.314L273.142 25.799" stroke="#EA9975" stroke-width="1.449" stroke-linecap="round"/>
<path d="M259.419 45.9323L265.743 47.0747" stroke="#EA9975" stroke-width="1.449" stroke-linecap="round"/>
<path d="M276.489 39.1436L282.855 38.2689" stroke="#EA9975" stroke-width="1.449" stroke-linecap="round"/>
<path d="M258.187 21.3066L264.554 20.4319" stroke="#EA9975" stroke-width="1.449" stroke-linecap="round"/>
<path d="M319.122 28.3681L325.489 27.4934" stroke="#EA9975" stroke-width="1.449" stroke-linecap="round"/>
<path d="M341.097 25.9242L347.248 24.0627" stroke="#EA9975" stroke-width="1.449" stroke-linecap="round"/>
<path d="M330.027 17.2165L336.394 16.3418" stroke="#EA9975" stroke-width="1.449" stroke-linecap="round"/>
<path d="M298.379 33.2485L304.659 34.613" stroke="#EA9975" stroke-width="1.449" stroke-linecap="round"/>
<path d="M331.3 38.3025L337.58 39.667" stroke="#EA9975" stroke-width="1.449" stroke-linecap="round"/>
<path d="M369.536 48.1786L375.816 49.5431" stroke="#EA9975" stroke-width="1.449" stroke-linecap="round"/>
<path d="M353.536 34.7193L359.929 34.0695" stroke="#EA9975" stroke-width="1.449" stroke-linecap="round"/>
<path d="M284.112 48.7489L289.44 52.3414" stroke="#EA9975" stroke-width="1.449" stroke-linecap="round"/>
<path d="M275.079 57.2806L280.408 60.873" stroke="#EA9975" stroke-width="1.449" stroke-linecap="round"/>
<path d="M314.939 46.8617L320.872 49.3318" stroke="#EA9975" stroke-width="1.449" stroke-linecap="round"/>
<path d="M335.137 51.2321L340.832 54.21" stroke="#EA9975" stroke-width="1.449" stroke-linecap="round"/>
<path d="M298.627 45.8933L303.956 49.4857" stroke="#EA9975" stroke-width="1.449" stroke-linecap="round"/>
<path d="M351.745 48.8842L357.074 52.4766" stroke="#EA9975" stroke-width="1.449" stroke-linecap="round"/>
<path d="M355.602 62.249L360.931 65.8414" stroke="#EA9975" stroke-width="1.449" stroke-linecap="round"/>
<path d="M299.537 58.8458L303.037 64.236" stroke="#EA9975" stroke-width="1.449" stroke-linecap="round"/>
<path d="M286.569 23.5714L292.242 20.5511" stroke="#EA9975" stroke-width="1.449" stroke-linecap="round"/>
<path d="M307.691 21.9331L313.364 18.9127" stroke="#EA9975" stroke-width="1.449" stroke-linecap="round"/>
<path d="M361.606 22.3794L367.278 19.359" stroke="#EA9975" stroke-width="1.449" stroke-linecap="round"/>
<path fill-rule="evenodd" clip-rule="evenodd" d="M103.96 243.287L103.455 243.622C98.4369 247.557 97.5724 254.801 101.525 259.799C105.476 264.798 112.748 265.656 117.764 261.722L130.545 251.695L146.628 259.438C152.377 262.207 159.293 259.806 162.072 254.078C164.851 248.348 162.443 241.461 156.692 238.693C139.474 231.198 119.612 232.929 103.96 243.287Z" fill="#F2BCA7"/>
<path fill-rule="evenodd" clip-rule="evenodd" d="M82.4263 276.728C81.7938 298.078 98.6536 315.897 120.088 316.526L131.388 317.101C152.822 317.729 170.708 300.934 171.338 279.581C171.971 258.231 155.111 240.413 133.677 239.783L122.379 239.21C100.943 238.58 83.057 255.378 82.4263 276.728Z" fill="#FCD9C3"/>
<mask id="mask3_19_3198" style="mask-type:luminance" maskUnits="userSpaceOnUse" x="-148" y="247" width="265" height="65">
<path fill-rule="evenodd" clip-rule="evenodd" d="M116.692 247.561L116.692 311.733L-147.906 311.733V247.561L116.692 247.561Z" fill="white"/>
</mask>
<g mask="url(#mask3_19_3198)">
<path fill-rule="evenodd" clip-rule="evenodd" d="M93.5627 259.547L-124.777 247.561C-137.55 247.561 -147.906 269.862 -147.906 282.587C-147.906 295.312 -137.55 311.733 -124.777 311.733L93.5627 305.627C106.337 305.627 116.692 295.312 116.692 282.587C116.692 269.862 106.337 259.547 93.5627 259.547Z" fill="#FCD9C3"/>
</g>
<mask id="mask4_19_3198" style="mask-type:luminance" maskUnits="userSpaceOnUse" x="-148" y="239" width="282" height="68">
<path fill-rule="evenodd" clip-rule="evenodd" d="M133.677 239.014V306.974L-147.906 306.974V239.014L133.677 239.014Z" fill="white"/>
</mask>
<g mask="url(#mask4_19_3198)">
<path fill-rule="evenodd" clip-rule="evenodd" d="M90.8548 262.363C89.131 265.441 85.3434 266.768 81.8116 266.568L-117.88 256.098C-130.653 256.098 -141.007 284.505 -141.007 297.23C-141.007 300.718 -140.208 304.011 -138.816 306.974C-144.333 302.762 -147.906 290.045 -147.906 282.587C-147.906 269.862 -137.55 247.561 -124.777 247.561L83.1501 259.327C85.4544 259.457 87.642 258.347 88.9224 256.434C96.101 245.713 108.35 236.2 133.677 239.783C133.677 239.783 105.619 236.001 90.8548 262.363Z" fill="#F2BCA7"/>
</g>
<path fill-rule="evenodd" clip-rule="evenodd" d="M143.898 249.621C138.9 250.217 135.327 254.732 135.913 259.717C136.501 264.708 141.04 268.281 146.05 267.696L178.558 263.899C178.565 263.898 220.709 258.868 220.716 258.867C225.716 258.27 229.289 253.756 228.704 248.772C228.115 243.78 223.577 240.208 218.567 240.793L143.922 249.618C143.915 249.619 143.907 249.62 143.898 249.621Z" fill="#FCD9C3"/>
<path fill-rule="evenodd" clip-rule="evenodd" d="M218.982 244.25C218.982 244.25 138.9 250.217 143.898 249.621C143.907 249.62 143.916 249.619 143.922 249.618L218.567 240.793C223.577 240.208 228.115 243.779 228.703 248.772C228.772 249.353 228.779 249.928 228.737 250.492C227.428 246.438 223.39 243.735 218.982 244.25Z" fill="#F2BCA7"/>
<path fill-rule="evenodd" clip-rule="evenodd" d="M173.174 283.058H173.15L140.668 283.142C135.622 283.155 131.544 287.24 131.556 292.266C131.57 297.284 135.659 301.342 140.69 301.342H140.716L173.196 301.259C178.242 301.245 182.322 297.16 182.308 292.134C182.294 287.116 178.208 283.058 173.174 283.058Z" fill="#FCD9C3"/>
<path fill-rule="evenodd" clip-rule="evenodd" d="M173.136 288.439C173.127 288.437 173.144 288.439 173.136 288.439C173.136 288.439 154.915 284.995 148.026 284.33L147.558 283.058H173.15H173.174C178.208 283.058 182.308 287.116 182.308 292.134C182.308 294.669 181.672 295.196 181.57 295.743C180.788 291.506 177.558 289.63 173.136 288.439Z" fill="#F2BCA7"/>
<path fill-rule="evenodd" clip-rule="evenodd" d="M149.443 266.183C144.424 265.8 140.038 269.537 139.64 274.54C139.243 279.55 142.998 283.933 148.026 284.33L180.655 286.9C180.662 286.901 222.985 290.128 222.992 290.129C228.012 290.511 232.398 286.775 232.796 281.772C233.193 276.761 229.438 272.379 224.41 271.983L149.467 266.185C149.46 266.184 149.452 266.184 149.443 266.183Z" fill="#FCD9C3"/>
<path fill-rule="evenodd" clip-rule="evenodd" d="M168.422 298.833H168.398L135.918 298.917C130.872 298.931 126.792 303.016 126.806 308.042C126.82 313.06 130.906 317.118 135.94 317.118H135.964L168.446 317.034C173.492 317.02 177.57 312.936 177.558 307.91C177.544 302.892 173.456 298.833 168.422 298.833Z" fill="#FCD9C3"/>
<path fill-rule="evenodd" clip-rule="evenodd" d="M168.422 302.15H168.398C168.398 302.15 139.953 298.931 144.999 298.917L168.398 298.833H168.422C173.456 298.833 177.544 302.892 177.558 307.91C177.559 308.487 177.501 309.049 177.398 309.597C176.616 305.36 172.897 302.15 168.422 302.15Z" fill="#F2BCA7"/>
<path fill-rule="evenodd" clip-rule="evenodd" d="M224.143 275.454C224.143 275.454 169.804 267.758 169.811 267.759L224.41 271.982C229.438 272.379 233.193 276.761 232.796 281.772C232.75 282.356 232.644 282.922 232.494 283.466C232 279.236 228.567 275.802 224.143 275.454Z" fill="#F2BCA7"/>
<path fill-rule="evenodd" clip-rule="evenodd" d="M227.597 254.329L217.383 255.824C216.263 255.993 215.119 255.842 214.083 255.388C210.978 254.026 209.708 250.429 211.052 247.495C211.298 246.956 211.645 246.469 212.042 246.028C213.244 244.692 214.902 243.849 216.693 243.663L225.151 242.527L225.736 242.924C229.518 245.495 230.367 250.697 227.597 254.329Z" fill="#CE4EAA"/>
<path fill-rule="evenodd" clip-rule="evenodd" d="M230.235 287.139L219.94 286.36C218.811 286.28 217.728 285.882 216.818 285.212C214.089 283.204 213.645 279.417 215.603 276.849C215.962 276.377 216.408 275.978 216.893 275.635C218.36 274.595 220.163 274.135 221.952 274.345L230.453 275.09L230.936 275.606C234.058 278.942 233.738 284.203 230.235 287.139Z" fill="#CE4EAA"/>
<path d="M75.01 259.668C62.9039 235.863 73.5623 326.474 86.9591 316.321C88.9508 314.812 88.7299 307.479 88.1033 304.857" stroke="#FFB600" stroke-width="1.3608"/>
<path d="M74.1422 307.339C74.682 335.461 41.3278 249.155 57.958 250.284C60.4305 250.451 63.6965 257.06 64.3803 259.743" stroke="#FFB600" stroke-width="1.3608"/>
<path d="M119.85 170C119.63 170 119.45 169.93 119.31 169.79C119.17 169.65 119.1 169.47 119.1 169.25V149.75C119.1 149.53 119.17 149.35 119.31 149.21C119.45 149.07 119.63 149 119.85 149H133.86C134.08 149 134.26 149.07 134.4 149.21C134.54 149.35 134.61 149.53 134.61 149.75V152.57C134.61 152.79 134.54 152.97 134.4 153.11C134.26 153.25 134.08 153.32 133.86 153.32H124.29V157.37H133.2C133.42 157.37 133.6 157.45 133.74 157.61C133.88 157.75 133.95 157.93 133.95 158.15V160.76C133.95 160.96 133.88 161.14 133.74 161.3C133.6 161.44 133.42 161.51 133.2 161.51H124.29V165.68H134.1C134.32 165.68 134.5 165.75 134.64 165.89C134.78 166.03 134.85 166.21 134.85 166.43V169.25C134.85 169.47 134.78 169.65 134.64 169.79C134.5 169.93 134.32 170 134.1 170H119.85ZM139.01 170C138.79 170 138.61 169.93 138.47 169.79C138.33 169.65 138.26 169.47 138.26 169.25V149.75C138.26 149.53 138.33 149.35 138.47 149.21C138.61 149.07 138.79 149 139.01 149H147.41C149.07 149 150.51 149.26 151.73 149.78C152.97 150.28 153.93 151.04 154.61 152.06C155.31 153.08 155.66 154.37 155.66 155.93C155.66 157.47 155.31 158.74 154.61 159.74C153.93 160.74 152.97 161.48 151.73 161.96C150.51 162.44 149.07 162.68 147.41 162.68H143.84V169.25C143.84 169.47 143.76 169.65 143.6 169.79C143.46 169.93 143.28 170 143.06 170H139.01ZM143.75 158.54H147.26C148.12 158.54 148.8 158.32 149.3 157.88C149.82 157.44 150.08 156.77 150.08 155.87C150.08 155.11 149.86 154.47 149.42 153.95C148.98 153.43 148.26 153.17 147.26 153.17H143.75V158.54ZM159.284 170C159.064 170 158.884 169.93 158.744 169.79C158.604 169.65 158.534 169.47 158.534 169.25V149.75C158.534 149.53 158.604 149.35 158.744 149.21C158.884 149.07 159.064 149 159.284 149H163.304C163.524 149 163.704 149.07 163.844 149.21C163.984 149.35 164.054 149.53 164.054 149.75V169.25C164.054 169.47 163.984 169.65 163.844 169.79C163.704 169.93 163.524 170 163.304 170H159.284ZM176.87 170.3C174.97 170.3 173.34 169.99 171.98 169.37C170.64 168.75 169.59 167.84 168.83 166.64C168.09 165.44 167.68 163.95 167.6 162.17C167.58 161.35 167.57 160.47 167.57 159.53C167.57 158.59 167.58 157.69 167.6 156.83C167.68 155.09 168.1 153.62 168.86 152.42C169.62 151.2 170.68 150.28 172.04 149.66C173.4 149.02 175.01 148.7 176.87 148.7C178.19 148.7 179.41 148.87 180.53 149.21C181.65 149.53 182.63 150.01 183.47 150.65C184.31 151.27 184.96 152.03 185.42 152.93C185.9 153.81 186.15 154.81 186.17 155.93C186.19 156.11 186.13 156.26 185.99 156.38C185.87 156.5 185.72 156.56 185.54 156.56H181.49C181.23 156.56 181.03 156.51 180.89 156.41C180.75 156.29 180.63 156.08 180.53 155.78C180.25 154.72 179.79 154 179.15 153.62C178.53 153.22 177.76 153.02 176.84 153.02C175.74 153.02 174.87 153.33 174.23 153.95C173.59 154.55 173.24 155.56 173.18 156.98C173.12 158.62 173.12 160.3 173.18 162.02C173.24 163.44 173.59 164.46 174.23 165.08C174.87 165.68 175.74 165.98 176.84 165.98C177.76 165.98 178.54 165.78 179.18 165.38C179.82 164.98 180.27 164.26 180.53 163.22C180.61 162.92 180.72 162.72 180.86 162.62C181.02 162.5 181.23 162.44 181.49 162.44H185.54C185.72 162.44 185.87 162.5 185.99 162.62C186.13 162.74 186.19 162.89 186.17 163.07C186.15 164.19 185.9 165.2 185.42 166.1C184.96 166.98 184.31 167.74 183.47 168.38C182.63 169 181.65 169.48 180.53 169.82C179.41 170.14 178.19 170.3 176.87 170.3ZM196.461 170C196.241 170 196.061 169.93 195.921 169.79C195.781 169.65 195.711 169.47 195.711 169.25V149.75C195.711 149.53 195.781 149.35 195.921 149.21C196.061 149.07 196.241 149 196.461 149H204.621C207.201 149 209.231 149.6 210.711 150.8C212.211 151.98 212.961 153.66 212.961 155.84C212.961 157.26 212.611 158.46 211.911 159.44C211.231 160.42 210.331 161.16 209.211 161.66L213.351 169.04C213.411 169.16 213.441 169.27 213.441 169.37C213.441 169.53 213.371 169.68 213.231 169.82C213.111 169.94 212.961 170 212.781 170H208.821C208.441 170 208.161 169.91 207.981 169.73C207.801 169.53 207.671 169.35 207.591 169.19L204.171 162.59H201.081V169.25C201.081 169.47 201.011 169.65 200.871 169.79C200.731 169.93 200.551 170 200.331 170H196.461ZM201.081 158.36H204.561C205.501 158.36 206.201 158.13 206.661 157.67C207.141 157.21 207.381 156.58 207.381 155.78C207.381 155 207.151 154.37 206.691 153.89C206.251 153.41 205.541 153.17 204.561 153.17H201.081V158.36ZM217.204 170C216.984 170 216.804 169.93 216.664 169.79C216.524 169.65 216.454 169.47 216.454 169.25V149.75C216.454 149.53 216.524 149.35 216.664 149.21C216.804 149.07 216.984 149 217.204 149H225.604C227.264 149 228.704 149.26 229.924 149.78C231.164 150.28 232.124 151.04 232.804 152.06C233.504 153.08 233.854 154.37 233.854 155.93C233.854 157.47 233.504 158.74 232.804 159.74C232.124 160.74 231.164 161.48 229.924 161.96C228.704 162.44 227.264 162.68 225.604 162.68H222.034V169.25C222.034 169.47 221.954 169.65 221.794 169.79C221.654 169.93 221.474 170 221.254 170H217.204ZM221.944 158.54H225.454C226.314 158.54 226.994 158.32 227.494 157.88C228.014 157.44 228.274 156.77 228.274 155.87C228.274 155.11 228.054 154.47 227.614 153.95C227.174 153.43 226.454 153.17 225.454 153.17H221.944V158.54ZM244.557 170.3C242.557 170.3 240.897 170.02 239.577 169.46C238.257 168.88 237.257 168.13 236.577 167.21C235.897 166.29 235.537 165.31 235.497 164.27C235.497 164.11 235.557 163.97 235.677 163.85C235.817 163.71 235.977 163.64 236.157 163.64H239.937C240.217 163.64 240.427 163.69 240.567 163.79C240.727 163.89 240.867 164.02 240.987 164.18C241.147 164.48 241.367 164.77 241.647 165.05C241.947 165.33 242.327 165.56 242.787 165.74C243.267 165.9 243.857 165.98 244.557 165.98C245.717 165.98 246.587 165.8 247.167 165.44C247.767 165.08 248.067 164.59 248.067 163.97C248.067 163.53 247.907 163.17 247.587 162.89C247.267 162.59 246.747 162.33 246.027 162.11C245.327 161.87 244.387 161.63 243.207 161.39C241.687 161.07 240.387 160.66 239.307 160.16C238.247 159.64 237.437 158.97 236.877 158.15C236.317 157.31 236.037 156.27 236.037 155.03C236.037 153.81 236.377 152.72 237.057 151.76C237.757 150.8 238.727 150.05 239.967 149.51C241.207 148.97 242.677 148.7 244.377 148.7C245.757 148.7 246.967 148.88 248.007 149.24C249.067 149.6 249.957 150.08 250.677 150.68C251.397 151.28 251.937 151.92 252.297 152.6C252.677 153.26 252.877 153.91 252.897 154.55C252.897 154.71 252.837 154.86 252.717 155C252.597 155.12 252.447 155.18 252.267 155.18H248.307C248.087 155.18 247.897 155.14 247.737 155.06C247.577 154.98 247.437 154.85 247.317 154.67C247.197 154.23 246.877 153.85 246.357 153.53C245.857 153.19 245.197 153.02 244.377 153.02C243.497 153.02 242.807 153.18 242.307 153.5C241.827 153.8 241.587 154.27 241.587 154.91C241.587 155.31 241.717 155.66 241.977 155.96C242.257 156.26 242.707 156.52 243.327 156.74C243.967 156.96 244.837 157.19 245.937 157.43C247.757 157.77 249.227 158.2 250.347 158.72C251.467 159.22 252.287 159.88 252.807 160.7C253.327 161.5 253.587 162.51 253.587 163.73C253.587 165.09 253.197 166.27 252.417 167.27C251.657 168.25 250.597 169 249.237 169.52C247.877 170.04 246.317 170.3 244.557 170.3Z" fill="#FBC399"/>
<defs>
<filter id="filter0_f_19_3198" x="23.1819" y="51.8419" width="331.016" height="217.316" filterUnits="userSpaceOnUse" color-interpolation-filters="sRGB">
<feFlood flood-opacity="0" result="BackgroundImageFix"/>
<feBlend mode="normal" in="SourceGraphic" in2="BackgroundImageFix" result="shape"/>
<feGaussianBlur stdDeviation="48.9291" result="effect1_foregroundBlur_19_3198"/>
</filter>
</defs>
</svg>
