<svg width="148" height="429" viewBox="0 0 148 429" fill="none" xmlns="http://www.w3.org/2000/svg">
<path fill-rule="evenodd" clip-rule="evenodd" d="M124.682 314.477L124.2 313.892C118.653 308.165 109.537 308.036 103.842 313.605C98.1469 319.173 98.0306 328.329 103.576 334.055L117.709 348.643L110.188 369.658C107.499 377.17 111.386 385.458 118.868 388.167C126.352 390.875 134.597 386.98 137.284 379.466C144.348 357.07 139.601 332.592 124.682 314.477Z" fill="#F2BCA7"/>
<path fill-rule="evenodd" clip-rule="evenodd" d="M80.3079 292.061C53.6919 294.063 33.751 317.361 35.7703 344.104L36.5334 358.233C38.5558 384.976 61.7656 405.028 88.3847 403.024C115.001 401.022 134.94 377.724 132.921 350.981L132.156 336.854C130.137 310.109 106.923 290.057 80.3079 292.061Z" fill="#FCD9C3"/>
<mask id="mask0_19_4373" style="mask-type:luminance" maskUnits="userSpaceOnUse" x="6" y="1" width="116" height="339">
<path fill-rule="evenodd" clip-rule="evenodd" d="M121.035 330.871L41.2835 339.254L6.69256 10.1423L86.4441 1.76013L121.035 330.871Z" fill="white"/>
</mask>
<g mask="url(#mask0_19_4373)">
<path fill-rule="evenodd" clip-rule="evenodd" d="M103.115 303.669L89.4677 30.5282C87.7979 14.6413 58.7287 4.67304 42.9145 6.33517C27.1004 7.99731 8.04643 23.0235 9.71621 38.9104L45.8485 309.687C47.5185 325.577 61.6913 337.109 77.5055 335.446C93.3197 333.784 104.785 319.558 103.115 303.669Z" fill="#FCD9C3"/>
</g>
<mask id="mask1_19_4373" style="mask-type:luminance" maskUnits="userSpaceOnUse" x="12" y="0" width="122" height="360">
<path fill-rule="evenodd" clip-rule="evenodd" d="M133.877 350.881L49.4188 359.758L12.6074 9.52074L97.0656 0.643826L133.877 350.881Z" fill="white"/>
</mask>
<g mask="url(#mask1_19_4373)">
<path fill-rule="evenodd" clip-rule="evenodd" d="M99.261 300.668C95.211 298.926 93.0669 294.388 92.8536 289.969L79.7598 40.222C78.09 24.3348 41.4321 15.1667 25.618 16.8288C21.284 17.2843 17.2959 18.7081 13.7957 20.8267C18.3087 13.4148 33.6454 7.30953 42.9145 6.33531C58.7286 4.67318 87.7979 14.6415 89.4677 30.5283L102.028 290.688C102.167 293.571 103.832 296.147 106.377 297.49C120.639 305.019 134.064 319.012 132.921 350.981C132.921 350.981 133.954 315.589 99.261 300.668Z" fill="#F2BCA7"/>
</g>
<path fill-rule="evenodd" clip-rule="evenodd" d="M119.762 361.153C119.448 357.681 114.627 354.568 108.982 354.194C103.329 353.82 98.9897 356.337 99.2907 359.815L101.244 382.381C101.245 382.386 103.898 411.659 103.898 411.664C104.213 415.136 109.033 418.25 114.678 418.624C120.332 418.997 124.67 416.481 124.369 413.003L119.764 361.169C119.764 361.165 119.763 361.159 119.762 361.153Z" fill="#FCD9C3"/>
<path fill-rule="evenodd" clip-rule="evenodd" d="M123.516 412.412C123.516 412.412 118.282 357.014 118.861 360.499C118.862 360.505 118.863 360.511 118.864 360.515L127.417 412.553C127.982 416.044 123.876 418.704 118.242 418.493C117.586 418.468 116.938 418.402 116.304 418.305C120.895 417.908 124.014 415.484 123.516 412.412Z" fill="#F2BCA7"/>
<path fill-rule="evenodd" clip-rule="evenodd" d="M84.3044 405.761L84.3012 405.731L79.9506 365.341C79.2738 359.067 73.6641 354.527 67.4197 355.199C61.1853 355.872 56.6762 361.487 57.334 367.746L57.3374 367.778L61.6878 408.166C62.3646 414.44 67.9745 418.982 74.2184 418.308C80.4531 417.635 84.9624 412.022 84.3044 405.761Z" fill="#FCD9C3"/>
<path fill-rule="evenodd" clip-rule="evenodd" d="M77.6109 406.416C77.6127 406.406 77.6121 406.427 77.6109 406.416C77.6109 406.416 79.5101 383.303 79.4359 374.648L80.9555 373.899L84.3012 405.731L84.3044 405.761C84.9624 412.022 80.4548 417.652 74.2184 418.308C71.0688 418.639 70.3305 417.916 69.6365 417.862C74.8002 416.336 76.7099 412.072 77.6109 406.416Z" fill="#F2BCA7"/>
<path fill-rule="evenodd" clip-rule="evenodd" d="M102.174 367.777C101.993 364.706 96.7756 362.282 90.506 362.36C84.2277 362.438 79.2711 364.996 79.4358 368.073L80.5071 388.039C80.5072 388.044 82.0295 413.935 82.0296 413.939C82.2101 417.01 87.4274 419.434 93.6963 419.357C99.9756 419.279 104.931 416.72 104.766 413.643L102.174 367.791C102.174 367.787 102.174 367.782 102.174 367.777Z" fill="#FCD9C3"/>
<path fill-rule="evenodd" clip-rule="evenodd" d="M64.0775 401.911L64.0743 401.881L59.724 361.493C59.0472 355.219 53.4373 350.678 47.1931 351.351C40.9587 352.024 36.4494 357.637 37.1074 363.898L37.1105 363.928L41.4611 404.318C42.1379 410.593 47.7476 415.132 53.9918 414.46C60.2264 413.788 64.7356 408.172 64.0775 401.911Z" fill="#FCD9C3"/>
<path fill-rule="evenodd" clip-rule="evenodd" d="M59.9561 402.344L59.9529 402.314C59.9529 402.314 60.2344 366.514 60.9109 372.788L64.0744 401.881L64.0776 401.911C64.7356 408.172 60.2262 413.788 53.9918 414.46C53.275 414.538 52.5684 414.538 51.8739 414.482C57.038 412.956 60.5411 407.911 59.9561 402.344Z" fill="#F2BCA7"/>
<path fill-rule="evenodd" clip-rule="evenodd" d="M100.417 413.703C100.417 413.703 102.878 380.234 102.878 380.238L104.766 413.643C104.931 416.72 99.9756 419.278 93.6962 419.357C92.9647 419.366 92.248 419.338 91.5512 419.281C96.7448 418.712 100.562 416.409 100.417 413.703Z" fill="#F2BCA7"/>
<path d="M100.539 280.608C128.541 262.441 17.326 287.534 31.6947 302.871C33.8309 305.151 42.9151 303.918 46.091 302.796" stroke="#FFB600" stroke-width="1.701"/>
<path d="M41.1819 285.756C6.30259 290.1 109.201 237.341 109.973 258.173C110.088 261.27 102.301 266.196 99.0563 267.397" stroke="#FFB600" stroke-width="1.701"/>
<path d="M52.1888 352.557C52.0134 352.572 51.8651 352.529 51.7438 352.427C51.6224 352.326 51.5541 352.187 51.5387 352.012L50.1791 336.471C50.1638 336.296 50.207 336.147 50.3088 336.026C50.4106 335.905 50.5492 335.836 50.7245 335.821L57.2277 335.252C59.2838 335.072 60.9435 335.409 62.2067 336.262C63.4844 337.098 64.1992 338.384 64.3512 340.122C64.4502 341.253 64.255 342.234 63.7654 343.064C63.2918 343.892 62.6262 344.545 61.7684 345.021L65.5824 350.614C65.6386 350.706 65.6702 350.791 65.6771 350.871C65.6883 350.999 65.643 351.123 65.5411 351.244C65.4539 351.348 65.3385 351.407 65.1951 351.419L62.0391 351.695C61.7363 351.722 61.5069 351.67 61.3509 351.539C61.1935 351.392 61.0773 351.257 61.0024 351.135L57.8166 346.114L55.354 346.329L55.8184 351.637C55.8337 351.813 55.7905 351.961 55.6887 352.082C55.5869 352.204 55.4483 352.272 55.273 352.287L52.1888 352.557ZM55.0591 342.958L57.8325 342.716C58.5816 342.65 59.1235 342.418 59.458 342.019C59.8085 341.619 59.9558 341.101 59.9 340.463C59.8456 339.841 59.6184 339.355 59.2183 339.005C58.8342 338.653 58.2516 338.511 57.4706 338.58L54.6972 338.822L55.0591 342.958ZM74.9104 350.81C73.444 350.938 72.1479 350.811 71.0223 350.427C69.8966 350.044 68.989 349.401 68.2997 348.497C67.6089 347.578 67.1682 346.396 66.9776 344.951C66.9017 344.267 66.8337 343.583 66.7738 342.897C66.7138 342.212 66.6611 341.518 66.6157 340.815C66.554 339.375 66.7834 338.142 67.304 337.117C67.8392 336.074 68.6271 335.259 69.6677 334.67C70.7083 334.081 71.9539 333.723 73.4043 333.596C74.8389 333.47 76.1197 333.607 77.2468 334.007C78.3898 334.404 79.3153 335.07 80.0234 336.004C80.7301 336.922 81.1701 338.096 81.3434 339.526C81.4367 340.225 81.5133 340.917 81.5732 341.602C81.6332 342.288 81.6772 342.974 81.7053 343.663C81.7685 345.119 81.5397 346.359 81.0191 347.385C80.4971 348.394 79.7151 349.185 78.673 349.758C77.631 350.331 76.3768 350.682 74.9104 350.81ZM74.6092 347.367C75.454 347.293 76.117 346.978 76.5984 346.422C77.0957 345.865 77.3115 345.027 77.2457 343.908C77.2163 343.204 77.1743 342.541 77.12 341.92C77.0656 341.298 76.9931 340.654 76.9027 339.987C76.8053 339.241 76.6088 338.648 76.3134 338.208C76.0325 337.751 75.6671 337.429 75.2172 337.244C74.7673 337.058 74.2634 336.99 73.7056 337.039C73.1636 337.086 72.6872 337.24 72.2764 337.501C71.8656 337.762 71.5536 338.142 71.3404 338.643C71.1258 339.127 71.0353 339.746 71.069 340.498C71.1116 341.168 71.1601 341.815 71.2145 342.436C71.2689 343.058 71.3347 343.719 71.412 344.419C71.5575 345.53 71.9155 346.318 72.4861 346.782C73.0567 347.246 73.7644 347.441 74.6092 347.367ZM91.9552 349.319C90.441 349.451 89.1204 349.318 87.9933 348.919C86.8821 348.518 85.9819 347.866 85.2925 346.963C84.6191 346.058 84.1884 344.899 84.0006 343.486C83.9275 342.834 83.8581 342.133 83.7926 341.384C83.7271 340.635 83.6723 339.917 83.6283 339.23C83.5707 337.838 83.8029 336.637 84.3249 335.628C84.8456 334.602 85.6262 333.795 86.6668 333.206C87.706 332.602 88.9668 332.234 90.4492 332.105C91.5012 332.013 92.4853 332.063 93.4016 332.256C94.3165 332.433 95.131 332.747 95.845 333.198C96.5577 333.634 97.1287 334.194 97.5581 334.88C98.002 335.547 98.2709 336.327 98.365 337.218C98.3935 337.36 98.3561 337.484 98.2529 337.589C98.1656 337.693 98.0503 337.752 97.9068 337.764L94.6791 338.047C94.4719 338.065 94.3091 338.039 94.1905 337.969C94.0706 337.883 93.9603 337.724 93.8597 337.492C93.5626 336.667 93.1458 336.125 92.6093 335.867C92.0873 335.591 91.4597 335.485 90.7265 335.55C89.8498 335.626 89.1781 335.934 88.7113 336.473C88.243 336.995 88.0345 337.825 88.0857 338.961C88.1523 340.272 88.2694 341.611 88.4371 342.977C88.584 344.105 88.934 344.893 89.4873 345.343C90.0392 345.776 90.7535 345.955 91.6301 345.878C92.3633 345.814 92.971 345.6 93.4531 345.237C93.9353 344.873 94.2437 344.268 94.3784 343.421C94.4213 343.177 94.495 343.009 94.5996 342.92C94.7187 342.813 94.8819 342.751 95.0891 342.733L98.3168 342.45C98.4602 342.438 98.584 342.475 98.688 342.562C98.8079 342.648 98.8662 342.764 98.8628 342.908C98.925 343.802 98.7961 344.625 98.4764 345.375C98.1711 346.109 97.7061 346.76 97.0813 347.329C96.455 347.881 95.7075 348.332 94.8386 348.681C93.9683 349.014 93.0072 349.227 91.9552 349.319ZM102.458 348.159C102.282 348.174 102.134 348.131 102.013 348.029C101.891 347.928 101.823 347.789 101.808 347.614L100.448 332.073C100.433 331.898 100.476 331.749 100.578 331.628C100.68 331.507 100.818 331.438 100.993 331.423L104.006 331.159C104.181 331.144 104.33 331.187 104.451 331.289C104.572 331.391 104.641 331.53 104.656 331.705L105.12 337.013L109.067 331.174C109.122 331.073 109.217 330.969 109.352 330.86C109.502 330.735 109.704 330.661 109.959 330.639L113.402 330.337C113.546 330.325 113.67 330.37 113.775 330.473C113.879 330.561 113.937 330.668 113.948 330.796C113.958 330.907 113.934 331.006 113.878 331.091L108.795 338.811L115.658 346.209C115.727 346.267 115.768 346.36 115.779 346.488C115.79 346.615 115.745 346.74 115.643 346.861C115.555 346.965 115.448 347.023 115.321 347.034L111.758 347.345C111.471 347.371 111.243 347.326 111.072 347.213C110.917 347.098 110.813 347.01 110.76 346.951L105.509 341.46L106.016 347.246C106.031 347.421 105.988 347.569 105.886 347.691C105.784 347.812 105.645 347.88 105.47 347.896L102.458 348.159Z" fill="#EA9975"/>
</svg>
