<svg width="156" height="445" viewBox="0 0 156 445" fill="none" xmlns="http://www.w3.org/2000/svg">
<path fill-rule="evenodd" clip-rule="evenodd" d="M84.5109 438.003C76.0705 430.469 22.6547 429.924 27.8532 419.246C79.3638 313.455 84.9641 106.612 76.7488 79.7573C72.5592 66.0623 77.4571 51.3467 90.6726 45.8164C103.891 40.2839 118.969 43.2628 125.794 55.8535C138.623 79.5171 187.039 302.942 125.165 430.014C118.891 442.897 103.352 448.259 90.4594 441.986C88.2505 440.913 86.2594 439.564 84.5109 438.003Z" fill="#FBC399"/>
<path fill-rule="evenodd" clip-rule="evenodd" d="M104.545 439.803C102.334 438.727 100.343 437.378 98.5968 435.819C90.1548 428.283 37.1922 427.947 41.9372 417.06C107.723 266.146 91.4691 79.0936 90.8322 77.5724C85.4306 64.6408 91.2999 49.8328 103.939 44.0209C99.5789 43.4693 95.0208 43.996 90.6724 45.8164C77.4572 51.3467 71.2277 66.5424 76.7486 79.7573C77.3859 81.2801 96.9503 219.786 27.8533 419.246C23.966 430.467 76.0706 430.469 84.511 438.003C86.2595 439.564 88.2503 440.913 90.4592 441.986C97.7518 445.532 105.887 445.355 112.716 442.203C109.95 441.861 107.19 441.089 104.545 439.803Z" fill="#EA9975"/>
<path fill-rule="evenodd" clip-rule="evenodd" d="M24.4436 68.7243C20.3317 65.0536 18.8731 59.0072 21.2602 53.7171L31.6733 30.6352C33.7714 25.9841 38.4022 22.9948 43.5066 22.9916L84.4784 22.991C91.6446 22.991 97.4579 28.8006 97.4595 35.9607C97.4614 43.1242 91.649 48.9364 84.4796 48.9348L51.8943 48.9386L44.9292 64.3816C41.9826 70.9134 34.295 73.8194 27.7607 70.8768C26.5187 70.3178 25.4074 69.5847 24.4436 68.7243Z" fill="#EA9975"/>
<path fill-rule="evenodd" clip-rule="evenodd" d="M69.5402 105.394C97.1203 114.656 140.239 113.934 134.806 87.1693C125.944 43.5034 103.96 4.85598 76.4433 6.57034C76.4433 6.57034 60.8478 22.692 58.678 40.1006C87.8977 74.4565 69.5402 105.394 69.5402 105.394Z" fill="#FBC399"/>
<path fill-rule="evenodd" clip-rule="evenodd" d="M83.7754 73.6982C82.3398 63.7441 71.824 44.0783 58.6777 40.1007C87.8977 74.4563 69.5402 105.394 69.5402 105.394C76.5204 107.738 86.4662 92.4062 83.7754 73.6982Z" fill="#EA9975"/>
<path fill-rule="evenodd" clip-rule="evenodd" d="M4.36234 72.8072C1.81423 70.5323 0.165179 67.2652 0.0338105 63.5856C-0.128821 58.9554 -0.748085 17.9778 27.2899 4.95697C53.5835 -7.25118 83.6448 6.85722 84.9114 7.46349C91.3775 10.5621 94.1091 18.3085 91.009 24.7708C87.9174 31.2195 80.1888 33.9508 73.7318 30.8819C68.0943 28.2421 50.7474 22.6749 38.2267 28.4874C28.3273 33.0854 25.6715 53.8896 25.9822 62.6722C26.2349 69.8329 20.6293 75.8433 13.4665 76.0929C9.98181 76.2176 6.76992 74.9564 4.36234 72.8072Z" fill="#FBC399"/>
<path fill-rule="evenodd" clip-rule="evenodd" d="M12.6605 71.7818C10.1133 69.5079 8.46235 66.2408 8.33414 62.5592C8.17025 57.9309 7.55004 16.9524 35.589 3.93254C39.5149 2.1071 43.526 0.882873 47.5122 0.10144C40.8822 0.459018 33.9674 1.85619 27.29 4.95699C-0.747963 17.9778 -0.128699 58.9554 0.0339326 63.5856C0.165301 67.2652 1.81404 70.5323 4.36246 72.8072C6.77004 74.9564 9.98193 76.2176 13.4667 76.0929C15.3462 76.027 17.1042 75.5469 18.6911 74.7724C16.4161 74.3057 14.3367 73.2781 12.6605 71.7818Z" fill="#EA9975"/>
<path fill-rule="evenodd" clip-rule="evenodd" d="M82.0305 29.8574C77.0259 27.5138 62.7936 22.8807 50.9012 25.937C60.4634 25.8771 69.86 29.0703 73.7319 30.8819C77.4317 32.6379 81.5417 32.4852 84.9639 30.8314C83.9729 30.6234 82.9877 30.3116 82.0305 29.8574Z" fill="#EA9975"/>
<path fill-rule="evenodd" clip-rule="evenodd" d="M83.6992 14.9224C73.2557 12.5185 38.0768 6.61356 22.0122 15.2365C13.322 20.1734 6.9895 27.7072 3.18297 37.0765C-0.241132 49.6608 -0.0481843 61.2504 0.0339209 63.5856C0.165289 67.2655 1.81403 70.5323 4.36245 72.8072C6.77003 74.9564 9.98192 76.2176 13.4667 76.0929C19.1209 75.8963 23.7513 72.0873 25.3501 66.9843C24.3241 58.6041 25.1534 51.5078 27.7353 46.2006C29.5018 38.5229 32.7557 31.0276 38.2268 28.4874C50.7472 22.6749 68.0944 28.2421 73.7319 30.8818C80.1889 33.9508 87.9172 31.2195 91.0088 24.7708C91.7291 23.2651 92.1241 21.6921 92.2403 20.122C90.1599 17.475 87.183 15.53 83.6992 14.9224Z" fill="#EA9975"/>
<path fill-rule="evenodd" clip-rule="evenodd" d="M8.96593 92.7013C7.01183 90.957 5.56519 88.6095 4.95098 85.8594C-1.46112 57.1423 6.41183 33.3247 26.0116 22.1464C41.9015 13.0813 74.9855 15.8918 84.7472 16.9689C91.8755 17.7542 97.014 24.1675 96.2268 31.2859C95.4386 38.4081 89.0255 43.5443 81.9004 42.7584C65.8305 41.0015 44.712 41.353 38.8788 44.6808C29.5655 49.993 26.4345 62.9409 30.289 80.2072C31.8502 87.1981 27.4437 94.1335 20.4474 95.6929C16.2026 96.64 11.9795 95.3915 8.96593 92.7013Z" fill="#FBC399"/>
<path fill-rule="evenodd" clip-rule="evenodd" d="M22.7244 114.131C18.8127 110.639 17.2612 104.964 19.2602 99.7851C21.8345 93.1092 29.3291 89.7811 36.0096 92.334C41.2751 94.3287 57.3924 98.7566 68.6136 95.3029C79.5709 91.9313 84.2923 77.2473 84.3362 77.0986C86.3392 70.2213 93.5443 66.264 100.428 68.2681C107.307 70.2766 111.266 77.4707 109.266 84.3506C108.931 85.4975 100.796 112.548 76.251 120.1C54.4492 126.81 29.4788 117.624 26.7024 116.555C25.1967 115.976 23.8609 115.145 22.7244 114.131Z" fill="#FBC399"/>
<path fill-rule="evenodd" clip-rule="evenodd" d="M18.6641 106.612C18.6641 106.612 18.8129 110.639 22.7242 114.13C23.8608 115.145 25.1969 115.976 26.7022 116.555C29.4786 117.624 54.4491 126.81 76.2509 120.1C79.6942 119.043 82.8013 117.59 85.6235 115.889C64.1129 121.912 26.4474 116.679 18.6641 106.612Z" fill="#EA9975"/>
<path d="M134.189 124.848L138.787 131.883" stroke="#EA9975" stroke-width="1.89525" stroke-linecap="round"/>
<path d="M112.447 113.938L110.953 122.208" stroke="#EA9975" stroke-width="1.89525" stroke-linecap="round"/>
<path d="M121.329 136.259L122.473 144.585" stroke="#EA9975" stroke-width="1.89525" stroke-linecap="round"/>
<path d="M135.426 192.01L136.57 200.335" stroke="#EA9975" stroke-width="1.89525" stroke-linecap="round"/>
<path d="M113.195 342.344L111.802 350.631" stroke="#EA9975" stroke-width="1.89525" stroke-linecap="round"/>
<path d="M151.16 233.991L152.304 242.316" stroke="#EA9975" stroke-width="1.89525" stroke-linecap="round"/>
<path d="M128.518 329.95L129.662 338.275" stroke="#EA9975" stroke-width="1.89525" stroke-linecap="round"/>
<path d="M138.623 220.745L141.059 228.789" stroke="#EA9975" stroke-width="1.89525" stroke-linecap="round"/>
<path d="M128.869 262.124L131.305 270.167" stroke="#EA9975" stroke-width="1.89525" stroke-linecap="round"/>
<path d="M142.627 346.628L145.063 354.672" stroke="#EA9975" stroke-width="1.89525" stroke-linecap="round"/>
<path d="M143.845 277.561L146.28 285.604" stroke="#EA9975" stroke-width="1.89525" stroke-linecap="round"/>
<path d="M150.016 206.27L151.16 214.595" stroke="#EA9975" stroke-width="1.89525" stroke-linecap="round"/>
<path d="M129.042 164.884L127.256 173.096" stroke="#EA9975" stroke-width="1.89525" stroke-linecap="round"/>
<path d="M122.429 207.934L120.644 216.146" stroke="#EA9975" stroke-width="1.89525" stroke-linecap="round"/>
<path d="M114.284 313.872L112.498 322.084" stroke="#EA9975" stroke-width="1.89525" stroke-linecap="round"/>
<path d="M83.5993 338.275L81.8145 346.488" stroke="#EA9975" stroke-width="1.89525" stroke-linecap="round"/>
<path d="M113.391 286.351L111.606 294.563" stroke="#EA9975" stroke-width="1.89525" stroke-linecap="round"/>
<path d="M109.509 257.934L107.724 266.146" stroke="#EA9975" stroke-width="1.89525" stroke-linecap="round"/>
<path d="M94.1489 296.229L89.9053 303.484" stroke="#EA9975" stroke-width="1.89525" stroke-linecap="round"/>
<path d="M127.117 237.011L127.967 245.371" stroke="#EA9975" stroke-width="1.89525" stroke-linecap="round"/>
<path d="M129.237 294.026L130.087 302.387" stroke="#EA9975" stroke-width="1.89525" stroke-linecap="round"/>
<path d="M108.763 146.228L104.063 153.196" stroke="#EA9975" stroke-width="1.89525" stroke-linecap="round"/>
<path d="M97.6007 134.416L92.9008 141.384" stroke="#EA9975" stroke-width="1.89525" stroke-linecap="round"/>
<path d="M114.701 186.539L111.47 194.297" stroke="#EA9975" stroke-width="1.89525" stroke-linecap="round"/>
<path d="M98.1861 319.846L94.9546 327.604" stroke="#EA9975" stroke-width="1.89525" stroke-linecap="round"/>
<path d="M102.602 213.564L96.9505 219.786" stroke="#EA9975" stroke-width="1.89525" stroke-linecap="round"/>
<path d="M112.498 165.208L107.798 172.177" stroke="#EA9975" stroke-width="1.89525" stroke-linecap="round"/>
<path d="M108.586 234.67L103.886 241.638" stroke="#EA9975" stroke-width="1.89525" stroke-linecap="round"/>
<path d="M94.3768 267.978L89.6769 274.946" stroke="#EA9975" stroke-width="1.89525" stroke-linecap="round"/>
<path d="M98.92 189.645L94.2201 196.613" stroke="#EA9975" stroke-width="1.89525" stroke-linecap="round"/>
<path d="M91.1008 239.713L86.4006 246.681" stroke="#EA9975" stroke-width="1.89525" stroke-linecap="round"/>
<path d="M95.553 166.398L88.5011 170.975" stroke="#EA9975" stroke-width="1.89525" stroke-linecap="round"/>
<path d="M136.965 147.548L140.916 154.966" stroke="#EA9975" stroke-width="1.89525" stroke-linecap="round"/>
<path d="M143.845 177.062L147.797 184.48" stroke="#EA9975" stroke-width="1.89525" stroke-linecap="round"/>
<path d="M139.083 318.375L143.035 325.793" stroke="#EA9975" stroke-width="1.89525" stroke-linecap="round"/>
<path d="M145.821 254.225L149.772 261.643" stroke="#EA9975" stroke-width="1.89525" stroke-linecap="round"/>
<path d="M149.757 302.387L153.708 309.805" stroke="#EA9975" stroke-width="1.89525" stroke-linecap="round"/>
<path d="M23.3711 101.048L35.1241 104.474C36.4148 104.843 37.5734 105.572 38.4646 106.575H38.4649C41.4706 109.957 40.5693 115.25 36.6137 117.448L35.8741 117.859" stroke="#EA9975" stroke-width="1.89525" stroke-linecap="round"/>
<path d="M19.5489 92.9673L18.9423 84.3043C18.875 82.9245 18.4162 81.592 17.6194 80.4634C14.9333 76.6566 9.41082 76.316 6.27661 79.7637L5.69019 80.4082" stroke="#EA9975" stroke-width="1.89525" stroke-linecap="round"/>
</svg>
