<svg width="156" height="327" viewBox="0 0 156 327" fill="none" xmlns="http://www.w3.org/2000/svg">
<path fill-rule="evenodd" clip-rule="evenodd" d="M84.5109 438.318C76.0705 430.784 22.6547 430.238 27.8532 419.561C79.3638 313.77 84.9641 106.927 76.7488 80.0721C72.5592 66.3771 77.4571 51.6615 90.6726 46.1312C103.891 40.5987 118.969 43.5777 125.794 56.1683C138.623 79.8319 187.039 303.257 125.165 430.328C118.891 443.211 103.352 448.573 90.4594 442.301C88.2505 441.227 86.2594 439.879 84.5109 438.318Z" fill="#FBC399"/>
<path fill-rule="evenodd" clip-rule="evenodd" d="M104.545 440.118C102.334 439.042 100.343 437.692 98.5967 436.133C90.1547 428.598 37.1921 428.262 41.9372 417.375C107.723 266.461 91.4691 79.4084 90.8321 77.8872C85.4305 64.9557 91.2998 50.1476 103.939 44.3358C99.5788 43.7841 95.0208 44.3109 90.6723 46.1312C77.4572 51.6616 71.2276 66.8572 76.7485 80.0721C77.3858 81.5949 96.9502 220.101 27.8533 419.561C23.9659 430.782 76.0705 430.784 84.511 438.318C86.2595 439.879 88.2502 441.228 90.4592 442.301C97.7517 445.847 105.887 445.67 112.716 442.518C109.95 442.176 107.19 441.404 104.545 440.118Z" fill="#EA9975"/>
<path fill-rule="evenodd" clip-rule="evenodd" d="M24.4437 69.0392C20.3318 65.3684 18.8732 59.3221 21.2602 54.032L31.6734 30.95C33.7715 26.299 38.4022 23.3096 43.5066 23.3064L84.4784 23.3058C91.6446 23.3058 97.458 29.1154 97.4596 36.2755C97.4615 43.4391 91.6491 49.2512 84.4797 49.2496L51.8943 49.2534L44.9293 64.6965C41.9826 71.2282 34.2951 74.1343 27.7607 71.1916C26.5187 70.6327 25.4075 69.8995 24.4437 69.0392Z" fill="#EA9975"/>
<path fill-rule="evenodd" clip-rule="evenodd" d="M69.5402 105.709C97.1203 114.971 140.239 114.249 134.806 87.4841C125.944 43.8183 103.96 5.1708 76.4433 6.88516C76.4433 6.88516 60.8478 23.0068 58.678 40.4154C87.8977 74.7713 69.5402 105.709 69.5402 105.709Z" fill="#FBC399"/>
<path fill-rule="evenodd" clip-rule="evenodd" d="M83.7754 74.013C82.3398 64.0589 71.824 44.3931 58.6777 40.4155C87.8977 74.7711 69.5403 105.709 69.5403 105.709C76.5205 108.053 86.4663 92.721 83.7754 74.013Z" fill="#EA9975"/>
<path fill-rule="evenodd" clip-rule="evenodd" d="M4.36234 73.122C1.81423 70.8471 0.165179 67.58 0.0338105 63.9004C-0.128821 59.2702 -0.748085 18.2926 27.2899 5.27179C53.5835 -6.93636 83.6448 7.17204 84.9114 7.77831C91.3775 10.8769 94.1091 18.6234 91.009 25.0857C87.9174 31.5344 80.1888 34.2656 73.7318 31.1967C68.0943 28.557 50.7474 22.9897 38.2267 28.8022C28.3273 33.4002 25.6715 54.2044 25.9822 62.987C26.2349 70.1477 20.6293 76.1581 13.4665 76.4077C9.98181 76.5324 6.76992 75.2712 4.36234 73.122Z" fill="#FBC399"/>
<path fill-rule="evenodd" clip-rule="evenodd" d="M12.6605 72.0966C10.1133 69.8227 8.46235 66.5556 8.33414 62.874C8.17025 58.2457 7.55004 17.2672 35.589 4.24735C39.5149 2.4219 43.526 1.19768 47.5122 0.416245C40.8822 0.773823 33.9674 2.171 27.29 5.27179C-0.747963 18.2926 -0.128699 59.2702 0.0339326 63.9004C0.165301 67.58 1.81404 70.8471 4.36246 73.122C6.77004 75.2712 9.98193 76.5324 13.4667 76.4077C15.3462 76.3418 17.1042 75.8617 18.6911 75.0872C16.4161 74.6205 14.3367 73.5929 12.6605 72.0966Z" fill="#EA9975"/>
<path fill-rule="evenodd" clip-rule="evenodd" d="M82.0305 30.1723C77.0259 27.8286 62.7936 23.1955 50.9012 26.2518C60.4634 26.1919 69.86 29.3851 73.7319 31.1967C77.4317 32.9527 81.5417 32.8 84.9639 31.1462C83.9729 30.9382 82.9877 30.6264 82.0305 30.1723Z" fill="#EA9975"/>
<path fill-rule="evenodd" clip-rule="evenodd" d="M83.6992 15.2372C73.2558 12.8333 38.0768 6.92836 22.0123 15.5513C13.3221 20.4882 6.98956 28.022 3.18303 37.3913C-0.241071 49.9756 -0.0481233 61.5652 0.033982 63.9003C0.16535 67.5803 1.81409 70.8471 4.36251 73.1219C6.77009 75.2712 9.98198 76.5324 13.4667 76.4077C19.1209 76.2111 23.7514 72.4021 25.3502 67.2991C24.3242 58.9189 25.1535 51.8225 27.7353 46.5154C29.5019 38.8377 32.7558 31.3424 38.2268 28.8022C50.7472 22.9897 68.0945 28.5569 73.732 31.1966C80.1889 34.2656 87.9173 31.5343 91.0088 25.0856C91.7291 23.5799 92.1242 22.0069 92.2404 20.4368C90.16 17.7898 87.183 15.8448 83.6992 15.2372Z" fill="#EA9975"/>
<path fill-rule="evenodd" clip-rule="evenodd" d="M8.96599 93.0161C7.01189 91.2717 5.56526 88.9243 4.95104 86.1741C-1.46106 57.4571 6.41189 33.6395 26.0117 22.4612C41.9016 13.3961 74.9856 16.2065 84.7473 17.2837C91.8756 18.0689 97.0141 24.4823 96.2268 31.6007C95.4386 38.7229 89.0256 43.859 81.9004 43.0732C65.8305 41.3162 44.7121 41.6678 38.8788 44.9955C29.5656 50.3077 26.4345 63.2557 30.289 80.522C31.8503 87.5129 27.4438 94.4483 20.4475 96.0077C16.2026 96.9548 11.9796 95.7063 8.96599 93.0161Z" fill="#FBC399"/>
<path fill-rule="evenodd" clip-rule="evenodd" d="M22.7244 114.445C18.8127 110.953 17.2612 105.279 19.2602 100.1C21.8345 93.424 29.3291 90.0959 36.0096 92.6488C41.2751 94.6434 57.3924 99.0714 68.6136 95.6177C79.5709 92.2461 84.2923 77.5621 84.3362 77.4134C86.3392 70.5361 93.5443 66.5788 100.428 68.5829C107.307 70.5914 111.266 77.7855 109.266 84.6653C108.931 85.8122 100.796 112.863 76.251 120.415C54.4492 127.125 29.4788 117.939 26.7024 116.87C25.1967 116.291 23.8609 115.46 22.7244 114.445Z" fill="#FBC399"/>
<path fill-rule="evenodd" clip-rule="evenodd" d="M18.6642 106.927C18.6642 106.927 18.8129 110.953 22.7243 114.445C23.8608 115.46 25.1969 116.291 26.7023 116.87C29.4787 117.939 54.4491 127.125 76.2509 120.415C79.6943 119.358 82.8013 117.905 85.6236 116.204C64.1129 122.227 26.4474 116.994 18.6642 106.927Z" fill="#EA9975"/>
<path d="M134.189 125.163L138.787 132.198" stroke="#EA9975" stroke-width="1.89525" stroke-linecap="round"/>
<path d="M112.447 114.253L110.953 122.523" stroke="#EA9975" stroke-width="1.89525" stroke-linecap="round"/>
<path d="M121.329 136.574L122.473 144.899" stroke="#EA9975" stroke-width="1.89525" stroke-linecap="round"/>
<path d="M135.426 192.324L136.57 200.65" stroke="#EA9975" stroke-width="1.89525" stroke-linecap="round"/>
<path d="M151.16 234.306L152.304 242.631" stroke="#EA9975" stroke-width="1.89525" stroke-linecap="round"/>
<path d="M138.623 221.06L141.059 229.103" stroke="#EA9975" stroke-width="1.89525" stroke-linecap="round"/>
<path d="M128.869 262.439L131.305 270.482" stroke="#EA9975" stroke-width="1.89525" stroke-linecap="round"/>
<path d="M143.845 277.876L146.28 285.919" stroke="#EA9975" stroke-width="1.89525" stroke-linecap="round"/>
<path d="M150.016 206.585L151.16 214.91" stroke="#EA9975" stroke-width="1.89525" stroke-linecap="round"/>
<path d="M129.042 165.199L127.256 173.411" stroke="#EA9975" stroke-width="1.89525" stroke-linecap="round"/>
<path d="M122.429 208.249L120.644 216.461" stroke="#EA9975" stroke-width="1.89525" stroke-linecap="round"/>
<path d="M114.284 314.187L112.498 322.399" stroke="#EA9975" stroke-width="1.89525" stroke-linecap="round"/>
<path d="M113.391 286.666L111.606 294.878" stroke="#EA9975" stroke-width="1.89525" stroke-linecap="round"/>
<path d="M109.509 258.249L107.724 266.461" stroke="#EA9975" stroke-width="1.89525" stroke-linecap="round"/>
<path d="M94.149 296.544L89.9054 303.799" stroke="#EA9975" stroke-width="1.89525" stroke-linecap="round"/>
<path d="M127.117 237.325L127.967 245.686" stroke="#EA9975" stroke-width="1.89525" stroke-linecap="round"/>
<path d="M129.237 294.341L130.087 302.701" stroke="#EA9975" stroke-width="1.89525" stroke-linecap="round"/>
<path d="M108.763 146.543L104.063 153.511" stroke="#EA9975" stroke-width="1.89525" stroke-linecap="round"/>
<path d="M97.6008 134.731L92.9009 141.699" stroke="#EA9975" stroke-width="1.89525" stroke-linecap="round"/>
<path d="M114.701 186.853L111.47 194.611" stroke="#EA9975" stroke-width="1.89525" stroke-linecap="round"/>
<path d="M98.1861 320.16L94.9546 327.919" stroke="#EA9975" stroke-width="1.89525" stroke-linecap="round"/>
<path d="M102.602 213.879L96.9504 220.101" stroke="#EA9975" stroke-width="1.89525" stroke-linecap="round"/>
<path d="M112.498 165.523L107.798 172.492" stroke="#EA9975" stroke-width="1.89525" stroke-linecap="round"/>
<path d="M108.586 234.984L103.886 241.953" stroke="#EA9975" stroke-width="1.89525" stroke-linecap="round"/>
<path d="M94.3768 268.293L89.6769 275.261" stroke="#EA9975" stroke-width="1.89525" stroke-linecap="round"/>
<path d="M98.92 189.96L94.2201 196.928" stroke="#EA9975" stroke-width="1.89525" stroke-linecap="round"/>
<path d="M91.1008 240.028L86.4006 246.996" stroke="#EA9975" stroke-width="1.89525" stroke-linecap="round"/>
<path d="M95.553 166.713L88.5011 171.29" stroke="#EA9975" stroke-width="1.89525" stroke-linecap="round"/>
<path d="M136.965 147.863L140.916 155.28" stroke="#EA9975" stroke-width="1.89525" stroke-linecap="round"/>
<path d="M143.845 177.377L147.797 184.795" stroke="#EA9975" stroke-width="1.89525" stroke-linecap="round"/>
<path d="M139.083 318.69L143.035 326.108" stroke="#EA9975" stroke-width="1.89525" stroke-linecap="round"/>
<path d="M145.821 254.54L149.772 261.958" stroke="#EA9975" stroke-width="1.89525" stroke-linecap="round"/>
<path d="M149.757 302.701L153.708 310.119" stroke="#EA9975" stroke-width="1.89525" stroke-linecap="round"/>
<path d="M23.3711 101.363L35.1241 104.789C36.4148 105.158 37.5734 105.887 38.4646 106.89H38.4649C41.4706 110.271 40.5693 115.565 36.6137 117.763L35.8741 118.174" stroke="#EA9975" stroke-width="1.89525" stroke-linecap="round"/>
<path d="M19.5489 93.2821L18.9423 84.6191C18.875 83.2393 18.4162 81.9068 17.6194 80.7782C14.9333 76.9714 9.41082 76.6309 6.27661 80.0785L5.69019 80.723" stroke="#EA9975" stroke-width="1.89525" stroke-linecap="round"/>
</svg>
