<svg width="36" height="42" viewBox="0 0 36 42" fill="none" xmlns="http://www.w3.org/2000/svg">
<mask id="mask0_19_2933" style="mask-type:luminance" maskUnits="userSpaceOnUse" x="0" y="0" width="36" height="42">
<path fill-rule="evenodd" clip-rule="evenodd" d="M0 0.396225H35.8522V41.7797H0V0.396225Z" fill="white"/>
</mask>
<g mask="url(#mask0_19_2933)">
<path fill-rule="evenodd" clip-rule="evenodd" d="M13.8769 0.865949C5.99131 2.44887 -0.84707 10.4459 0.08529 21.0921C1.01765 31.7387 9.43599 44.7116 28.3445 41.1907C36.1981 39.2967 35.4668 30.6107 35.0959 26.3279C34.7254 22.0454 37.9832 14.5433 33.2777 7.34702C28.5726 0.151156 19.4306 -0.249032 13.8769 0.865949Z" fill="#7AB2CC"/>
</g>
<path fill-rule="evenodd" clip-rule="evenodd" d="M6.88388 18.9678C2.85391 21.0024 2.88869 29.5965 7.91292 32.3883C12.9375 35.1801 20.2273 33.5857 21.4259 31.3657C23.2331 28.0168 19.0042 21.8669 14.8714 19.6742C11.373 17.8183 8.92456 17.9372 6.88388 18.9678Z" fill="#68A2BD"/>
<path fill-rule="evenodd" clip-rule="evenodd" d="M9.25034 21.4068C6.21986 22.9371 6.21663 28.7144 9.99501 30.8137C13.7738 32.9133 18.6427 31.7753 19.5148 30.0905C20.5349 28.1205 18.3652 23.5873 15.2571 21.9382C12.6262 20.5423 10.785 20.6322 9.25034 21.4068Z" fill="white"/>
<path fill-rule="evenodd" clip-rule="evenodd" d="M35.0961 26.3279C34.8502 23.485 36.2004 19.2236 35.7619 14.5751C34.8902 13.0924 33.3867 12.5016 31.0233 13.7275C28.5 15.0363 24.07 20.3929 26.4945 27.0546C27.3812 29.4914 32.0592 30.3231 34.6487 27.5963C34.8207 27.4152 34.9865 27.1814 35.1455 26.9084C35.1289 26.7083 35.1123 26.5126 35.0961 26.3279Z" fill="#68A2BD"/>
<path fill-rule="evenodd" clip-rule="evenodd" d="M30.451 16.2077C28.5583 17.1896 25.8227 20.9597 27.6414 25.9569C28.3067 27.7847 31.228 28.6568 33.1704 26.611C35.1819 24.4928 36.1827 13.2344 30.451 16.2077Z" fill="white"/>
<path fill-rule="evenodd" clip-rule="evenodd" d="M31.6122 20.0011C30.8481 20.0645 30.209 20.8637 29.7904 21.4208C29.2338 22.1614 28.7278 23.0231 29.1662 23.9289C29.3005 24.2067 29.6601 24.4111 29.9777 24.3343C30.9695 24.093 31.3347 23.2553 31.632 22.3698C31.8545 21.7073 32.1809 20.7845 31.8387 20.1145C31.7938 20.0265 31.7073 19.9932 31.6122 20.0011Z" fill="#1B122E"/>
<path fill-rule="evenodd" clip-rule="evenodd" d="M12.0191 26.7425C12.3277 27.4177 13.2589 27.7632 13.919 28.0104C14.8186 28.3472 15.702 28.6099 16.5308 28.0037C16.7941 27.8107 16.8601 27.4106 16.7242 27.13C16.2857 26.2231 15.3145 26.0677 14.3732 26.017C13.6605 25.979 12.61 25.9572 12.0729 26.4988C12.0061 26.5662 11.9782 26.6534 12.0191 26.7425Z" fill="#1B122E"/>
<path fill-rule="evenodd" clip-rule="evenodd" d="M28.7523 29.5922C28.9213 29.1306 25.0151 22.915 23.6823 23.4114C22.5914 23.8188 21.74 31.7159 22.3087 31.8126" fill="#68A2BD"/>
<path fill-rule="evenodd" clip-rule="evenodd" d="M25.8497 32.1084C23.1946 32.9112 18.7553 34.252 19.8676 37.4147C20.8255 40.1368 25.8412 39.0987 27.6558 38.0657C29.2924 37.1346 33.2317 35.9847 32.7751 32.6877C32.318 29.3907 27.2015 31.6999 25.8497 32.1084Z" fill="#68A2BD"/>
<path fill-rule="evenodd" clip-rule="evenodd" d="M25.9416 32.7925C23.9143 33.4055 20.525 34.4293 21.3741 36.8439C22.1054 38.9222 25.9351 38.1297 27.3205 37.3408C28.5704 36.63 31.5778 35.7519 31.2292 33.2343C30.8805 30.7171 26.9739 32.4803 25.9416 32.7925Z" fill="white"/>
<path fill-rule="evenodd" clip-rule="evenodd" d="M24.0616 24.3441C23.2745 24.6373 22.6605 30.3347 23.0706 30.4044C23.4808 30.4737 27.5969 29.1353 27.7191 28.8025C27.8408 28.4696 25.0227 23.9859 24.0616 24.3441Z" fill="white"/>
<path fill-rule="evenodd" clip-rule="evenodd" d="M22.5378 15.6993C22.5617 15.6993 22.5617 15.6632 22.5378 15.6632C22.514 15.6632 22.514 15.6993 22.5378 15.6993Z" fill="#FFD91D"/>
<path fill-rule="evenodd" clip-rule="evenodd" d="M13.613 10.7216C13.1827 10.1004 12.1706 9.84561 11.4312 10.0943C10.2638 10.4873 9.70639 11.6672 10.1544 12.716C10.4423 13.3903 10.9468 14.0612 11.866 13.9955C12.4235 13.9563 13.0504 13.5741 13.4184 13.204C14.135 12.4838 14.1769 11.5358 13.613 10.7216Z" fill="#68A2BD"/>
<path fill-rule="evenodd" clip-rule="evenodd" d="M5.60504 12.0156C4.40984 11.8962 3.21642 12.4712 3.03116 13.4398C2.78856 14.7095 3.99344 15.7772 5.57038 15.9769C6.98633 16.1556 8.04207 15.2729 7.99871 14.2164C7.9558 13.1789 6.9865 12.1535 5.60504 12.0156Z" fill="#68A2BD"/>
<path fill-rule="evenodd" clip-rule="evenodd" d="M5.89432 9.44994C6.26726 9.72572 6.84852 9.77921 7.26353 9.56445C7.80273 9.28551 8.22664 8.75892 8.38965 8.18479C8.53658 7.16144 8 6.35106 7.27729 6.10777C6.7652 5.9164 6.20255 5.96949 5.69571 6.35106C4.60479 7.17323 4.8932 8.70979 5.89432 9.44994Z" fill="#68A2BD"/>
<path opacity="0.01" fill-rule="evenodd" clip-rule="evenodd" d="M7.19958 36.2C11.7841 40.4895 18.699 42.9869 28.3445 41.1908C33.2098 40.0172 34.7792 36.2372 35.1817 32.5119C32.1039 37.1759 29.7307 38.5995 23.3968 39.1518C15.7563 39.8191 12.3124 37.83 7.19958 36.2Z" fill="#CCCCCC"/>
</svg>
