<svg width="35" height="35" viewBox="0 0 35 35" fill="none" xmlns="http://www.w3.org/2000/svg">
<path d="M35 17.5C35 27.165 27.165 35 17.5 35C7.83502 35 0 27.165 0 17.5C0 7.83502 7.83502 0 17.5 0C27.165 0 35 7.83502 35 17.5Z" fill="#F5F4EE"/>
<path d="M32.5862 17.1983C32.5862 9.02457 25.819 2.41379 17.5 2.41379C9.15948 2.41379 2.41379 9.02457 2.41379 17.1983C2.41379 25.372 9.15948 31.9828 17.5 31.9828C25.819 31.9828 32.5862 25.372 32.5862 17.1983ZM19.0086 20.3241H15.6466V19.4159C15.6466 18.6134 15.819 17.9375 16.1638 17.3461C16.5086 16.7547 17.1552 16.1422 18.0603 15.4664C18.944 14.8539 19.5259 14.347 19.806 13.9668C20.1078 13.5866 20.2371 13.1431 20.2371 12.6573C20.2371 12.1293 20.0431 11.728 19.6336 11.4323C19.2241 11.1578 18.6638 11.031 17.931 11.031C16.681 11.031 15.2371 11.4323 13.6207 12.2349L12.2414 9.53147C14.1164 8.49655 16.1207 7.96853 18.2112 7.96853C19.9569 7.96853 21.3362 8.39095 22.3491 9.19353C23.3836 10.0172 23.8793 11.1155 23.8793 12.4672C23.8793 13.3754 23.6853 14.1569 23.2543 14.8116C22.8448 15.4875 22.0259 16.2267 20.8621 17.0504C20.0431 17.6418 19.5474 18.0853 19.3319 18.381C19.1164 18.6978 19.0086 19.0991 19.0086 19.5849V20.3241ZM15.8405 26.1112C15.4526 25.7522 15.2586 25.2241 15.2586 24.5694C15.2586 23.8724 15.431 23.3444 15.819 22.9853C16.2069 22.6263 16.7457 22.4573 17.4784 22.4573C18.1681 22.4573 18.7069 22.6474 19.0948 23.0065C19.4828 23.3655 19.6767 23.8935 19.6767 24.5694C19.6767 25.203 19.4828 25.731 19.0948 26.0901C18.7069 26.4703 18.1681 26.6603 17.4784 26.6603C16.7672 26.6603 16.2285 26.4703 15.8405 26.1112Z" fill="#1B122E"/>
</svg>
