<svg width="35" height="35" viewBox="0 0 35 35" fill="none" xmlns="http://www.w3.org/2000/svg">
<path d="M35 20.5882H30.5118C30.1618 22.0294 29.6059 23.3676 28.8441 24.5618L32.0147 27.7324L27.6912 32.0559L24.5206 28.8853C23.3265 29.6265 21.9882 30.1824 20.5882 30.5118V35H14.4118V30.5118C13.0118 30.1824 11.6735 29.6265 10.4794 28.8853L7.30882 32.0559L2.94412 27.6912L6.11471 24.5206C5.37353 23.3265 4.81765 21.9882 4.48824 20.5882H0V14.4735H4.46765C4.79706 13.0324 5.37353 11.6941 6.11471 10.4794L2.94412 7.30882L7.26765 2.98529L10.4382 6.15588C11.6324 5.39412 12.9912 4.83823 14.4118 4.48823V0H20.5882V4.48823C21.9882 4.81765 23.3265 5.37353 24.5206 6.11471L27.6912 2.94412L32.0559 7.30882L28.8853 10.4794C29.6265 11.6941 30.2029 13.0324 30.5324 14.4735H35V20.5882ZM17.5 23.6765C20.9176 23.6765 23.6765 20.9176 23.6765 17.5C23.6765 14.0824 20.9176 11.3235 17.5 11.3235C14.0824 11.3235 11.3235 14.0824 11.3235 17.5C11.3235 20.9176 14.0824 23.6765 17.5 23.6765Z" fill="#1B122E"/>
</svg>
