<svg width="157" height="493" viewBox="0 0 157 493" fill="none" xmlns="http://www.w3.org/2000/svg">
<path fill-rule="evenodd" clip-rule="evenodd" d="M71.4085 179.531C99.5925 177.903 121.114 153.671 119.477 125.401L118.933 110.469C117.292 82.1997 93.1203 60.6055 64.9329 62.2353C36.7489 63.8626 15.2285 88.0944 16.8661 116.365L17.4122 131.294C19.0498 159.566 43.2259 181.16 71.4085 179.531Z" fill="#FBC399"/>
<path fill-rule="evenodd" clip-rule="evenodd" d="M56.8453 472.676C58.3154 489.479 88.8789 483.331 105.634 481.865C122.388 480.399 144.879 489.479 143.409 472.676L108.178 161.551C106.708 144.746 91.9345 132.312 75.1799 133.778C58.4252 135.244 46.0354 150.054 47.5057 166.859L56.8453 472.676Z" fill="#FBC399"/>
<path fill-rule="evenodd" clip-rule="evenodd" d="M24.6308 121.659C25.9971 139.117 35.932 153.837 49.9684 162.017C53.9966 164.364 56.5366 168.628 56.7745 173.294L71.1499 471.361C72.9593 488.131 62.7181 498.397 60.9086 481.627L46.3811 180.577C46.2258 177.533 44.4579 174.818 41.7629 173.408C26.6571 165.503 15.8207 150.215 14.3896 131.925L13.5415 117.01C12.1195 98.842 20.3286 82.1649 33.8564 71.99C26.6518 81.6129 22.7697 93.7989 23.7828 106.744L24.6308 121.659Z" fill="#EA9975"/>
<path fill-rule="evenodd" clip-rule="evenodd" d="M30.4212 102.175C31.2335 111.462 37.2365 118.535 43.8461 117.982C50.4652 117.425 55.1858 109.43 54.3895 100.119L49.4933 42.8924L49.4894 42.8484C48.6771 33.5613 42.6735 26.4855 36.0647 27.041C29.446 27.5953 24.7248 35.5903 25.5208 44.9008L30.417 102.127L30.4212 102.175Z" fill="#FBC399"/>
<path d="M40.4946 28.5244L41.5098 40.1196C41.6274 41.3906 41.3826 42.6687 40.8037 43.8054C38.8526 47.6373 33.871 48.6697 30.5719 45.926L29.9552 45.4129" stroke="#EA9975" stroke-width="1.8" stroke-linecap="round"/>
<path d="M40.4946 28.5244L41.5098 40.1196C41.6274 41.3906 41.3826 42.6687 40.8037 43.8054C38.8526 47.6373 33.871 48.6697 30.5719 45.926L29.9552 45.4129" stroke="#EA9975" stroke-width="1.8" stroke-linecap="round"/>
<path fill-rule="evenodd" clip-rule="evenodd" d="M30.6626 45.0587C30.6626 45.0587 31.6841 116.615 30.8163 106.693L30.8118 106.641L25.5736 45.504C24.7218 35.5567 29.3981 27.0479 36.017 26.4952C36.8814 26.4232 37.7363 26.4954 38.5708 26.6884C33.3399 28.911 29.9246 36.4397 30.6626 45.0587Z" fill="#EA9975"/>
<mask id="mask0_19_4367" style="mask-type:luminance" maskUnits="userSpaceOnUse" x="44" y="3" width="33" height="112">
<path fill-rule="evenodd" clip-rule="evenodd" d="M44.4337 6.55518L68.5076 3.99512L76.3072 112.355L52.2333 114.915L44.4337 6.55518Z" fill="white"/>
</mask>
<g mask="url(#mask0_19_4367)">
<path fill-rule="evenodd" clip-rule="evenodd" d="M50.8364 95.5081C51.6062 106.203 57.5759 114.318 64.1866 113.644C70.8053 112.966 75.56 103.725 74.8054 93.0074L69.9082 23.4538L69.9048 23.4061C69.1347 12.7077 63.1647 4.59288 56.5558 5.26603C49.9353 5.94382 45.182 15.1843 45.9364 25.9034L50.8327 95.457L50.8364 95.5081Z" fill="#FBC399"/>
<path d="M64.9554 10.9665L67.0052 25.0413C67.2389 26.5838 66.9592 28.1423 66.1985 29.5353C63.6345 34.2312 56.6269 35.5836 51.8057 32.313L50.9045 31.7013" stroke="#EA9975" stroke-width="1.8" stroke-linecap="round"/>
</g>
<mask id="mask1_19_4367" style="mask-type:luminance" maskUnits="userSpaceOnUse" x="44" y="5" width="22" height="97">
<path fill-rule="evenodd" clip-rule="evenodd" d="M44.468 7.03345L58.8446 5.50462L65.6116 99.519L51.235 101.048L44.468 7.03345Z" fill="white"/>
</mask>
<g mask="url(#mask1_19_4367)">
<path fill-rule="evenodd" clip-rule="evenodd" d="M50.618 26.7726C50.618 26.7726 51.966 111.203 51.1612 100.022L51.1574 99.969L46.034 27.26C45.2446 16.0548 49.9699 6.42138 56.5902 5.7443C57.3614 5.66585 58.1241 5.72396 58.8721 5.88626C53.4973 8.28491 49.9235 16.9153 50.618 26.7726Z" fill="#EA9975"/>
</g>
<path fill-rule="evenodd" clip-rule="evenodd" d="M68.8461 29.3091L68.8471 29.3578L70.4 95.1153C70.6425 105.33 76.2209 113.468 82.8615 113.298C89.4916 113.125 94.6731 104.73 94.4497 94.5424L94.4485 94.49L92.8955 28.7362C92.6536 18.5218 87.0745 10.3801 80.4343 10.5537C73.8039 10.7267 68.6226 19.1182 68.8461 29.3091Z" fill="#FBC399"/>
<path d="M89.2127 17.8805L91.1361 29.1395C91.3565 30.3738 91.0263 31.6004 90.1837 32.6765C87.3436 36.3042 79.8051 37.1003 74.7004 34.3117L73.7462 33.7902" stroke="#EA9975" stroke-width="1.8" stroke-linecap="round"/>
<path fill-rule="evenodd" clip-rule="evenodd" d="M73.0054 31.3682L73.0074 31.42C73.0074 31.42 71.8951 112.411 71.4545 101.559L68.6264 31.6942L68.6243 31.6424C68.2032 20.8143 73.2212 11.6876 79.8475 11.2434C80.6096 11.1918 81.3571 11.2713 82.0892 11.4439C76.5582 13.476 72.6312 21.7453 73.0054 31.3682Z" fill="#EA9975"/>
<mask id="mask2_19_4367" style="mask-type:luminance" maskUnits="userSpaceOnUse" x="92" y="25" width="27" height="94">
<path fill-rule="evenodd" clip-rule="evenodd" d="M92.8519 26.7559L116.446 25.9951L118.852 117.282L95.2579 118.043L92.8519 26.7559Z" fill="white"/>
</mask>
<g mask="url(#mask2_19_4367)">
<path fill-rule="evenodd" clip-rule="evenodd" d="M93.285 43.1889L93.2862 43.2321L94.9342 101.65C95.1912 110.725 100.656 117.894 107.14 117.66C113.614 117.427 118.658 109.907 118.419 100.853L118.418 100.81L116.77 42.3883C116.513 33.313 111.048 26.1475 104.564 26.3783C98.0894 26.6116 93.0464 34.1347 93.285 43.1889Z" fill="#FBC399"/>
<path d="M113.043 32.7652L112.896 40.8887C112.887 41.7813 112.462 42.5534 111.671 43.1151C109.002 45.0086 103.176 43.9774 99.7048 40.997L99.0561 40.4398" stroke="#EA9975" stroke-width="1.8" stroke-linecap="round"/>
</g>
<path fill-rule="evenodd" clip-rule="evenodd" d="M97.6084 44.7232L97.6096 44.7676C97.6096 44.7676 95.2818 114.162 95.0185 104.85L93.3303 44.9056L93.3291 44.8612C93.0843 35.5704 98.1221 27.8551 104.597 27.6212C105.341 27.5939 106.07 27.6786 106.782 27.846C101.352 29.4654 97.3907 36.4632 97.6084 44.7232Z" fill="#EA9975"/>
<path d="M68.4888 170.664L67.7643 178.613" stroke="#EA9975" stroke-width="1.8" stroke-linecap="round"/>
<path d="M98.7349 166.482L100.503 174.266" stroke="#EA9975" stroke-width="1.8" stroke-linecap="round"/>
<path d="M96.6205 242.647L98.3886 250.431" stroke="#EA9975" stroke-width="1.8" stroke-linecap="round"/>
<path d="M94.8798 314.592L96.6482 322.376" stroke="#EA9975" stroke-width="1.8" stroke-linecap="round"/>
<path d="M102.014 269.576L104.977 276.987" stroke="#EA9975" stroke-width="1.8" stroke-linecap="round"/>
<path d="M111.558 254.938L113.326 262.722" stroke="#EA9975" stroke-width="1.8" stroke-linecap="round"/>
<path d="M88.354 217.505L87.3506 225.424" stroke="#EA9975" stroke-width="1.8" stroke-linecap="round"/>
<path d="M85.6832 258.789L84.68 266.707" stroke="#EA9975" stroke-width="1.8" stroke-linecap="round"/>
<path d="M80.3759 303.015L79.3724 310.933" stroke="#EA9975" stroke-width="1.8" stroke-linecap="round"/>
<path d="M92.5108 285.917L94.0046 293.758" stroke="#EA9975" stroke-width="1.8" stroke-linecap="round"/>
<path d="M67.6872 201.524L63.8324 208.506" stroke="#EA9975" stroke-width="1.8" stroke-linecap="round"/>
<path d="M56.1843 191.267L52.3294 198.249" stroke="#EA9975" stroke-width="1.8" stroke-linecap="round"/>
<path d="M73.3527 239.466L70.9479 247.074" stroke="#EA9975" stroke-width="1.8" stroke-linecap="round"/>
<path d="M70.1481 264.932L67.0907 272.301" stroke="#EA9975" stroke-width="1.8" stroke-linecap="round"/>
<path d="M72.7817 219.177L68.9265 226.159" stroke="#EA9975" stroke-width="1.8" stroke-linecap="round"/>
<path d="M74.8425 285.23L70.9876 292.212" stroke="#EA9975" stroke-width="1.8" stroke-linecap="round"/>
<path d="M58.7727 291.445L54.9178 298.427" stroke="#EA9975" stroke-width="1.8" stroke-linecap="round"/>
<path d="M56.9013 221.701L50.6306 226.614" stroke="#EA9975" stroke-width="1.8" stroke-linecap="round"/>
<path d="M99.0136 201.848L103.354 208.541" stroke="#EA9975" stroke-width="1.8" stroke-linecap="round"/>
<path d="M103.321 227.808L107.662 234.501" stroke="#EA9975" stroke-width="1.8" stroke-linecap="round"/>
<path d="M111.559 288.686L115.899 295.38" stroke="#EA9975" stroke-width="1.8" stroke-linecap="round"/>
<path d="M111.915 308.086L116.834 314.364" stroke="#EA9975" stroke-width="1.8" stroke-linecap="round"/>
<path d="M112.796 322.688L114.565 330.471" stroke="#EA9975" stroke-width="1.8" stroke-linecap="round"/>
<path d="M74.4828 391.311L76.2512 399.094" stroke="#EA9975" stroke-width="1.8" stroke-linecap="round"/>
<path d="M118.691 383.474L120.459 391.257" stroke="#EA9975" stroke-width="1.8" stroke-linecap="round"/>
<path d="M118.949 455.243L120.718 463.027" stroke="#EA9975" stroke-width="1.8" stroke-linecap="round"/>
<path d="M124.085 410.402L127.047 417.813" stroke="#EA9975" stroke-width="1.8" stroke-linecap="round"/>
<path d="M133.628 395.764L135.397 403.548" stroke="#EA9975" stroke-width="1.8" stroke-linecap="round"/>
<path d="M104.243 340.511L106.784 348.077" stroke="#EA9975" stroke-width="1.8" stroke-linecap="round"/>
<path d="M107.754 399.615L106.75 407.533" stroke="#EA9975" stroke-width="1.8" stroke-linecap="round"/>
<path d="M99.7096 447.996L98.7062 455.914" stroke="#EA9975" stroke-width="1.8" stroke-linecap="round"/>
<path d="M114.581 426.743L116.075 434.584" stroke="#EA9975" stroke-width="1.8" stroke-linecap="round"/>
<path d="M88.4176 341.893L87.2429 349.788" stroke="#EA9975" stroke-width="1.8" stroke-linecap="round"/>
<path d="M77.7566 326.4L73.9017 333.382" stroke="#EA9975" stroke-width="1.8" stroke-linecap="round"/>
<path d="M95.4232 380.292L93.0183 387.901" stroke="#EA9975" stroke-width="1.8" stroke-linecap="round"/>
<path d="M92.2185 405.758L89.1611 413.127" stroke="#EA9975" stroke-width="1.8" stroke-linecap="round"/>
<path d="M108.134 362.164L104.279 369.145" stroke="#EA9975" stroke-width="1.8" stroke-linecap="round"/>
<path d="M96.9129 426.057L93.058 433.038" stroke="#EA9975" stroke-width="1.8" stroke-linecap="round"/>
<path d="M81.6246 458.035L80.5278 465.934" stroke="#EA9975" stroke-width="1.8" stroke-linecap="round"/>
<path d="M80.8431 432.271L76.9882 439.253" stroke="#EA9975" stroke-width="1.8" stroke-linecap="round"/>
<path d="M78.9717 362.527L72.701 367.44" stroke="#EA9975" stroke-width="1.8" stroke-linecap="round"/>
<path d="M121.084 342.674L125.424 349.367" stroke="#EA9975" stroke-width="1.8" stroke-linecap="round"/>
<path d="M125.392 368.634L129.732 375.327" stroke="#EA9975" stroke-width="1.8" stroke-linecap="round"/>
<path d="M130.678 435.397L135.018 442.091" stroke="#EA9975" stroke-width="1.8" stroke-linecap="round"/>
<path d="M65.1948 122.799C65.1582 122.627 65.183 122.475 65.2693 122.342C65.3556 122.209 65.4848 122.124 65.6569 122.088L80.916 118.844C81.0882 118.808 81.2407 118.833 81.3735 118.919C81.5064 119.005 81.5911 119.134 81.6277 119.306L83.0248 125.88C83.3009 127.179 83.337 128.349 83.133 129.39C82.948 130.443 82.513 131.321 81.8279 132.023C81.1462 132.74 80.1949 133.229 78.9742 133.488C77.7691 133.744 76.7171 133.682 75.8182 133.3C74.9225 132.934 74.1838 132.306 73.6019 131.416C73.0234 130.541 72.5961 129.454 72.32 128.155L71.7262 125.361L66.585 126.454C66.4129 126.491 66.2587 126.458 66.1226 126.356C65.9897 126.27 65.905 126.141 65.8684 125.969L65.1948 122.799ZM74.9508 124.602L75.5347 127.349C75.6777 128.022 75.963 128.517 76.3904 128.836C76.8212 129.169 77.3888 129.261 78.093 129.112C78.6877 128.985 79.152 128.707 79.4857 128.276C79.8194 127.845 79.9031 127.238 79.7368 126.456L79.153 123.709L74.9508 124.602ZM67.9989 135.992C67.9723 135.866 67.9943 135.739 68.0649 135.609C68.1545 135.492 68.2619 135.42 68.3871 135.394C68.4653 135.377 68.5374 135.37 68.6033 135.372L84.8473 137.686C85.0294 137.696 85.198 137.758 85.3532 137.872C85.5273 137.999 85.6426 138.195 85.6992 138.461L86.4377 141.936C86.4942 142.202 86.4671 142.42 86.3561 142.591C86.2642 142.774 86.1371 142.907 85.975 142.991L72.0713 151.688C72.0154 151.732 71.9483 151.763 71.87 151.78C71.7448 151.806 71.6158 151.776 71.4829 151.69C71.3691 151.616 71.2972 151.509 71.2672 151.368L70.6535 148.48C70.6036 148.246 70.6201 148.054 70.703 147.906C70.805 147.769 70.8995 147.676 70.9868 147.624L73.1867 146.2L71.8544 139.932L69.2703 139.549C69.1697 139.538 69.0452 139.49 68.8967 139.407C68.7639 139.321 68.6692 139.145 68.6126 138.879L67.9989 135.992ZM75.4395 140.176L76.3676 144.542L82.0961 141.018L75.4395 140.176ZM71.8951 154.322C71.8585 154.15 71.8833 153.997 71.9696 153.864C72.0558 153.731 72.1851 153.647 72.3572 153.61L87.6163 150.367C87.7885 150.33 87.941 150.355 88.0738 150.441C88.2066 150.527 88.2914 150.657 88.3279 150.829L89.7251 157.402C90.0012 158.701 90.0373 159.871 89.8333 160.912C89.6483 161.966 89.2132 162.843 88.5282 163.545C87.8464 164.262 86.8952 164.751 85.6745 165.01C84.4694 165.267 83.4174 165.204 82.5184 164.822C81.6228 164.457 80.8841 163.829 80.3022 162.938C79.7237 162.063 79.2964 160.976 79.0203 159.677L78.4265 156.884L73.2853 157.977C73.1132 158.013 72.959 157.98 72.8228 157.879C72.69 157.792 72.6053 157.663 72.5687 157.491L71.8951 154.322ZM81.6511 156.125L82.2349 158.871C82.378 159.544 82.6632 160.04 83.0907 160.358C83.5215 160.692 84.089 160.784 84.7933 160.634C85.388 160.508 85.8522 160.229 86.186 159.798C86.5197 159.367 86.6034 158.761 86.4371 157.978L85.8532 155.231L81.6511 156.125ZM75.2671 170.186C75.2305 170.014 75.2554 169.861 75.3416 169.729C75.4279 169.596 75.5571 169.511 75.7293 169.474L90.9884 166.231C91.1605 166.194 91.313 166.219 91.4459 166.305C91.5787 166.392 91.6634 166.521 91.7 166.693L94.0303 177.656C94.0669 177.828 94.042 177.981 93.9558 178.114C93.8695 178.247 93.7403 178.331 93.5681 178.368L91.3614 178.837C91.1893 178.873 91.0368 178.849 90.904 178.762C90.7711 178.676 90.6864 178.547 90.6498 178.375L89.058 170.886L85.8888 171.56L87.3708 178.532C87.4074 178.704 87.3748 178.858 87.2728 178.994C87.1866 179.127 87.0574 179.212 86.8852 179.249L84.8428 179.683C84.6863 179.716 84.5338 179.691 84.3854 179.608C84.2525 179.522 84.1678 179.393 84.1312 179.22L82.6492 172.248L79.3861 172.942L81.0178 180.618C81.0544 180.791 81.0296 180.943 80.9433 181.076C80.857 181.209 80.7278 181.293 80.5557 181.33L78.349 181.799C78.1768 181.836 78.0243 181.811 77.8915 181.725C77.7586 181.638 77.6739 181.509 77.6373 181.337L75.2671 170.186ZM78.454 185.179C78.4174 185.007 78.4423 184.855 78.5285 184.722C78.6148 184.589 78.744 184.504 78.9162 184.468L94.1753 181.224C94.3474 181.188 94.4999 181.212 94.6328 181.299C94.7656 181.385 94.8503 181.514 94.8869 181.686L96.2442 188.072C96.6733 190.091 96.5414 191.779 95.8486 193.137C95.1747 194.507 93.9848 195.373 92.2789 195.736C91.1677 195.972 90.1705 195.897 89.2872 195.513C88.4072 195.144 87.6785 194.562 87.1009 193.769L82.0146 198.236C81.9306 198.303 81.8495 198.345 81.7713 198.362C81.6461 198.388 81.5171 198.358 81.3842 198.272C81.2704 198.198 81.1985 198.091 81.1685 197.95L80.5099 194.851C80.4467 194.554 80.4705 194.32 80.5814 194.149C80.708 193.975 80.8272 193.843 80.9391 193.754L85.5349 189.98L85.0209 187.562L79.8094 188.67C79.6372 188.706 79.4847 188.681 79.3519 188.595C79.219 188.509 79.1343 188.38 79.0977 188.208L78.454 185.179ZM88.331 186.858L88.9098 189.582C89.0662 190.317 89.3626 190.827 89.799 191.11C90.2388 191.409 90.7717 191.492 91.3978 191.359C92.0081 191.229 92.4629 190.945 92.7619 190.505C93.0644 190.081 93.1341 189.485 92.9711 188.718L92.3923 185.995L88.331 186.858Z" fill="#EA9975"/>
</svg>
