<svg width="80" height="80" viewBox="0 0 80 80" fill="none" xmlns="http://www.w3.org/2000/svg">
<g opacity="0.747442">
<rect width="80" height="80" rx="40" fill="#232586" style="mix-blend-mode:multiply"/>
</g>
<mask id="mask0_15_344" style="mask-type:luminance" maskUnits="userSpaceOnUse" x="0" y="0" width="80" height="80">
<rect width="80" height="80" rx="40" fill="white"/>
<rect width="80" height="80" rx="40" stroke="white"/>
</mask>
<g mask="url(#mask0_15_344)">
<path fill-rule="evenodd" clip-rule="evenodd" d="M29.5594 20.7661C29.3815 19.9135 29.9341 19.0751 30.7923 18.8979C31.6515 18.7227 32.4944 19.2702 32.6728 20.1233L36.3398 37.6553C36.4585 38.2221 37.0164 38.587 37.588 38.4685C37.7394 38.4376 37.8745 38.3741 37.9917 38.2892C38.3342 38.1518 38.5965 37.8424 38.6467 37.4523L40.9383 19.4789C40.9916 19.0604 41.2053 18.6876 41.541 18.4291C41.8772 18.1706 42.2936 18.0568 42.7148 18.1108C43.136 18.1638 43.5112 18.3767 43.7714 18.7102C44.0316 19.0431 44.1456 19.4574 44.0923 19.8758L41.8276 37.6406C41.7753 38.0496 41.9701 38.4302 42.2942 38.6436C42.4926 38.8885 42.7866 39.0411 43.1059 39.0411C43.688 39.0411 44.1614 38.5708 44.1614 37.9924V36.6815C44.1614 35.6696 44.9906 34.8463 46.0087 34.8463C47.0273 34.8463 47.8559 35.6696 47.8559 36.6815V40.0898C47.8559 40.6681 48.3298 41.1385 48.9114 41.1385C49.4936 41.1385 49.967 40.6681 49.967 40.0898V38.1786C50.1417 38.1015 50.5887 37.9924 50.8531 37.9924C51.6063 37.9924 52.2665 38.6048 52.2665 39.3033C52.2665 44.1723 51.8659 52.6929 50.7919 54.827C49.2191 57.9526 47.4595 60.5398 41.8302 60.5398C36.6728 60.5398 32.202 58.0994 29.2417 53.6677C27.3512 50.8378 26.4925 45.0228 29.4502 42.3523C29.7505 42.0812 30.3669 41.7126 30.4719 41.6502L31.2071 46.695C31.2837 47.2172 31.7349 47.5937 32.2505 47.5937C32.3007 47.5937 32.3519 47.59 32.4031 47.5832C32.9799 47.4998 33.38 46.9681 33.2966 46.395L29.5705 20.829L29.5594 20.7661ZM50.8188 35.8945C50.6183 35.8945 50.2625 35.9344 49.843 36.0408C49.5316 34.1705 47.8743 32.7484 45.9369 32.7484C45.4587 32.7484 44.989 32.8444 44.5462 33.0106L46.1865 20.1395C46.3111 19.1653 46.0456 18.201 45.4397 17.425C44.8343 16.6484 43.9609 16.1535 42.9803 16.0302C41.9991 15.9054 41.0291 16.1697 40.2474 16.7717C39.4663 17.3731 38.9676 18.2414 38.8435 19.2156L37.2512 31.7045L34.7395 19.6965C34.3247 17.7118 32.3614 16.4319 30.3632 16.8445C28.3767 17.2546 27.092 19.1852 27.4858 21.1589L30.1289 39.2965C29.2565 39.7752 28.2347 40.4967 28.1798 40.536C25.0474 42.775 24.0494 49.6486 27.509 54.826C30.873 59.8628 35.9635 62.6366 41.8424 62.6366C48.6592 62.6366 50.9376 59.2415 52.6872 55.764C54.3623 52.436 54.3813 39.8376 54.3813 39.3033C54.3813 37.456 52.75 35.895 50.8188 35.8945Z" fill="white"/>
</g>
</svg>
