<svg width="164" height="452" viewBox="0 0 164 452" fill="none" xmlns="http://www.w3.org/2000/svg">
<g clip-path="url(#clip0_19_4365)">
<mask id="mask0_19_4365" style="mask-type:luminance" maskUnits="userSpaceOnUse" x="3" y="35" width="51" height="91">
<path fill-rule="evenodd" clip-rule="evenodd" d="M3.31158 40.4982L43.1653 35.6047L53.5652 120.305L13.7115 125.198L3.31158 40.4982Z" fill="white"/>
</mask>
<g mask="url(#mask0_19_4365)">
<path fill-rule="evenodd" clip-rule="evenodd" d="M25.0958 117.215L25.6205 117.828C31.6438 123.811 41.3731 123.774 47.3492 117.745C53.3257 111.719 53.2842 101.983 47.2629 96.0022L31.9176 80.7647L39.5616 58.2823C42.2959 50.2452 37.9978 41.5093 29.9641 38.7727C21.9295 36.0366 13.2017 40.334 10.4703 48.3723L10.4703 48.3726C3.33824 72.3142 8.84711 98.2439 25.0958 117.215Z" fill="#EA9975"/>
</g>
<path fill-rule="evenodd" clip-rule="evenodd" d="M72.853 140.198C101.218 137.563 122.075 112.417 119.436 84.0277L118.365 69.0222C115.723 40.6336 90.5925 19.7601 62.2238 22.3982C33.8585 25.0338 13.0029 50.1793 15.642 78.5686L16.7147 93.5718C19.3541 121.963 44.4888 142.836 72.853 140.198Z" fill="#FBC399"/>
<path fill-rule="evenodd" clip-rule="evenodd" d="M48.3052 128.294L67.8172 418.383C69.8869 435.239 101.087 445.281 117.932 443.213C134.777 441.145 154.837 424.809 152.767 407.953L109.305 120.804C107.235 103.946 91.9023 91.9578 75.0573 94.0261C58.2123 96.0944 46.2352 111.436 48.3052 128.294Z" fill="#FBC399"/>
<path fill-rule="evenodd" clip-rule="evenodd" d="M25.8258 68.0795L26.8984 83.0824C28.531 100.638 38.7691 115.309 53.0499 123.332C57.1487 125.634 59.7734 129.889 60.0814 134.583L78.001 407.894C80.0707 424.75 119.354 433.797 136.199 431.729C140.815 431.162 145.046 429.572 148.742 427.254C144.06 435.219 127.806 442.001 117.932 443.213C101.087 445.281 69.8869 435.239 67.8172 418.383L49.7009 142.072C49.5 139.01 47.6764 136.303 44.9367 134.924C29.581 127.193 18.4253 111.964 16.7146 93.5718L15.6419 78.5686C13.943 60.2995 21.983 43.3858 35.4835 32.9383C28.3547 42.7345 24.6152 55.0618 25.8258 68.0795Z" fill="#EA9975"/>
<path fill-rule="evenodd" clip-rule="evenodd" d="M29.4113 68.6615C30.227 75.3045 36.2616 80.0382 42.9068 79.2406C49.5616 78.4396 54.3086 72.3936 53.5089 65.7325L48.5927 24.7925L48.5889 24.7611C47.7732 18.1178 41.738 13.382 35.0933 14.1815C28.4391 14.9802 23.6914 21.0266 24.491 27.6874L29.4071 68.6274L29.4113 68.6615Z" fill="#FBC399"/>
<path fill-rule="evenodd" clip-rule="evenodd" d="M29.6073 27.0592C29.6073 27.0592 30.2269 75.3045 29.4112 68.6615L29.407 68.6271L24.4908 27.6874C23.6915 21.0263 28.4393 14.9802 35.0935 14.1814C35.9629 14.0771 36.8212 14.0709 37.6588 14.1474C32.3896 15.9847 28.9147 21.2873 29.6073 27.0592Z" fill="#EA9975"/>
<path d="M45.597 102.389C45.4216 102.404 45.2733 102.361 45.152 102.259C45.0306 102.158 44.9623 102.019 44.9469 101.844L43.5873 86.303C43.572 86.1277 43.6152 85.9794 43.717 85.858C43.8188 85.7367 43.9574 85.6683 44.1327 85.653L50.6359 85.0841C52.692 84.9042 54.3517 85.2408 55.6149 86.0939C56.8926 86.9298 57.6074 88.2164 57.7594 89.9537C57.8584 91.0854 57.6632 92.0662 57.1736 92.896C56.7 93.7244 56.0344 94.3769 55.1766 94.8535L58.9906 100.446C59.0468 100.538 59.0784 100.623 59.0853 100.703C59.0965 100.831 59.0512 100.955 58.9494 101.076C58.8621 101.18 58.7467 101.239 58.6033 101.251L55.4473 101.527C55.1445 101.554 54.9151 101.502 54.7591 101.371C54.6017 101.224 54.4855 101.089 54.4106 100.968L51.2248 95.9461L48.7622 96.1615L49.2266 101.469C49.2419 101.645 49.1987 101.793 49.0969 101.914C48.9951 102.036 48.8565 102.104 48.6812 102.119L45.597 102.389ZM48.4673 92.7904L51.2407 92.5477C51.9898 92.4822 52.5317 92.2501 52.8662 91.8514C53.2167 91.4514 53.364 90.9325 53.3082 90.295C53.2538 89.6733 53.0266 89.1873 52.6265 88.8368C52.2424 88.485 51.6598 88.3432 50.8788 88.4115L48.1054 88.6542L48.4673 92.7904ZM68.3186 100.642C66.8522 100.77 65.5562 100.643 64.4305 100.26C63.3048 99.8762 62.3972 99.2328 61.7079 98.3295C61.0171 97.4102 60.5764 96.2281 60.3858 94.7832C60.3099 94.0992 60.2419 93.4145 60.182 92.7291C60.122 92.0438 60.0693 91.3497 60.0239 90.647C59.9622 89.2069 60.1916 87.9742 60.7122 86.9489C61.2474 85.9063 62.0353 85.0906 63.0759 84.5016C64.1165 83.9127 65.3621 83.5548 66.8125 83.4279C68.2471 83.3024 69.5279 83.4392 70.655 83.8385C71.798 84.2364 72.7235 84.9023 73.4316 85.8361C74.1383 86.754 74.5783 87.9282 74.7516 89.3585C74.8449 90.057 74.9215 90.749 74.9814 91.4344C75.0414 92.1197 75.0854 92.8065 75.1135 93.4947C75.1767 94.9507 74.9479 96.1914 74.4273 97.2167C73.9053 98.226 73.1233 99.0172 72.0812 99.5902C71.0392 100.163 69.785 100.514 68.3186 100.642ZM68.0174 97.1993C68.8622 97.1254 69.5252 96.8104 70.0066 96.2543C70.5039 95.6968 70.7197 94.8588 70.654 93.7403C70.6245 93.0362 70.5825 92.3733 70.5282 91.7517C70.4738 91.1301 70.4014 90.4859 70.3109 89.8193C70.2135 89.0729 70.017 88.4798 69.7216 88.0399C69.4407 87.5826 69.0753 87.2612 68.6254 87.0757C68.1755 86.8902 67.6716 86.8219 67.1138 86.8707C66.5718 86.9181 66.0954 87.0722 65.6846 87.333C65.2738 87.5938 64.9618 87.9745 64.7486 88.475C64.534 88.9595 64.4435 89.5777 64.4772 90.3297C64.5198 91.0005 64.5683 91.6467 64.6227 92.2684C64.6771 92.89 64.7429 93.5508 64.8202 94.2507C64.9657 95.3622 65.3237 96.15 65.8943 96.6141C66.4649 97.0781 67.1726 97.2732 68.0174 97.1993ZM85.3634 99.1509C83.8492 99.2834 82.5286 99.15 81.4015 98.7507C80.2903 98.35 79.3901 97.698 78.7007 96.7946C78.0273 95.8899 77.5967 94.731 77.4088 93.318C77.3357 92.6659 77.2663 91.9652 77.2008 91.2161C77.1353 90.467 77.0805 89.749 77.0365 89.0622C76.9789 87.67 77.2111 86.4691 77.7331 85.4598C78.2538 84.4345 79.0344 83.6274 80.075 83.0385C81.1142 82.4336 82.375 82.0663 83.8574 81.9366C84.9094 81.8446 85.8935 81.895 86.8098 82.0879C87.7247 82.2648 88.5392 82.579 89.2532 83.0305C89.9659 83.4661 90.5369 84.0264 90.9663 84.7116C91.4102 85.3795 91.6791 86.159 91.7732 87.0502C91.8017 87.1922 91.7643 87.316 91.6611 87.4214C91.5738 87.5254 91.4585 87.5836 91.315 87.5962L88.0873 87.8786C87.8801 87.8967 87.7173 87.8708 87.5987 87.8009C87.4788 87.715 87.3685 87.556 87.2679 87.3239C86.9708 86.4986 86.554 85.9569 86.0175 85.6987C85.4955 85.4231 84.8679 85.3174 84.1347 85.3816C83.258 85.4583 82.5863 85.766 82.1195 86.3047C81.6512 86.8275 81.4427 87.6569 81.4939 88.7927C81.5605 90.1039 81.6776 91.4428 81.8453 92.8094C81.9922 93.9369 82.3422 94.7254 82.8955 95.1748C83.4474 95.6084 84.1617 95.7868 85.0383 95.7101C85.7715 95.646 86.3792 95.4322 86.8613 95.0688C87.3435 94.7054 87.6519 94.1002 87.7866 93.2532C87.8295 93.0086 87.9032 92.8415 88.0078 92.7521C88.1269 92.6453 88.2901 92.5828 88.4973 92.5647L91.725 92.2823C91.8684 92.2697 91.9922 92.3071 92.0962 92.3944C92.2161 92.4802 92.2744 92.5956 92.271 92.7404C92.3332 93.6344 92.2043 94.4568 91.8846 95.2075C91.5793 95.9409 91.1143 96.5919 90.4895 97.1605C89.8632 97.7132 89.1157 98.1641 88.2468 98.5131C87.3765 98.8463 86.4154 99.0588 85.3634 99.1509ZM95.8659 97.9911C95.6905 98.0065 95.5422 97.9632 95.4209 97.8614C95.2995 97.7596 95.2312 97.621 95.2159 97.4457L93.8562 81.9051C93.8409 81.7297 93.8841 81.5814 93.9859 81.4601C94.0878 81.3387 94.2263 81.2704 94.4017 81.255L97.4141 80.9915C97.5895 80.9761 97.7378 81.0194 97.8591 81.1212C97.9805 81.223 98.0488 81.3616 98.0642 81.5369L98.5285 86.8446L102.475 81.0065C102.53 80.9053 102.625 80.8006 102.76 80.6924C102.91 80.5669 103.112 80.493 103.367 80.4706L106.81 80.1694C106.954 80.1569 107.078 80.2022 107.184 80.3054C107.288 80.3927 107.345 80.5001 107.356 80.6276C107.366 80.7392 107.343 80.8376 107.286 80.9229L102.203 88.6432L109.066 96.0412C109.135 96.0994 109.176 96.1922 109.187 96.3198C109.198 96.4473 109.153 96.5717 109.051 96.693C108.964 96.797 108.856 96.8546 108.729 96.8658L105.166 97.1774C104.879 97.2025 104.651 97.1583 104.48 97.0447C104.326 96.9298 104.222 96.8425 104.168 96.7829L98.9176 91.2916L99.4238 97.0775C99.4391 97.2529 99.3959 97.4012 99.2941 97.5225C99.1923 97.6439 99.0537 97.7122 98.8784 97.7276L95.8659 97.9911Z" fill="#EA9975"/>
<mask id="mask1_19_4365" style="mask-type:luminance" maskUnits="userSpaceOnUse" x="42" y="5" width="34" height="71">
<path fill-rule="evenodd" clip-rule="evenodd" d="M42.9935 8.552L67.1973 5.58014L75.4614 72.8858L51.2576 75.8577L42.9935 8.552Z" fill="white"/>
</mask>
<g mask="url(#mask1_19_4365)">
<path fill-rule="evenodd" clip-rule="evenodd" d="M49.7775 63.8034C50.5931 70.4464 56.6289 75.1799 63.2753 74.3821C69.9302 73.5811 74.6765 67.5328 73.8762 60.8742L68.6813 17.6663L68.6777 17.637C67.8618 10.9919 61.8259 6.25801 55.181 7.05535C48.5249 7.85649 43.7795 13.9047 44.5798 20.5636L49.7736 63.7716L49.7775 63.8034Z" fill="#FBC399"/>
</g>
<mask id="mask2_19_4365" style="mask-type:luminance" maskUnits="userSpaceOnUse" x="42" y="6" width="23" height="59">
<path fill-rule="evenodd" clip-rule="evenodd" d="M42.9936 8.552L57.4475 6.77729L64.3063 62.6378L49.8524 64.4125L42.9936 8.552Z" fill="white"/>
</mask>
<g mask="url(#mask2_19_4365)">
<path fill-rule="evenodd" clip-rule="evenodd" d="M49.1886 19.9976C49.1886 19.9976 50.5932 70.4462 49.7776 63.8033L49.7737 63.7715L44.5799 20.5634C43.7796 13.9046 48.5251 7.85666 55.1811 7.05523C55.9565 6.96245 56.7234 6.95132 57.4753 7.00405C52.0729 8.76098 48.4843 14.1398 49.1886 19.9976Z" fill="#EA9975"/>
</g>
<path fill-rule="evenodd" clip-rule="evenodd" d="M66.5283 19.4111L66.5321 19.4426L71.9065 62.2948C72.7424 68.9515 78.8106 73.6695 85.4618 72.8367C92.1023 72.0031 96.8122 65.9477 95.9969 59.3071L95.9927 59.273L90.6186 16.4231C89.783 9.76643 83.7142 5.04634 77.0636 5.88118C70.4228 6.71482 65.7126 12.7681 66.5283 19.4111Z" fill="#FBC399"/>
<path fill-rule="evenodd" clip-rule="evenodd" d="M70.9194 18.872L70.9233 18.9034C70.9233 18.9034 72.7425 68.9515 71.9066 62.2948L66.5323 19.4426L66.5284 19.4111C65.7127 12.7681 70.4229 6.71481 77.0634 5.88122C77.8272 5.78531 78.5809 5.77092 79.3227 5.81578C73.8402 7.53632 70.1946 12.9684 70.9194 18.872Z" fill="#EA9975"/>
<path fill-rule="evenodd" clip-rule="evenodd" d="M88.1819 23.118L88.1858 23.1495L93.5599 65.9997C94.3957 72.656 100.464 77.3764 107.115 76.5412C113.756 75.7076 118.466 69.6546 117.65 63.0116L117.646 62.9799L112.272 20.1279C111.436 13.4713 105.368 8.75326 98.7169 9.58601C92.0762 10.4196 87.3662 16.4748 88.1819 23.118Z" fill="#FBC399"/>
<path fill-rule="evenodd" clip-rule="evenodd" d="M92.5719 22.579L92.5758 22.6105C92.5758 22.6105 94.3956 72.656 93.56 65.9996L88.1857 23.1495L88.1818 23.1181C87.3661 16.4748 92.0763 10.4196 98.7168 9.58603C99.4803 9.48986 100.234 9.47573 100.976 9.52268C95.4936 11.2433 91.8468 16.673 92.5719 22.579Z" fill="#EA9975"/>
<path d="M91.4821 139.206L96.6618 145.349" stroke="#EA9975" stroke-width="1.81125" stroke-linecap="round"/>
<path d="M69.5988 131.38L69.1457 139.405" stroke="#EA9975" stroke-width="1.81125" stroke-linecap="round"/>
<path d="M80.6205 151.536L82.6758 159.305" stroke="#EA9975" stroke-width="1.81125" stroke-linecap="round"/>
<path d="M99.9542 126.1L102.01 133.871" stroke="#EA9975" stroke-width="1.81125" stroke-linecap="round"/>
<path d="M100.483 202.818L102.539 210.587" stroke="#EA9975" stroke-width="1.81125" stroke-linecap="round"/>
<path d="M118.977 327.216L121.033 334.986" stroke="#EA9975" stroke-width="1.81125" stroke-linecap="round"/>
<path d="M103.252 275.027L105.307 282.797" stroke="#EA9975" stroke-width="1.81125" stroke-linecap="round"/>
<path d="M106.864 229.724L110.11 237.075" stroke="#EA9975" stroke-width="1.81125" stroke-linecap="round"/>
<path d="M116.998 297.291L120.245 304.642" stroke="#EA9975" stroke-width="1.81125" stroke-linecap="round"/>
<path d="M115.977 214.656L118.032 222.426" stroke="#EA9975" stroke-width="1.81125" stroke-linecap="round"/>
<path d="M128.827 316.724L133.183 323.479" stroke="#EA9975" stroke-width="1.81125" stroke-linecap="round"/>
<path d="M105.307 308.047L106.033 315.987" stroke="#EA9975" stroke-width="1.81125" stroke-linecap="round"/>
<path d="M122.977 280.216L125.033 287.987" stroke="#EA9975" stroke-width="1.81125" stroke-linecap="round"/>
<path d="M91.2686 177.811L90.5334 185.814" stroke="#EA9975" stroke-width="1.81125" stroke-linecap="round"/>
<path d="M77.6786 304.045L76.9434 312.049" stroke="#EA9975" stroke-width="1.81125" stroke-linecap="round"/>
<path d="M90.018 219.447L89.2828 227.451" stroke="#EA9975" stroke-width="1.81125" stroke-linecap="round"/>
<path d="M83.5965 268.416L82.8613 276.419" stroke="#EA9975" stroke-width="1.81125" stroke-linecap="round"/>
<path d="M90.6787 290.045L89.9434 298.049" stroke="#EA9975" stroke-width="1.81125" stroke-linecap="round"/>
<path d="M97.8513 246.504L99.6318 254.341" stroke="#EA9975" stroke-width="1.81125" stroke-linecap="round"/>
<path d="M69.8689 162.461L66.2253 169.623" stroke="#EA9975" stroke-width="1.81125" stroke-linecap="round"/>
<path d="M57.9102 152.548L54.2668 159.71" stroke="#EA9975" stroke-width="1.81125" stroke-linecap="round"/>
<path d="M76.9081 200.44L74.7488 208.181" stroke="#EA9975" stroke-width="1.81125" stroke-linecap="round"/>
<path d="M74.5661 226.179L71.7407 233.702" stroke="#EA9975" stroke-width="1.81125" stroke-linecap="round"/>
<path d="M75.6231 180.044L71.9796 187.207" stroke="#EA9975" stroke-width="1.81125" stroke-linecap="round"/>
<path d="M80.0096 246.438L76.3661 253.6" stroke="#EA9975" stroke-width="1.81125" stroke-linecap="round"/>
<path d="M64.0211 253.261L60.3776 260.423" stroke="#EA9975" stroke-width="1.81125" stroke-linecap="round"/>
<path d="M59.6967 183.147L53.5447 188.312" stroke="#EA9975" stroke-width="1.81125" stroke-linecap="round"/>
<path d="M101.471 161.677L106.082 168.259" stroke="#EA9975" stroke-width="1.81125" stroke-linecap="round"/>
<path d="M106.723 187.648L111.333 194.229" stroke="#EA9975" stroke-width="1.81125" stroke-linecap="round"/>
<path d="M91.3168 324.769L89.3744 332.566" stroke="#EA9975" stroke-width="1.81125" stroke-linecap="round"/>
<path d="M114.387 254.642L118.997 261.224" stroke="#EA9975" stroke-width="1.81125" stroke-linecap="round"/>
</g>
<defs>
<clipPath id="clip0_19_4365">
<rect width="111" height="441" fill="white" transform="translate(0 13.5275) rotate(-7)"/>
</clipPath>
</defs>
</svg>
