<svg width="154" height="486" viewBox="0 0 154 486" fill="none" xmlns="http://www.w3.org/2000/svg">
<path fill-rule="evenodd" clip-rule="evenodd" d="M124.749 315.118L124.267 314.534C118.72 308.806 109.605 308.677 103.91 314.246C98.2143 319.814 98.098 328.97 103.643 334.696L117.776 349.284L110.256 370.299C107.566 377.811 111.453 386.099 118.936 388.808C126.419 391.516 134.664 387.621 137.352 380.107C144.415 357.711 139.668 333.233 124.749 315.118Z" fill="#F2BCA7"/>
<path fill-rule="evenodd" clip-rule="evenodd" d="M80.3752 292.702C53.7593 294.704 33.8184 318.002 35.8377 344.745L36.6008 358.875C38.6232 385.617 61.833 405.67 88.452 403.665C115.068 401.663 135.008 378.365 132.989 351.622L132.223 337.495C130.204 310.75 106.99 290.698 80.3752 292.702Z" fill="#FCD9C3"/>
<mask id="mask0_19_4369" style="mask-type:luminance" maskUnits="userSpaceOnUse" x="6" y="2" width="116" height="338">
<path fill-rule="evenodd" clip-rule="evenodd" d="M121.102 331.512L41.3509 339.895L6.75995 10.7835L86.5114 2.40124L121.102 331.512Z" fill="white"/>
</mask>
<g mask="url(#mask0_19_4369)">
<path fill-rule="evenodd" clip-rule="evenodd" d="M103.183 304.31L89.5351 31.1693C87.8653 15.2824 58.796 5.31415 42.9819 6.97629C27.1677 8.63842 8.11381 23.6647 9.78359 39.5515L45.9159 310.329C47.5859 326.218 61.7587 337.75 77.5729 336.088C93.387 334.425 104.853 320.199 103.183 304.31Z" fill="#FCD9C3"/>
</g>
<mask id="mask1_19_4369" style="mask-type:luminance" maskUnits="userSpaceOnUse" x="12" y="1" width="122" height="360">
<path fill-rule="evenodd" clip-rule="evenodd" d="M133.944 351.522L49.4862 360.399L12.6748 10.1619L97.133 1.28494L133.944 351.522Z" fill="white"/>
</mask>
<g mask="url(#mask1_19_4369)">
<path d="M70.4066 252.547C70.6293 254.132 70.5923 255.478 70.2956 256.586C69.9831 257.697 69.5003 258.572 68.8472 259.213C68.194 259.855 67.4577 260.249 66.6383 260.396C66.5115 260.414 66.3939 260.382 66.2855 260.3C66.159 260.205 66.0858 260.086 66.0657 259.944L65.6449 256.949C65.6137 256.727 65.6299 256.555 65.6935 256.433C65.755 256.295 65.8424 256.17 65.9557 256.057C66.1756 255.897 66.3808 255.69 66.5715 255.437C66.7599 255.169 66.8998 254.842 66.9912 254.457C67.0645 254.059 67.0622 253.583 66.9843 253.028C66.8551 252.11 66.6156 251.44 66.2659 251.021C65.9139 250.586 65.4923 250.403 65.0011 250.472C64.6525 250.521 64.3851 250.687 64.199 250.972C63.9969 251.259 63.8488 251.7 63.7547 252.295C63.6425 252.876 63.557 253.647 63.4983 254.609C63.414 255.849 63.234 256.924 62.9581 257.836C62.6642 258.733 62.2236 259.45 61.6363 259.984C61.0332 260.522 60.2405 260.859 59.2581 260.997C58.2916 261.133 57.3902 260.985 56.554 260.553C55.7155 260.106 55.0134 259.421 54.4475 258.498C53.8817 257.576 53.5041 256.442 53.3148 255.095C53.1612 254.002 53.1691 253.023 53.3385 252.159C53.5056 251.279 53.7868 250.521 54.182 249.884C54.5771 249.246 55.024 248.747 55.5227 248.386C56.0032 248.012 56.4959 247.781 57.0007 247.694C57.1274 247.676 57.2529 247.707 57.3772 247.787C57.4856 247.868 57.5499 247.98 57.5699 248.123L58.0108 251.26C58.0353 251.434 58.0248 251.589 57.9792 251.725C57.9337 251.861 57.8462 251.986 57.717 252.101C57.3818 252.245 57.1164 252.541 56.9208 252.989C56.7071 253.423 56.6459 253.964 56.7372 254.614C56.8352 255.311 57.0387 255.84 57.3479 256.2C57.639 256.547 58.0381 256.685 58.5451 256.614C58.862 256.569 59.1248 256.427 59.3335 256.188C59.54 255.933 59.6959 255.547 59.8011 255.032C59.9042 254.5 59.9895 253.785 60.0572 252.887C60.1239 251.407 60.3009 250.195 60.5881 249.25C60.8595 248.307 61.2911 247.584 61.8828 247.081C62.4587 246.58 63.2299 246.261 64.1964 246.125C65.2738 245.974 66.252 246.151 67.1311 246.658C67.9921 247.151 68.7043 247.907 69.2676 248.927C69.831 249.946 70.2107 251.153 70.4066 252.547ZM68.1082 236.194C68.3198 237.699 68.2557 239.025 67.9159 240.171C67.5739 241.302 66.9699 242.235 66.1039 242.97C65.2356 243.69 64.1009 244.181 62.6996 244.443C62.0522 244.55 61.3562 244.656 60.6115 244.76C59.8668 244.865 59.1527 244.957 58.4692 245.037C57.0818 245.168 55.8705 244.998 54.8353 244.53C53.7841 244.064 52.9373 243.326 52.2947 242.318C51.6362 241.312 51.2035 240.072 50.9964 238.599C50.8494 237.553 50.8483 236.567 50.9929 235.642C51.1217 234.719 51.3929 233.889 51.8064 233.153C52.204 232.418 52.7337 231.819 53.3955 231.354C54.0392 230.876 54.8036 230.566 55.6887 230.426C55.829 230.39 55.9545 230.421 56.0652 230.518C56.1736 230.6 56.2379 230.712 56.2579 230.855L56.7088 234.063C56.7378 234.269 56.7204 234.433 56.6568 234.555C56.5773 234.68 56.4243 234.798 56.1978 234.911C55.3892 235.251 54.87 235.695 54.6402 236.244C54.3924 236.78 54.3197 237.412 54.4221 238.141C54.5446 239.013 54.887 239.667 55.4495 240.105C55.996 240.546 56.8351 240.71 57.9668 240.6C59.2727 240.465 60.6036 240.278 61.9595 240.039C63.0778 239.833 63.8469 239.442 64.2668 238.866C64.6709 238.292 64.8117 237.57 64.6892 236.698C64.5868 235.97 64.3415 235.374 63.9533 234.911C63.5652 234.449 62.9447 234.173 62.0918 234.082C61.8453 234.052 61.6746 233.988 61.5798 233.888C61.4669 233.774 61.396 233.615 61.367 233.409L60.9161 230.2C60.8961 230.058 60.9269 229.932 61.0086 229.824C61.0881 229.699 61.2002 229.635 61.3451 229.631C62.2346 229.522 63.0625 229.608 63.829 229.888C64.5773 230.154 65.2518 230.585 65.8523 231.179C66.437 231.775 66.9264 232.498 67.3205 233.348C67.6987 234.199 67.9613 235.148 68.1082 236.194ZM66.4004 225.766C66.4249 225.941 66.3895 226.091 66.2942 226.217C66.1988 226.344 66.064 226.419 65.8897 226.444L50.4416 228.615C50.2673 228.639 50.1169 228.604 49.9904 228.509C49.8639 228.413 49.7884 228.279 49.7639 228.104L49.3163 224.92C49.2918 224.745 49.3272 224.595 49.4226 224.468C49.5179 224.342 49.6527 224.266 49.827 224.242L65.2752 222.071C65.4494 222.046 65.5998 222.082 65.7263 222.177C65.8528 222.272 65.9283 222.407 65.9528 222.582L66.4004 225.766ZM64.7668 212.418C64.9895 214.003 64.9525 215.349 64.6559 216.457C64.3433 217.567 63.8605 218.443 63.2074 219.084C62.5543 219.725 61.818 220.12 60.9985 220.267C60.8718 220.285 60.7542 220.253 60.6457 220.171C60.5193 220.076 60.446 219.957 60.4259 219.815L60.0051 216.82C59.9739 216.598 59.9901 216.426 60.0538 216.304C60.1152 216.166 60.2026 216.041 60.316 215.928C60.5358 215.768 60.7411 215.561 60.9317 215.308C61.1201 215.039 61.26 214.713 61.3514 214.328C61.4247 213.93 61.4224 213.454 61.3445 212.899C61.2153 211.98 60.9759 211.311 60.6261 210.892C60.2741 210.457 59.8525 210.274 59.3613 210.343C59.0128 210.392 58.7454 210.558 58.5592 210.843C58.3571 211.13 58.2091 211.571 58.1149 212.166C58.0027 212.747 57.9173 213.518 57.8585 214.48C57.7742 215.72 57.5942 216.795 57.3183 217.707C57.0244 218.604 56.5838 219.32 55.9965 219.855C55.3934 220.393 54.6007 220.73 53.6183 220.868C52.6518 221.004 51.7505 220.856 50.9142 220.424C50.0758 219.977 49.3736 219.292 48.8078 218.369C48.2419 217.447 47.8643 216.313 47.6751 214.966C47.5214 213.873 47.5293 212.894 47.6987 212.03C47.8659 211.15 48.147 210.392 48.5422 209.755C48.9374 209.117 49.3843 208.618 49.8829 208.257C50.3634 207.883 50.8561 207.652 51.3609 207.565C51.4877 207.547 51.6132 207.578 51.7374 207.657C51.8459 207.739 51.9101 207.851 51.9301 207.994L52.371 211.131C52.3955 211.305 52.385 211.46 52.3394 211.596C52.2939 211.732 52.2065 211.857 52.0772 211.972C51.742 212.116 51.4766 212.412 51.281 212.86C51.0673 213.294 51.0061 213.835 51.0974 214.485C51.1954 215.182 51.399 215.711 51.7082 216.071C51.9993 216.418 52.3983 216.556 52.9053 216.485C53.2222 216.44 53.485 216.298 53.6937 216.059C53.9002 215.804 54.0561 215.418 54.1614 214.903C54.2644 214.371 54.3497 213.656 54.4174 212.758C54.4841 211.278 54.6611 210.066 54.9484 209.121C55.2198 208.178 55.6513 207.455 56.243 206.952C56.8189 206.45 57.5901 206.132 58.5566 205.996C59.634 205.845 60.6123 206.022 61.4913 206.529C62.3523 207.022 63.0645 207.778 63.6279 208.798C64.1912 209.817 64.5709 211.024 64.7668 212.418ZM62.5553 196.682C62.778 198.267 62.741 199.613 62.4443 200.721C62.1318 201.832 61.649 202.707 60.9958 203.348C60.3427 203.989 59.6064 204.384 58.787 204.531C58.6602 204.549 58.5426 204.517 58.4342 204.435C58.3077 204.34 58.2344 204.221 58.2144 204.079L57.7935 201.084C57.7624 200.862 57.7786 200.69 57.8422 200.568C57.9036 200.43 57.991 200.305 58.1044 200.192C58.3243 200.032 58.5295 199.825 58.7202 199.572C58.9086 199.303 59.0485 198.977 59.1399 198.592C59.2132 198.194 59.2109 197.718 59.1329 197.163C59.0038 196.244 58.7643 195.575 58.4145 195.156C58.0625 194.721 57.641 194.538 57.1498 194.607C56.8012 194.656 56.5338 194.822 56.3476 195.107C56.1456 195.394 55.9975 195.835 55.9034 196.43C55.7912 197.011 55.7057 197.782 55.647 198.744C55.5627 199.984 55.3826 201.059 55.1068 201.971C54.8128 202.868 54.3722 203.584 53.785 204.119C53.1819 204.657 52.3891 204.994 51.4068 205.132C50.4403 205.268 49.5389 205.12 48.7027 204.688C47.8642 204.241 47.1621 203.556 46.5962 202.633C46.0303 201.711 45.6528 200.577 45.4635 199.23C45.3099 198.137 45.3177 197.158 45.4871 196.294C45.6543 195.414 45.9355 194.656 46.3307 194.019C46.7258 193.381 47.1727 192.882 47.6713 192.521C48.1519 192.147 48.6446 191.916 49.1494 191.829C49.2761 191.811 49.4016 191.842 49.5259 191.921C49.6343 192.003 49.6986 192.115 49.7186 192.258L50.1595 195.395C50.184 195.569 50.1735 195.724 50.1279 195.86C50.0823 195.996 49.9949 196.121 49.8657 196.236C49.5305 196.38 49.2651 196.676 49.0695 197.124C48.8558 197.558 48.7946 198.099 48.8859 198.749C48.9839 199.446 49.1874 199.975 49.4966 200.335C49.7877 200.682 50.1868 200.82 50.6938 200.749C51.0107 200.704 51.2735 200.562 51.4822 200.323C51.6887 200.068 51.8446 199.682 51.9498 199.167C52.0528 198.635 52.1382 197.92 52.2059 197.022C52.2726 195.542 52.4496 194.33 52.7368 193.385C53.0082 192.442 53.4398 191.719 54.0315 191.216C54.6074 190.715 55.3786 190.396 56.3451 190.26C57.4225 190.109 58.4007 190.286 59.2798 190.793C60.1408 191.286 60.8529 192.042 61.4163 193.062C61.9797 194.081 62.3593 195.288 62.5553 196.682ZM60.2602 180.352C60.4651 181.81 60.4056 183.111 60.0817 184.255C59.7578 185.399 59.1628 186.339 58.2968 187.075C57.4149 187.813 56.2575 188.315 54.8245 188.581C54.1455 188.692 53.4653 188.796 52.784 188.892C52.1027 188.988 51.4123 189.077 50.713 189.159C49.2781 189.296 48.0351 189.131 46.9839 188.665C45.9147 188.185 45.0589 187.441 44.4163 186.433C43.7737 185.424 43.351 184.199 43.1484 182.757C42.948 181.331 43.0177 180.045 43.3574 178.899C43.695 177.736 44.3115 176.777 45.207 176.021C46.0866 175.267 47.2361 174.767 48.6554 174.519C49.3481 174.389 50.0351 174.276 50.7164 174.18C51.3977 174.085 52.0813 174.005 52.767 173.941C54.2177 173.802 55.4687 173.965 56.5198 174.431C57.5551 174.9 58.3861 175.639 59.0128 176.65C59.6396 177.66 60.0554 178.895 60.2602 180.352ZM56.8379 180.833C56.7199 179.994 56.3706 179.348 55.7901 178.896C55.2074 178.429 54.3592 178.257 53.2457 178.381C52.5441 178.448 51.8843 178.524 51.2664 178.611C50.6485 178.698 50.009 178.804 49.348 178.929C48.6078 179.066 48.0257 179.293 47.6019 179.611C47.1599 179.915 46.8581 180.297 46.6964 180.756C46.5347 181.215 46.4928 181.722 46.5708 182.276C46.6465 182.815 46.8253 183.283 47.1073 183.679C47.3892 184.076 47.7857 184.368 48.2966 184.554C48.7917 184.743 49.4138 184.801 50.163 184.728C50.8307 184.65 51.4735 184.568 52.0914 184.481C52.7093 184.395 53.3658 184.294 54.0607 184.18C55.1631 183.977 55.9311 183.578 56.3646 182.984C56.7981 182.39 56.9559 181.673 56.8379 180.833ZM58.5165 169.669C58.541 169.843 58.5055 169.994 58.4102 170.12C58.3149 170.247 58.1801 170.322 58.0058 170.347L42.5576 172.518C42.3833 172.542 42.2329 172.507 42.1064 172.412C41.9799 172.316 41.9044 172.181 41.88 172.007L40.9714 165.543C40.6842 163.499 40.9335 161.824 41.7194 160.518C42.4872 159.198 43.7346 158.417 45.4616 158.174C46.5866 158.016 47.5762 158.16 48.4305 158.605C49.2826 159.035 49.969 159.665 50.4898 160.497L55.8754 156.395C55.9638 156.335 56.0476 156.299 56.1268 156.287C56.2536 156.27 56.3802 156.308 56.5067 156.404C56.6151 156.485 56.6794 156.598 56.6994 156.74L57.1403 159.877C57.1826 160.178 57.1425 160.41 57.0199 160.573C56.8815 160.738 56.7534 160.861 56.6356 160.942L51.7877 164.386L52.1318 166.834L57.4079 166.093C57.5822 166.068 57.7326 166.103 57.8591 166.199C57.9856 166.294 58.0611 166.429 58.0856 166.603L58.5165 169.669ZM48.7807 167.305L48.3932 164.548C48.2886 163.803 48.0284 163.275 47.6128 162.961C47.1949 162.632 46.6691 162.512 46.0354 162.601C45.4174 162.688 44.9439 162.941 44.6149 163.358C44.2836 163.76 44.1725 164.35 44.2816 165.126L44.6691 167.883L48.7807 167.305ZM55.6564 147.595C55.8791 149.179 55.8421 150.525 55.5454 151.633C55.2329 152.744 54.7501 153.619 54.097 154.26C53.4439 154.902 52.7076 155.296 51.8881 155.443C51.7614 155.461 51.6438 155.429 51.5353 155.348C51.4088 155.252 51.3356 155.133 51.3155 154.991L50.8947 151.996C50.8635 151.774 50.8797 151.602 50.9434 151.48C51.0048 151.342 51.0922 151.217 51.2056 151.104C51.4254 150.944 51.6307 150.737 51.8213 150.484C52.0097 150.216 52.1496 149.889 52.241 149.504C52.3143 149.106 52.312 148.63 52.2341 148.076C52.1049 147.157 51.8655 146.487 51.5157 146.068C51.1637 145.633 50.7421 145.45 50.2509 145.519C49.9024 145.568 49.635 145.734 49.4488 146.019C49.2467 146.306 49.0987 146.747 49.0045 147.342C48.8923 147.923 48.8069 148.695 48.7481 149.656C48.6638 150.896 48.4838 151.971 48.2079 152.883C47.914 153.78 47.4734 154.497 46.8861 155.032C46.283 155.569 45.4903 155.906 44.5079 156.044C43.5414 156.18 42.6401 156.032 41.8038 155.6C40.9654 155.153 40.2632 154.468 39.6973 153.546C39.1315 152.623 38.7539 151.489 38.5647 150.142C38.411 149.049 38.4189 148.07 38.5883 147.206C38.7555 146.326 39.0366 145.568 39.4318 144.931C39.827 144.293 40.2739 143.794 40.7725 143.434C41.253 143.059 41.7457 142.828 42.2505 142.741C42.3773 142.723 42.5028 142.754 42.627 142.834C42.7355 142.915 42.7997 143.027 42.8197 143.17L43.2606 146.307C43.2851 146.481 43.2746 146.636 43.229 146.772C43.1835 146.908 43.0961 147.033 42.9668 147.148C42.6316 147.292 42.3662 147.588 42.1706 148.036C41.9569 148.47 41.8957 149.011 41.987 149.661C42.085 150.358 42.2886 150.887 42.5978 151.248C42.8889 151.594 43.2879 151.732 43.7949 151.661C44.1118 151.616 44.3746 151.474 44.5833 151.235C44.7898 150.98 44.9457 150.594 45.051 150.079C45.154 149.547 45.2393 148.832 45.307 147.934C45.3737 146.455 45.5507 145.242 45.838 144.297C46.1094 143.354 46.5409 142.631 47.1326 142.128C47.7085 141.627 48.4797 141.308 49.4462 141.172C50.5236 141.021 51.5019 141.199 52.3809 141.705C53.2419 142.198 53.9541 142.954 54.5175 143.974C55.0808 144.993 55.4605 146.2 55.6564 147.595Z" fill="#F2BCA7"/>
<path fill-rule="evenodd" clip-rule="evenodd" d="M99.3284 301.309C95.2784 299.567 93.1343 295.029 92.921 290.61L79.8272 40.8631C78.1574 24.9759 41.4995 15.8078 25.6854 17.4699C21.3514 17.9254 17.3633 19.3492 13.8631 21.4678C18.3761 14.056 33.7128 7.95064 42.9819 6.97642C58.796 5.31429 87.8653 15.2826 89.5351 31.1695L102.095 291.329C102.234 294.213 103.899 296.789 106.444 298.131C120.707 305.66 134.131 319.653 132.989 351.622C132.989 351.622 134.021 316.23 99.3284 301.309Z" fill="#F2BCA7"/>
</g>
<path fill-rule="evenodd" clip-rule="evenodd" d="M122.099 365.621C120.704 359.482 114.626 355.628 108.508 357.007C102.382 358.391 98.5351 364.503 99.9171 370.658L108.886 410.596C108.888 410.605 120.648 462.368 120.65 462.376C122.045 468.517 128.123 472.372 134.241 470.992C140.368 469.609 144.213 463.497 142.832 457.342L122.106 365.65C122.104 365.642 122.101 365.632 122.099 365.621Z" fill="#FCD9C3"/>
<path fill-rule="evenodd" clip-rule="evenodd" d="M138.59 458.31C138.59 458.31 120.704 359.482 122.099 365.621C122.102 365.632 122.104 365.642 122.106 365.65L142.832 457.342C144.214 463.497 140.368 469.608 134.241 470.992C133.527 471.153 132.813 471.237 132.107 471.259C136.975 469.1 139.806 463.725 138.59 458.31Z" fill="#F2BCA7"/>
<path fill-rule="evenodd" clip-rule="evenodd" d="M84.3717 406.402L84.3686 406.372L80.018 365.982C79.3412 359.708 73.7315 355.169 67.4871 355.84C61.2527 356.513 56.7436 362.128 57.4014 368.387L57.4048 368.419L61.7552 408.807C62.432 415.081 68.0419 419.623 74.2858 418.949C80.5204 418.277 85.0298 412.663 84.3717 406.402Z" fill="#FCD9C3"/>
<path fill-rule="evenodd" clip-rule="evenodd" d="M77.6784 407.057C77.6801 407.047 77.6795 407.068 77.6784 407.057C77.6784 407.057 79.5775 383.944 79.5033 375.289L81.023 374.54L84.3686 406.372L84.3718 406.402C85.0299 412.663 80.5223 418.293 74.2858 418.949C71.1363 419.28 70.3979 418.557 69.7039 418.503C74.8677 416.977 76.7773 412.713 77.6784 407.057Z" fill="#F2BCA7"/>
<path fill-rule="evenodd" clip-rule="evenodd" d="M102.241 374.682C102.06 368.389 96.8431 363.422 90.5734 363.58C84.2952 363.74 79.3385 368.983 79.5032 375.29L80.5746 416.21C80.5746 416.219 82.097 469.281 82.097 469.29C82.2776 475.585 87.4949 480.552 93.7637 480.394C100.043 480.233 104.999 474.99 104.834 468.684L102.242 374.711C102.242 374.703 102.241 374.692 102.241 374.682Z" fill="#FCD9C3"/>
<path fill-rule="evenodd" clip-rule="evenodd" d="M64.1449 402.552L64.1418 402.522L59.7914 362.134C59.1146 355.86 53.5047 351.319 47.2605 351.992C41.0262 352.665 36.5168 358.278 37.1749 364.539L37.178 364.569L41.5286 404.959C42.2054 411.234 47.8151 415.773 54.0592 415.101C60.2939 414.429 64.803 408.813 64.1449 402.552Z" fill="#FCD9C3"/>
<path fill-rule="evenodd" clip-rule="evenodd" d="M60.0235 402.985L60.0204 402.955C60.0204 402.955 60.3018 367.155 60.9783 373.429L64.1418 402.522L64.145 402.552C64.8031 408.813 60.2937 414.429 54.0593 415.101C53.3425 415.179 52.6359 415.18 51.9414 415.123C57.1054 413.597 60.6086 408.552 60.0235 402.985Z" fill="#F2BCA7"/>
<path fill-rule="evenodd" clip-rule="evenodd" d="M100.485 468.806C100.485 468.806 102.945 400.213 102.945 400.221L104.834 468.684C104.999 474.99 100.043 480.233 93.7637 480.394C93.0322 480.412 92.3154 480.355 91.6187 480.239C96.8122 479.072 100.63 474.353 100.485 468.806Z" fill="#F2BCA7"/>
<path fill-rule="evenodd" clip-rule="evenodd" d="M127.19 470.342L123.997 457.832C123.64 456.462 123.678 455.019 124.107 453.671C125.393 449.631 129.697 447.583 133.52 448.87C134.222 449.106 134.872 449.475 135.472 449.911C137.29 451.231 138.554 453.183 139.02 455.386L141.538 465.758L141.12 466.537C138.42 471.577 132.066 473.312 127.19 470.342Z" fill="#CE4EAA"/>
<path fill-rule="evenodd" clip-rule="evenodd" d="M86.7596 477.908L86.3812 465.002C86.3329 463.588 86.6862 462.188 87.4 460.969C89.5391 457.313 94.1873 456.265 97.635 458.365C98.2678 458.751 98.8225 459.253 99.3124 459.811C100.797 461.5 101.603 463.683 101.576 465.935L101.762 476.606L101.184 477.275C97.4465 481.594 90.8664 481.883 86.7596 477.908Z" fill="#CE4EAA"/>
<path d="M100.607 281.249C128.609 263.082 17.3934 288.175 31.7621 303.512C33.8983 305.792 42.9825 304.559 46.1584 303.437" stroke="#FFB600" stroke-width="1.701"/>
<path d="M41.2493 286.397C6.37004 290.742 109.269 237.982 110.04 258.814C110.155 261.911 102.369 266.837 99.1238 268.038" stroke="#FFB600" stroke-width="1.701"/>
</svg>
