<svg width="161" height="487" viewBox="0 0 161 487" fill="none" xmlns="http://www.w3.org/2000/svg">
<path fill-rule="evenodd" clip-rule="evenodd" d="M132.059 318.068L131.546 317.18C125.682 308.441 116.512 307.794 111.066 315.735C105.62 323.673 105.962 337.193 111.824 345.929L126.763 368.186L120.257 398.852C117.93 409.814 122.253 422.252 129.911 426.628C137.569 431.003 145.663 425.664 147.987 414.699C153.965 381.971 147.966 345.575 132.059 318.068Z" fill="#F2BCA7"/>
<path fill-rule="evenodd" clip-rule="evenodd" d="M87.3751 292.702C60.7592 294.704 40.8182 318.002 42.8376 344.745L43.6006 358.875C45.6231 385.617 68.8328 405.67 95.4519 403.665C122.068 401.663 142.008 378.365 139.989 351.622L139.223 337.495C137.204 310.75 113.99 290.698 87.3751 292.702Z" fill="#FCD9C3"/>
<mask id="mask0_19_4370" style="mask-type:luminance" maskUnits="userSpaceOnUse" x="13" y="2" width="116" height="338">
<path fill-rule="evenodd" clip-rule="evenodd" d="M128.102 331.512L48.3508 339.895L13.7598 10.7835L93.5113 2.40124L128.102 331.512Z" fill="white"/>
</mask>
<g mask="url(#mask0_19_4370)">
<path fill-rule="evenodd" clip-rule="evenodd" d="M110.182 304.31L96.535 31.1693C94.8652 15.2824 65.7959 5.31415 49.9818 6.97629C34.1676 8.63842 15.1137 23.6647 16.7835 39.5515L52.9158 310.329C54.5858 326.218 68.7586 337.75 84.5728 336.088C100.387 334.425 111.852 320.199 110.182 304.31Z" fill="#FCD9C3"/>
</g>
<mask id="mask1_19_4370" style="mask-type:luminance" maskUnits="userSpaceOnUse" x="19" y="1" width="122" height="360">
<path fill-rule="evenodd" clip-rule="evenodd" d="M140.944 351.522L56.486 360.399L19.6746 10.1619L104.133 1.28494L140.944 351.522Z" fill="white"/>
</mask>
<g mask="url(#mask1_19_4370)">
<path d="M77.4065 252.547C77.6292 254.132 77.5922 255.478 77.2955 256.586C76.983 257.697 76.5002 258.572 75.847 259.213C75.1939 259.855 74.4576 260.249 73.6382 260.396C73.5114 260.414 73.3938 260.382 73.2854 260.3C73.1589 260.205 73.0856 260.086 73.0656 259.944L72.6447 256.949C72.6136 256.727 72.6298 256.555 72.6934 256.433C72.7548 256.295 72.8422 256.17 72.9556 256.057C73.1755 255.897 73.3807 255.69 73.5714 255.437C73.7598 255.169 73.8997 254.842 73.9911 254.457C74.0644 254.059 74.0621 253.583 73.9841 253.028C73.855 252.11 73.6155 251.44 73.2657 251.021C72.9137 250.586 72.4922 250.403 72.001 250.472C71.6524 250.521 71.385 250.687 71.1988 250.972C70.9968 251.259 70.8487 251.7 70.7546 252.295C70.6424 252.876 70.5569 253.647 70.4982 254.609C70.4139 255.849 70.2338 256.924 69.958 257.836C69.664 258.733 69.2234 259.45 68.6362 259.984C68.0331 260.522 67.2403 260.859 66.258 260.997C65.2915 261.133 64.3901 260.985 63.5539 260.553C62.7154 260.106 62.0133 259.421 61.4474 258.498C60.8815 257.576 60.504 256.442 60.3147 255.095C60.1611 254.002 60.1689 253.023 60.3383 252.159C60.5055 251.279 60.7867 250.521 61.1819 249.884C61.577 249.246 62.0239 248.747 62.5225 248.386C63.0031 248.012 63.4958 247.781 64.0006 247.694C64.1273 247.676 64.2528 247.707 64.3771 247.787C64.4855 247.868 64.5498 247.98 64.5698 248.123L65.0107 251.26C65.0352 251.434 65.0247 251.589 64.9791 251.725C64.9335 251.861 64.8461 251.986 64.7169 252.101C64.3817 252.245 64.1163 252.541 63.9207 252.989C63.707 253.423 63.6458 253.964 63.7371 254.614C63.835 255.311 64.0386 255.84 64.3478 256.2C64.6389 256.547 65.038 256.685 65.545 256.614C65.8619 256.569 66.1247 256.427 66.3334 256.188C66.5399 255.933 66.6958 255.547 66.801 255.032C66.904 254.5 66.9894 253.785 67.057 252.887C67.1238 251.407 67.3008 250.195 67.588 249.25C67.8594 248.307 68.291 247.584 68.8827 247.081C69.4586 246.58 70.2298 246.261 71.1963 246.125C72.2737 245.974 73.2519 246.151 74.131 246.658C74.992 247.151 75.7041 247.907 76.2675 248.927C76.8309 249.946 77.2105 251.153 77.4065 252.547ZM75.1081 236.194C75.3196 237.699 75.2555 239.025 74.9158 240.171C74.5738 241.302 73.9698 242.235 73.1038 242.97C72.2355 243.69 71.1007 244.181 69.6995 244.443C69.0521 244.55 68.3561 244.656 67.6114 244.76C66.8667 244.865 66.1526 244.957 65.4691 245.037C64.0817 245.168 62.8704 244.998 61.8351 244.53C60.784 244.064 59.9372 243.326 59.2946 242.318C58.6361 241.312 58.2034 240.072 57.9963 238.599C57.8493 237.553 57.8481 236.567 57.9928 235.642C58.1216 234.719 58.3928 233.889 58.8063 233.153C59.2039 232.418 59.7336 231.819 60.3954 231.354C61.0391 230.876 61.8035 230.566 62.6885 230.426C62.8289 230.39 62.9544 230.421 63.0651 230.518C63.1735 230.6 63.2377 230.712 63.2578 230.855L63.7087 234.063C63.7376 234.269 63.7203 234.433 63.6567 234.555C63.5772 234.68 63.4242 234.798 63.1977 234.911C62.3891 235.251 61.8699 235.695 61.6401 236.244C61.3923 236.78 61.3195 237.412 61.422 238.141C61.5445 239.013 61.8869 239.667 62.4493 240.105C62.9959 240.546 63.835 240.71 64.9666 240.6C66.2726 240.465 67.6035 240.278 68.9594 240.039C70.0777 239.833 70.8468 239.442 71.2667 238.866C71.6708 238.292 71.8116 237.57 71.6891 236.698C71.5866 235.97 71.3414 235.374 70.9532 234.911C70.5651 234.449 69.9446 234.173 69.0917 234.082C68.8452 234.052 68.6745 233.988 68.5797 233.888C68.4668 233.774 68.3959 233.615 68.3669 233.409L67.916 230.2C67.896 230.058 67.9268 229.932 68.0085 229.824C68.088 229.699 68.2001 229.635 68.3449 229.631C69.2345 229.522 70.0624 229.608 70.8289 229.888C71.5772 230.154 72.2517 230.585 72.8522 231.179C73.4369 231.775 73.9263 232.498 74.3203 233.348C74.6986 234.199 74.9611 235.148 75.1081 236.194ZM73.4003 225.766C73.4248 225.941 73.3894 226.091 73.294 226.217C73.1987 226.344 73.0639 226.419 72.8896 226.444L57.4414 228.615C57.2671 228.639 57.1168 228.604 56.9903 228.509C56.8638 228.413 56.7883 228.279 56.7638 228.104L56.3162 224.92C56.2917 224.745 56.3271 224.595 56.4224 224.468C56.5178 224.342 56.6526 224.266 56.8268 224.242L72.275 222.071C72.4493 222.046 72.5997 222.082 72.7262 222.177C72.8527 222.272 72.9282 222.407 72.9527 222.582L73.4003 225.766ZM71.7667 212.418C71.9894 214.003 71.9524 215.349 71.6557 216.457C71.3432 217.567 70.8604 218.443 70.2073 219.084C69.5541 219.725 68.8178 220.12 67.9984 220.267C67.8716 220.285 67.7541 220.253 67.6456 220.171C67.5191 220.076 67.4459 219.957 67.4258 219.815L67.005 216.82C66.9738 216.598 66.99 216.426 67.0536 216.304C67.1151 216.166 67.2025 216.041 67.3158 215.928C67.5357 215.768 67.7409 215.561 67.9316 215.308C68.12 215.039 68.2599 214.713 68.3513 214.328C68.4246 213.93 68.4223 213.454 68.3444 212.899C68.2152 211.98 67.9757 211.311 67.626 210.892C67.274 210.457 66.8524 210.274 66.3612 210.343C66.0126 210.392 65.7453 210.558 65.5591 210.843C65.357 211.13 65.2089 211.571 65.1148 212.166C65.0026 212.747 64.9172 213.518 64.8584 214.48C64.7741 215.72 64.5941 216.795 64.3182 217.707C64.0243 218.604 63.5837 219.32 62.9964 219.855C62.3933 220.393 61.6006 220.73 60.6182 220.868C59.6517 221.004 58.7503 220.856 57.9141 220.424C57.0756 219.977 56.3735 219.292 55.8076 218.369C55.2418 217.447 54.8642 216.313 54.6749 214.966C54.5213 213.873 54.5292 212.894 54.6986 212.03C54.8657 211.15 55.1469 210.392 55.5421 209.755C55.9372 209.117 56.3841 208.618 56.8828 208.257C57.3633 207.883 57.856 207.652 58.3608 207.565C58.4875 207.547 58.613 207.578 58.7373 207.657C58.8457 207.739 58.91 207.851 58.93 207.994L59.3709 211.131C59.3954 211.305 59.3849 211.46 59.3393 211.596C59.2938 211.732 59.2064 211.857 59.0771 211.972C58.7419 212.116 58.4765 212.412 58.2809 212.86C58.0672 213.294 58.006 213.835 58.0973 214.485C58.1953 215.182 58.3989 215.711 58.708 216.071C58.9991 216.418 59.3982 216.556 59.9052 216.485C60.2221 216.44 60.4849 216.298 60.6936 216.059C60.9001 215.804 61.056 215.418 61.1612 214.903C61.2643 214.371 61.3496 213.656 61.4173 212.758C61.484 211.278 61.661 210.066 61.9482 209.121C62.2196 208.178 62.6512 207.455 63.2429 206.952C63.8188 206.45 64.59 206.132 65.5565 205.996C66.6339 205.845 67.6121 206.022 68.4912 206.529C69.3522 207.022 70.0644 207.778 70.6277 208.798C71.1911 209.817 71.5708 211.024 71.7667 212.418ZM69.5552 196.682C69.7779 198.267 69.7409 199.613 69.4442 200.721C69.1317 201.832 68.6488 202.707 67.9957 203.348C67.3426 203.989 66.6063 204.384 65.7868 204.531C65.6601 204.549 65.5425 204.517 65.4341 204.435C65.3076 204.34 65.2343 204.221 65.2143 204.079L64.7934 201.084C64.7622 200.862 64.7785 200.69 64.8421 200.568C64.9035 200.43 64.9909 200.305 65.1043 200.192C65.3242 200.032 65.5294 199.825 65.72 199.572C65.9085 199.303 66.0484 198.977 66.1397 198.592C66.2131 198.194 66.2107 197.718 66.1328 197.163C66.0037 196.244 65.7642 195.575 65.4144 195.156C65.0624 194.721 64.6408 194.538 64.1497 194.607C63.8011 194.656 63.5337 194.822 63.3475 195.107C63.1455 195.394 62.9974 195.835 62.9033 196.43C62.7911 197.011 62.7056 197.782 62.6469 198.744C62.5626 199.984 62.3825 201.059 62.1066 201.971C61.8127 202.868 61.3721 203.584 60.7849 204.119C60.1817 204.657 59.389 204.994 58.4067 205.132C57.4402 205.268 56.5388 205.12 55.7026 204.688C54.8641 204.241 54.1619 203.556 53.5961 202.633C53.0302 201.711 52.6527 200.577 52.4634 199.23C52.3097 198.137 52.3176 197.158 52.487 196.294C52.6542 195.414 52.9354 194.656 53.3305 194.019C53.7257 193.381 54.1726 192.882 54.6712 192.521C55.1518 192.147 55.6444 191.916 56.1492 191.829C56.276 191.811 56.4015 191.842 56.5258 191.921C56.6342 192.003 56.6984 192.115 56.7185 192.258L57.1594 195.395C57.1839 195.569 57.1733 195.724 57.1278 195.86C57.0822 195.996 56.9948 196.121 56.8656 196.236C56.5304 196.38 56.2649 196.676 56.0693 197.124C55.8556 197.558 55.7945 198.099 55.8858 198.749C55.9837 199.446 56.1873 199.975 56.4965 200.335C56.7876 200.682 57.1867 200.82 57.6937 200.749C58.0106 200.704 58.2734 200.562 58.4821 200.323C58.6886 200.068 58.8444 199.682 58.9497 199.167C59.0527 198.635 59.1381 197.92 59.2057 197.022C59.2724 195.542 59.4494 194.33 59.7367 193.385C60.0081 192.442 60.4397 191.719 61.0314 191.216C61.6073 190.715 62.3784 190.396 63.3449 190.26C64.4224 190.109 65.4006 190.286 66.2796 190.793C67.1406 191.286 67.8528 192.042 68.4162 193.062C68.9796 194.081 69.3592 195.288 69.5552 196.682ZM67.2601 180.352C67.465 181.81 67.4055 183.111 67.0816 184.255C66.7576 185.399 66.1627 186.339 65.2966 187.075C64.4147 187.813 63.2573 188.315 61.8244 188.581C61.1453 188.692 60.4652 188.796 59.7838 188.892C59.1025 188.988 58.4122 189.077 57.7128 189.159C56.2779 189.296 55.0349 189.131 53.9838 188.665C52.9146 188.185 52.0587 187.441 51.4161 186.433C50.7735 185.424 50.3509 184.199 50.1483 182.757C49.9479 181.331 50.0176 180.045 50.3573 178.899C50.6948 177.736 51.3113 176.777 52.2068 176.021C53.0865 175.267 54.236 174.767 55.6553 174.519C56.348 174.389 57.035 174.276 57.7163 174.18C58.3976 174.085 59.0811 174.005 59.7669 173.941C61.2176 173.802 62.4686 173.965 63.5197 174.431C64.5549 174.9 65.386 175.639 66.0127 176.65C66.6395 177.66 67.0553 178.895 67.2601 180.352ZM63.8378 180.833C63.7197 179.994 63.3705 179.348 62.79 178.896C62.2073 178.429 61.3591 178.257 60.2456 178.381C59.544 178.448 58.8842 178.524 58.2663 178.611C57.6483 178.698 57.0089 178.804 56.3479 178.929C55.6076 179.066 55.0256 179.293 54.6017 179.611C54.1598 179.915 53.858 180.297 53.6963 180.756C53.5346 181.215 53.4927 181.722 53.5707 182.276C53.6464 182.815 53.8252 183.283 54.1071 183.679C54.3891 184.076 54.7855 184.368 55.2965 184.554C55.7916 184.743 56.4137 184.801 57.1629 184.728C57.8305 184.65 58.4734 184.568 59.0913 184.481C59.7092 184.395 60.3656 184.294 61.0606 184.18C62.163 183.977 62.931 183.578 63.3645 182.984C63.798 182.39 63.9558 181.673 63.8378 180.833ZM65.5163 169.669C65.5408 169.843 65.5054 169.994 65.4101 170.12C65.3148 170.247 65.18 170.322 65.0057 170.347L49.5575 172.518C49.3832 172.542 49.2328 172.507 49.1063 172.412C48.9798 172.316 48.9043 172.181 48.8798 172.007L47.9713 165.543C47.6841 163.499 47.9334 161.824 48.7192 160.518C49.4871 159.198 50.7345 158.417 52.4615 158.174C53.5864 158.016 54.5761 158.16 55.4304 158.605C56.2825 159.035 56.9689 159.665 57.4897 160.497L62.8753 156.395C62.9637 156.335 63.0475 156.299 63.1267 156.287C63.2535 156.27 63.3801 156.308 63.5066 156.404C63.615 156.485 63.6793 156.598 63.6993 156.74L64.1402 159.877C64.1825 160.178 64.1424 160.41 64.0198 160.573C63.8814 160.738 63.7533 160.861 63.6354 160.942L58.7876 164.386L59.1316 166.834L64.4078 166.093C64.5821 166.068 64.7325 166.103 64.859 166.199C64.9855 166.294 65.061 166.429 65.0855 166.603L65.5163 169.669ZM55.7806 167.305L55.3931 164.548C55.2885 163.803 55.0283 163.275 54.6127 162.961C54.1948 162.632 53.669 162.512 53.0352 162.601C52.4173 162.688 51.9438 162.941 51.6148 163.358C51.2835 163.76 51.1724 164.35 51.2815 165.126L51.669 167.883L55.7806 167.305ZM62.6563 147.595C62.879 149.179 62.842 150.525 62.5453 151.633C62.2328 152.744 61.75 153.619 61.0969 154.26C60.4437 154.902 59.7074 155.296 58.888 155.443C58.7612 155.461 58.6437 155.429 58.5352 155.348C58.4087 155.252 58.3355 155.133 58.3154 154.991L57.8946 151.996C57.8634 151.774 57.8796 151.602 57.9432 151.48C58.0047 151.342 58.0921 151.217 58.2054 151.104C58.4253 150.944 58.6305 150.737 58.8212 150.484C59.0096 150.216 59.1495 149.889 59.2409 149.504C59.3142 149.106 59.3119 148.63 59.234 148.076C59.1048 147.157 58.8653 146.487 58.5156 146.068C58.1636 145.633 57.742 145.45 57.2508 145.519C56.9022 145.568 56.6348 145.734 56.4487 146.019C56.2466 146.306 56.0985 146.747 56.0044 147.342C55.8922 147.923 55.8068 148.695 55.748 149.656C55.6637 150.896 55.4837 151.971 55.2078 152.883C54.9139 153.78 54.4733 154.497 53.886 155.032C53.2829 155.569 52.4902 155.906 51.5078 156.044C50.5413 156.18 49.6399 156.032 48.8037 155.6C47.9652 155.153 47.2631 154.468 46.6972 153.546C46.1314 152.623 45.7538 151.489 45.5645 150.142C45.4109 149.049 45.4188 148.07 45.5882 147.206C45.7553 146.326 46.0365 145.568 46.4317 144.931C46.8268 144.293 47.2737 143.794 47.7724 143.434C48.2529 143.059 48.7456 142.828 49.2504 142.741C49.3771 142.723 49.5026 142.754 49.6269 142.834C49.7353 142.915 49.7996 143.027 49.8196 143.17L50.2605 146.307C50.285 146.481 50.2745 146.636 50.2289 146.772C50.1834 146.908 50.096 147.033 49.9667 147.148C49.6315 147.292 49.3661 147.588 49.1705 148.036C48.9568 148.47 48.8956 149.011 48.9869 149.661C49.0849 150.358 49.2885 150.887 49.5976 151.248C49.8887 151.594 50.2878 151.732 50.7948 151.661C51.1117 151.616 51.3745 151.474 51.5832 151.235C51.7897 150.98 51.9456 150.594 52.0508 150.079C52.1539 149.547 52.2392 148.832 52.3069 147.934C52.3736 146.455 52.5506 145.242 52.8378 144.297C53.1092 143.354 53.5408 142.631 54.1325 142.128C54.7084 141.627 55.4796 141.308 56.4461 141.172C57.5235 141.021 58.5017 141.199 59.3808 141.705C60.2418 142.198 60.954 142.954 61.5173 143.974C62.0807 144.993 62.4604 146.2 62.6563 147.595Z" fill="#F2BCA7"/>
<path fill-rule="evenodd" clip-rule="evenodd" d="M106.328 301.309C102.278 299.567 100.134 295.029 99.9208 290.61L86.827 40.8631C85.1572 24.9759 48.4993 15.8078 32.6852 17.4699C28.3512 17.9254 24.3631 19.3492 20.8629 21.4678C25.3759 14.056 40.7126 7.95064 49.9817 6.97642C65.7958 5.31429 94.8651 15.2826 96.5349 31.1695L109.095 291.329C109.234 294.213 110.899 296.789 113.444 298.131C127.707 305.66 141.131 319.653 139.989 351.622C139.989 351.622 141.021 316.23 106.328 301.309Z" fill="#F2BCA7"/>
</g>
<path fill-rule="evenodd" clip-rule="evenodd" d="M130.068 366.697C129.636 360.417 124.224 355.672 117.966 356.091C111.7 356.514 106.958 361.961 107.374 368.255L110.08 409.098C110.081 409.107 113.723 462.064 113.723 462.073C114.156 468.355 119.567 473.1 125.824 472.681C132.091 472.258 136.833 466.812 136.416 460.517L130.07 366.727C130.069 366.719 130.068 366.708 130.068 366.697Z" fill="#FCD9C3"/>
<path fill-rule="evenodd" clip-rule="evenodd" d="M132.076 460.82C132.076 460.82 129.636 360.417 130.068 366.697C130.069 366.708 130.069 366.719 130.07 366.727L136.416 460.517C136.833 466.812 132.092 472.258 125.824 472.68C125.094 472.729 124.376 472.702 123.675 472.615C128.817 471.233 132.443 466.358 132.076 460.82Z" fill="#F2BCA7"/>
<path fill-rule="evenodd" clip-rule="evenodd" d="M91.3716 448.949L91.3684 448.894L87.0178 375.306C86.341 363.875 80.7313 355.605 74.4869 356.829C68.2525 358.054 63.7434 368.285 64.4012 379.688L64.4046 379.746L68.755 453.331C69.4318 464.762 75.0417 473.036 81.2856 471.809C87.5203 470.583 92.0296 460.356 91.3716 448.949Z" fill="#FCD9C3"/>
<path fill-rule="evenodd" clip-rule="evenodd" d="M84.6781 450.143C84.6799 450.124 84.6793 450.162 84.6781 450.143C84.6781 450.143 86.5772 408.032 86.5031 392.264L88.0227 390.899L91.3684 448.894L91.3716 448.949C92.0296 460.356 87.522 470.614 81.2856 471.809C78.136 472.412 77.3977 471.095 76.7037 470.995C81.8674 468.215 83.7771 460.448 84.6781 450.143Z" fill="#F2BCA7"/>
<path fill-rule="evenodd" clip-rule="evenodd" d="M109.241 374.682C109.06 368.389 103.843 363.422 97.5733 363.58C91.295 363.74 86.3384 368.983 86.5031 375.29L87.5744 416.21C87.5745 416.219 89.0968 469.281 89.0969 469.29C89.2774 475.585 94.4948 480.552 100.764 480.394C107.043 480.233 111.998 474.99 111.834 468.684L109.242 374.711C109.242 374.703 109.241 374.692 109.241 374.682Z" fill="#FCD9C3"/>
<path fill-rule="evenodd" clip-rule="evenodd" d="M69.1744 433.211L69.1729 433.163L67.05 368.464C66.7193 358.413 61.3717 350.212 55.1049 350.148C48.8481 350.085 44.0409 358.152 44.3537 368.179L44.3552 368.227L46.4782 432.929C46.8089 442.981 52.1564 451.178 58.423 451.245C64.6801 451.309 69.4872 443.238 69.1744 433.211Z" fill="#FCD9C3"/>
<path fill-rule="evenodd" clip-rule="evenodd" d="M69.1745 433.211L69.173 433.163L67.0501 368.464C66.7194 358.413 61.3718 350.212 55.1051 350.148C48.8482 350.085 44.041 358.152 44.3538 368.179L44.3553 368.227L46.4783 432.929C46.809 442.981 52.1565 451.178 58.4231 451.245C64.6803 451.309 69.4873 443.238 69.1745 433.211Z" fill="#FCD9C3"/>
<path fill-rule="evenodd" clip-rule="evenodd" d="M64.9004 428.702L64.8985 428.641C64.8985 428.641 66.6698 356.811 67.0845 369.563L69.0342 428.701L69.0361 428.762C69.4329 441.484 64.6939 451.744 58.4373 451.687C57.7179 451.681 57.0119 451.523 56.3204 451.253C61.5432 449.354 65.2532 440.012 64.9004 428.702Z" fill="#F2BCA7"/>
<path fill-rule="evenodd" clip-rule="evenodd" d="M107.485 468.806C107.485 468.806 109.945 400.213 109.945 400.221L111.834 468.684C111.998 474.99 107.043 480.233 100.764 480.394C100.032 480.412 99.3153 480.355 98.6186 480.239C103.812 479.072 107.63 474.353 107.485 468.806Z" fill="#F2BCA7"/>
<path fill-rule="evenodd" clip-rule="evenodd" d="M118.958 470.951L117.731 458.099C117.589 456.69 117.85 455.27 118.481 454.005C120.375 450.211 124.943 448.85 128.521 450.712C129.178 451.053 129.765 451.517 130.29 452.04C131.882 453.625 132.831 455.748 132.952 457.997L133.841 468.633L133.307 469.339C129.863 473.902 123.317 474.638 118.958 470.951Z" fill="#CE4EAA"/>
<path fill-rule="evenodd" clip-rule="evenodd" d="M133.052 426.429L131.825 413.576C131.683 412.168 131.944 410.748 132.575 409.482C134.469 405.689 139.037 404.328 142.615 406.189C143.273 406.531 143.859 406.995 144.384 407.518C145.977 409.103 146.925 411.226 147.046 413.475L147.935 424.111L147.402 424.817C143.957 429.38 137.412 430.115 133.052 426.429Z" fill="#CE4EAA"/>
<path fill-rule="evenodd" clip-rule="evenodd" d="M93.7595 477.908L93.3811 465.002C93.3327 463.588 93.6861 462.188 94.3999 460.969C96.539 457.313 101.187 456.265 104.635 458.365C105.268 458.751 105.822 459.253 106.312 459.811C107.796 461.5 108.603 463.683 108.576 465.935L108.762 476.606L108.184 477.275C104.446 481.594 97.8663 481.883 93.7595 477.908Z" fill="#CE4EAA"/>
<path fill-rule="evenodd" clip-rule="evenodd" d="M50.0704 449.376L49.692 436.47C49.6436 435.055 49.997 433.656 50.7108 432.436C52.8499 428.78 57.4981 427.732 60.9458 429.832C61.5786 430.218 62.1332 430.721 62.6232 431.278C64.1074 432.967 64.9142 435.15 64.8867 437.403L65.073 448.074L64.4948 448.742C60.7573 453.061 54.1772 453.35 50.0704 449.376Z" fill="#CE4EAA"/>
<path fill-rule="evenodd" clip-rule="evenodd" d="M72.0704 470.376L71.692 457.47C71.6436 456.055 71.997 454.656 72.7108 453.436C74.8499 449.78 79.4981 448.732 82.9458 450.832C83.5786 451.218 84.1332 451.721 84.6232 452.278C86.1074 453.967 86.9142 456.15 86.8867 458.403L87.073 469.074L86.4948 469.742C82.7573 474.061 76.1772 474.35 72.0704 470.376Z" fill="#CE4EAA"/>
<path d="M107.606 281.249C135.609 263.082 24.3934 288.175 38.7621 303.512C40.8983 305.792 49.9825 304.559 53.1583 303.437" stroke="#FFB600" stroke-width="1.701"/>
<path d="M48.2492 286.397C13.3699 290.742 116.268 237.982 117.04 258.814C117.155 261.911 109.368 266.837 106.124 268.038" stroke="#FFB600" stroke-width="1.701"/>
</svg>
