<svg width="150" height="423" viewBox="0 0 150 423" fill="none" xmlns="http://www.w3.org/2000/svg">
<mask id="mask0_19_4371" style="mask-type:luminance" maskUnits="userSpaceOnUse" x="10" y="0" width="119" height="376">
<path fill-rule="evenodd" clip-rule="evenodd" d="M128.502 373.498L17.2442 375.44L10.7308 2.28715L121.989 0.345136L128.502 373.498Z" fill="white"/>
</mask>
<g mask="url(#mask0_19_4371)">
<path fill-rule="evenodd" clip-rule="evenodd" d="M96.306 9.22928C103.543 17.1938 128.249 63.3102 122.248 72.8772C62.7943 167.667 76.603 341.555 77.0532 343.057C77.0532 343.057 73.5204 369.829 60.4437 373.73C47.364 377.632 31.3278 370.713 27.3996 357.683C25.2931 350.687 -14.4277 126.56 56.9878 12.7032C64.2289 1.16038 79.4895 -2.34886 91.0717 4.86947C93.0563 6.10553 94.8067 7.5793 96.306 9.22928Z" fill="#FCD9C3"/>
</g>
<path fill-rule="evenodd" clip-rule="evenodd" d="M77.5083 5.52095C79.4935 6.7588 81.244 8.23315 82.7417 9.88136C89.98 17.847 114.687 63.9646 108.685 73.5307C49.23 168.318 63.0409 342.209 63.4911 343.71C67.3061 356.469 60.2543 369.872 47.695 374.096C51.7699 375.055 56.1411 375.014 60.4438 373.73C73.5205 369.829 77.0533 343.057 77.0533 343.057C76.6031 341.555 62.7944 167.667 122.248 72.8771C128.249 63.3101 103.543 17.1937 96.306 9.22925C94.8068 7.57926 93.0563 6.10549 91.0717 4.86943C84.5204 0.788141 76.7954 0.140819 70.0088 2.43359C72.5949 3.03415 75.1313 4.04015 77.5083 5.52095Z" fill="#F2BCA7"/>
<path fill-rule="evenodd" clip-rule="evenodd" d="M125.493 358.724C129.019 362.604 129.791 368.463 126.997 373.222L114.808 393.986C112.352 398.17 107.664 400.53 102.828 400.021L64.0127 395.916C57.2241 395.198 52.302 389.126 53.0216 382.361C53.7415 375.592 59.8328 370.684 66.6248 371.403L97.495 374.666L105.649 360.773C109.098 354.897 116.674 352.923 122.568 356.357C123.688 357.01 124.667 357.814 125.493 358.724Z" fill="#F2BCA7"/>
<path fill-rule="evenodd" clip-rule="evenodd" d="M80.1642 324.46C54.9689 312.944 20.3485 304.404 22.7989 330.236C26.7965 372.38 43.7308 411.097 69.9708 412.236C69.9708 412.236 86.3695 398.567 90.1786 382.336C65.9574 346.948 80.1642 324.46 80.1642 324.46Z" fill="#FCD9C3"/>
<path fill-rule="evenodd" clip-rule="evenodd" d="M69.7863 348.078C70.1434 357.627 78.1249 377.261 90.1785 382.336C65.9572 346.948 82.3497 319.631 82.3497 319.631C75.9731 316.716 69.1216 330.133 69.7863 348.078Z" fill="#F2BCA7"/>
<mask id="mask1_19_4371" style="mask-type:luminance" maskUnits="userSpaceOnUse" x="55" y="352" width="95" height="71">
<path fill-rule="evenodd" clip-rule="evenodd" d="M149.099 420.48L56.5445 422.096L55.36 354.231L147.915 352.616L149.099 420.48Z" fill="white"/>
</mask>
<g mask="url(#mask1_19_4371)">
<path fill-rule="evenodd" clip-rule="evenodd" d="M144.928 356.879C147.113 359.283 148.346 362.535 148.1 366.025C147.788 370.416 144.247 409.194 116.374 418.686C90.2351 427.585 63.1776 411.243 62.0388 410.543C56.2251 406.967 54.4175 399.375 58.0056 393.58C61.5837 387.797 69.1804 385.991 74.9885 389.537C80.0635 392.596 95.9362 399.595 108.383 395.358C118.224 392.006 122.836 372.616 123.426 364.287C123.908 357.497 129.824 352.38 136.634 352.862C139.948 353.094 142.864 354.607 144.928 356.879Z" fill="#FCD9C3"/>
</g>
<mask id="mask2_19_4371" style="mask-type:luminance" maskUnits="userSpaceOnUse" x="95" y="352" width="55" height="70">
<path fill-rule="evenodd" clip-rule="evenodd" d="M149.099 420.476L96.7298 421.39L95.5453 353.532L147.915 352.618L149.099 420.476Z" fill="white"/>
</mask>
<g mask="url(#mask2_19_4371)">
<path fill-rule="evenodd" clip-rule="evenodd" d="M136.964 357.016C139.148 359.42 140.383 362.671 140.133 366.163C139.822 370.552 136.283 409.331 108.409 418.822C104.506 420.153 100.582 420.908 96.7273 421.247C103.044 421.573 109.736 420.946 116.374 418.686C144.247 409.194 147.788 370.416 148.1 366.025C148.346 362.535 147.113 359.283 144.928 356.879C142.864 354.607 139.948 353.094 136.634 352.862C134.847 352.735 133.133 353.013 131.552 353.586C133.66 354.255 135.527 355.434 136.964 357.016Z" fill="#F2BCA7"/>
</g>
<path fill-rule="evenodd" clip-rule="evenodd" d="M67.0234 389.674C71.5285 392.389 84.5448 398.193 96.1188 396.497C87.0543 395.596 78.4742 391.637 74.9884 389.537C71.6606 387.508 67.7512 387.24 64.3429 388.46C65.2604 388.755 66.1624 389.148 67.0234 389.674Z" fill="#EA9975"/>
<path fill-rule="evenodd" clip-rule="evenodd" d="M63.9386 403.617C73.5899 406.935 106.322 416.04 122.409 409.503C131.139 405.71 137.897 399.226 142.447 390.756C146.958 379.208 147.943 368.239 148.1 366.025C148.346 362.535 147.113 359.283 144.928 356.879C142.864 354.607 139.948 353.093 136.635 352.862C131.258 352.481 126.488 355.616 124.459 360.277C124.587 368.297 123.087 374.919 120.106 379.674C117.659 386.751 113.822 393.506 108.383 395.358C95.9361 399.595 80.0634 392.596 74.9887 389.537C69.1806 385.991 61.5839 387.797 58.0058 393.58C57.1718 394.931 56.6392 396.377 56.3709 397.849C58.075 400.558 60.699 402.694 63.9386 403.617Z" fill="#F2BCA7"/>
<path fill-rule="evenodd" clip-rule="evenodd" d="M142.571 337.621C144.247 339.465 145.38 341.828 145.686 344.488C148.867 372.262 139.01 393.976 119.316 402.573C103.35 409.546 72.2913 403.574 63.152 401.579C56.4781 400.122 52.2558 393.548 53.7183 386.901C55.1828 380.252 61.7753 376.041 68.446 377.498C83.493 380.769 103.535 382.553 109.396 379.993C118.754 375.908 123.025 363.988 121.112 347.288C120.337 340.527 125.21 334.416 131.995 333.644C136.112 333.175 139.987 334.777 142.571 337.621Z" fill="#FCD9C3"/>
<path fill-rule="evenodd" clip-rule="evenodd" d="M131.695 315.996C135.049 319.687 135.947 325.204 133.532 329.897C130.421 335.946 122.986 338.339 116.914 335.258C112.127 332.846 97.3039 327.047 86.3256 329.185C75.606 331.273 69.6538 344.673 69.5972 344.809C67.0072 351.106 59.7828 354.123 53.4631 351.539C47.1492 348.953 44.123 341.759 46.7108 335.459C47.1432 334.409 57.5751 309.666 81.5881 304.991C102.918 300.836 125.648 312.018 128.171 313.306C129.539 314.004 130.721 314.923 131.695 315.996Z" fill="#FCD9C3"/>
<path fill-rule="evenodd" clip-rule="evenodd" d="M134.784 323.506C134.784 323.506 135.049 319.687 131.695 315.996C130.721 314.924 129.539 314.005 128.171 313.306C125.649 312.018 102.918 300.837 81.588 304.991C78.2195 305.645 75.1298 306.707 72.2848 308.031C93.2697 304.496 128.425 313.215 134.784 323.506Z" fill="#F2BCA7"/>
<path fill-rule="evenodd" clip-rule="evenodd" d="M120.144 309.817C115.103 311.092 113.516 318.061 116.023 321.557C116.766 322.594 117.791 323.398 118.976 323.877L129.765 328.292L133.532 329.897L133.918 329.009C136.591 322.855 133.771 315.704 127.608 313.013L121.412 310.308L120.144 309.817Z" fill="#CE4EAA"/>
<path fill-rule="evenodd" clip-rule="evenodd" d="M133.077 333.509L132.562 344.028C132.487 345.339 132.788 346.644 133.429 347.79C137.201 353.517 142.818 352.638 146.134 349.695C146.738 336.701 139.004 333.721 133.077 333.509Z" fill="#CE4EAA"/>
<path d="M75.2486 296.566C104.014 280.071 -6.29295 296.077 6.40288 313.553C8.2906 316.151 17.2322 315.703 20.4156 314.82" stroke="#FFB600" stroke-width="1.8"/>
<path d="M18.836 296.413C-15.4634 297.725 87.299 251.86 86.3055 273.847C86.1577 277.115 78.1697 281.569 74.9121 282.53" stroke="#FFB600" stroke-width="1.8"/>
</svg>
