<svg width="80" height="80" viewBox="0 0 80 80" fill="none" xmlns="http://www.w3.org/2000/svg">
<g opacity="0.747442">
<rect width="80" height="80" rx="40" fill="#232586" style="mix-blend-mode:multiply"/>
</g>
<mask id="mask0_15_350" style="mask-type:luminance" maskUnits="userSpaceOnUse" x="0" y="0" width="80" height="80">
<rect width="80" height="80" rx="40" fill="white"/>
<rect width="80" height="80" rx="40" stroke="white"/>
</mask>
<g mask="url(#mask0_15_350)">
<path fill-rule="evenodd" clip-rule="evenodd" d="M41.8274 17.5039C42.5306 18.1822 42.9914 19.2409 42.9914 20.4599V21.0332C43.476 20.8088 43.9879 20.7107 44.5044 20.7107C45.3911 20.7107 46.2937 21.0149 46.9985 21.696C47.7032 22.3772 48.1624 23.4464 48.1624 24.6699V27.0168C48.647 26.7921 49.1755 26.6943 49.6921 26.6943C50.576 26.6943 51.4663 27.0013 52.1695 27.6796C52.8727 28.358 53.3334 29.4166 53.3334 30.6356V46.9742C53.3334 51.9359 51.5877 55.8005 48.9438 58.3502C46.3 60.8999 42.8047 62.1482 39.3334 62.1482C35.8621 62.1482 32.3834 60.8999 29.7396 58.3502C27.0958 55.8005 25.3334 51.9359 25.3334 46.9742V36.888C25.3334 35.668 25.8087 34.6098 26.5139 33.932C27.2191 33.2541 28.106 32.9467 28.9913 32.9467C29.5088 32.9467 30.0355 33.0448 30.521 33.2691V24.652C30.521 23.433 30.9818 22.3744 31.685 21.696C32.3881 21.0176 33.2951 20.6928 34.179 20.6928C34.6969 20.6928 35.2064 20.8072 35.6921 21.0332V20.4599C35.6921 19.2409 36.1528 18.1822 36.856 17.5039C37.5591 16.8255 38.4495 16.5186 39.3334 16.5186C40.2448 16.5396 41.2466 16.9584 41.8274 17.5039H41.8274ZM39.3334 18.8117C38.9259 18.8117 38.5347 18.9498 38.2693 19.2058C38.0039 19.4618 37.8203 19.81 37.8203 20.4599V38.7511C37.8283 39.3569 37.3184 39.914 36.7562 39.914C36.194 39.914 35.6841 39.3569 35.6921 38.7511V24.7416C35.7304 24.1925 35.4653 23.7562 35.2431 23.3979C34.9778 23.1419 34.5865 22.9859 34.179 22.9859C33.7715 22.9859 33.3636 23.1419 33.0982 23.3979C32.8329 23.654 32.6493 24.0021 32.6493 24.652C32.6493 31.9915 32.6493 39.316 32.6493 46.6516C32.6573 47.2574 32.1474 47.8146 31.5851 47.8146C31.0229 47.8146 30.5131 47.2574 30.521 46.6516V36.9954C30.562 36.4461 30.2973 36.0072 30.0721 35.6518C29.8052 35.3953 29.4021 35.2398 28.9913 35.2398C28.5806 35.2398 28.1941 35.3953 27.9272 35.6518C27.6603 35.9084 27.4617 36.2392 27.4617 36.888V46.9742C27.4617 51.3665 28.9469 54.5208 31.1529 56.6483C33.3589 58.7757 36.3383 59.855 39.3334 59.855C42.3285 59.855 45.3079 58.7757 47.5139 56.6483C49.7199 54.5208 51.2051 51.3665 51.2051 46.9742V30.6356C51.2051 29.9858 51.0216 29.6555 50.7562 29.3995C50.4908 29.1434 50.0996 28.9874 49.6921 28.9874C49.2846 28.9874 48.8933 29.1434 48.6279 29.3995C48.2027 29.837 48.1674 30.2284 48.1624 30.761V40.8114C48.1704 41.4171 47.6605 41.9742 47.0982 41.9742C46.536 41.9742 46.0262 41.4171 46.0341 40.8114C46.0341 35.4261 46.0341 30.0507 46.0341 24.6699C46.0341 24.0145 45.8524 23.6563 45.5852 23.3979C45.3179 23.1396 44.9138 22.9859 44.5044 22.9859C44.095 22.9859 43.7076 23.1396 43.4403 23.3979C43.173 23.6563 42.9914 24.0145 42.9914 24.6699V38.9303C42.9994 39.536 42.4895 40.0932 41.9273 40.0932C41.365 40.0932 40.8552 39.536 40.8631 38.9303C40.8578 32.7684 40.8631 26.6097 40.8631 20.4599C40.8631 19.81 40.663 19.4618 40.3976 19.2058C40.1322 18.9498 39.7409 18.8117 39.3334 18.8117Z" fill="white"/>
</g>
</svg>
