<svg width="67" height="52" viewBox="0 0 67 52" fill="none" xmlns="http://www.w3.org/2000/svg">
<g clip-path="url(#clip0_19_2014)">
<rect x="0.25" y="4" width="66" height="47.84" rx="20" fill="#EA9975"/>
<rect x="0.25" width="66" height="46" rx="20" fill="#FBC399"/>
<mask id="mask0_19_2014" style="mask-type:luminance" maskUnits="userSpaceOnUse" x="0" y="0" width="67" height="46">
<rect x="0.25" width="66" height="46" rx="20" fill="white"/>
</mask>
<g mask="url(#mask0_19_2014)">
<path d="M44.3152 24.0636C44.5783 24.0623 44.8182 23.9114 44.9317 23.6742C45.0465 23.437 45.0143 23.1559 44.8518 22.9497C44.2468 22.1967 43.6277 21.4232 42.9389 20.6432C42.3817 19.9766 41.8038 19.3062 41.2195 18.6487V18.6074C39.544 16.689 37.8039 14.826 36.0601 13.0276L35.806 12.7697C35.3352 12.2734 34.6799 11.9949 33.9963 12.0001C33.323 12.0039 32.6793 12.2837 32.2176 12.7736L31.7184 13.2829C29.999 15.0427 28.3196 16.8514 26.7449 18.6502C26.1154 19.3722 25.5582 20.0258 25.0255 20.6343C24.4166 21.3563 23.7936 22.1131 23.1229 22.9485L23.1242 22.946C22.9166 23.2438 22.9746 23.6512 23.2584 23.8781C23.5421 24.1037 23.9523 24.0715 24.1974 23.802L24.7508 23.1149C24.6321 26.0209 24.6876 28.9307 24.9159 31.8302L24.9326 32.0506C25.0191 33.0137 25.9168 33.7692 27.0687 33.8143L27.6117 33.8414C29.7167 33.9446 31.8733 34 34.0236 34C36.2835 34 38.595 33.9381 40.9024 33.8182C42.0478 33.7525 42.9417 33.0099 43.0281 32.0481V31.8353L43.0294 31.834C43.2577 28.9371 43.3119 26.0285 43.1945 23.125C43.3803 23.3519 43.5699 23.5788 43.7479 23.8122C43.8859 23.9811 44.0974 24.0752 44.3154 24.0636L44.3152 24.0636Z" fill="#B67C62"/>
</g>
</g>
<defs>
<clipPath id="clip0_19_2014">
<rect width="67" height="52" fill="white"/>
</clipPath>
</defs>
</svg>
