<svg width="80" height="80" viewBox="0 0 80 80" fill="none" xmlns="http://www.w3.org/2000/svg">
<g opacity="0.747442">
<rect width="80" height="80" rx="40" fill="#232586" style="mix-blend-mode:multiply"/>
</g>
<mask id="mask0_15_356" style="mask-type:luminance" maskUnits="userSpaceOnUse" x="0" y="0" width="80" height="80">
<rect width="80" height="80" rx="40" fill="white"/>
<rect width="80" height="80" rx="40" stroke="white"/>
</mask>
<g mask="url(#mask0_15_356)">
<path fill-rule="evenodd" clip-rule="evenodd" d="M52.3905 48.7516C54.1385 45.224 54.1587 31.7152 54.1587 31.1417C54.1587 29.3045 52.5562 27.752 50.6592 27.7514C50.3882 27.7514 49.8932 27.8277 49.3865 27.9887C49.2208 25.9605 47.5315 24.3616 45.4799 24.3616C44.5393 24.3616 43.6753 24.6978 42.9995 25.2565C42.4474 23.7464 41.0067 22.6667 39.3208 22.6667C37.4966 22.6667 35.5772 23.7148 35.0088 25.6808C34.3935 25.1978 33.6186 24.9266 32.7395 24.9266C30.5076 24.9266 28.8878 26.7085 28.8878 29.1661L28.8939 31.4208C28.418 31.6626 27.6834 32.1208 26.7646 32.9626C23.7248 35.7507 22.7298 42.493 26.1627 47.711C29.6784 53.0561 34.996 56.0001 41.1361 56.0001C48.2073 56.0001 50.5735 52.4194 52.3905 48.7516ZM50.6956 29.4469C51.6654 29.4469 52.475 30.2389 52.475 31.1417C52.475 34.936 52.1861 45.3607 50.8809 47.9946C49.1698 51.4482 47.2487 54.3063 41.1226 54.3063C35.5637 54.3063 30.7288 51.6318 27.535 46.7754C25.4852 43.659 24.5294 37.2185 27.801 34.2185C28.1733 33.8767 28.9544 33.4135 28.9544 33.4135L28.946 39.3343C28.946 40.0405 29.1857 40.4642 29.689 40.4642C30.1924 40.4642 30.4382 40.0642 30.4382 39.3343V29.1644C30.4382 27.8989 31.184 26.622 32.6846 26.622C34.2356 26.622 34.809 27.9915 34.809 29.1644C34.809 29.6322 35.23 30.0118 35.6936 30.0118C36.1572 30.0118 36.5973 29.6322 36.5973 29.1644V26.9045C36.5973 25.039 38.2715 24.3622 39.3969 24.3622C40.6321 24.3622 41.6366 25.3757 41.6366 26.622V29.7293C41.6366 30.1971 42.0129 30.5768 42.4765 30.5768C42.9401 30.5768 43.3164 30.1971 43.3164 29.7293V28.3169C43.3164 27.0706 44.3209 26.0571 45.5561 26.0571C46.7913 26.0571 47.7958 27.0706 47.7958 28.3169V31.9892C47.7958 32.457 48.172 32.8366 48.6356 32.8366C49.0992 32.8366 49.4755 32.457 49.4755 31.9892V29.8107C49.4755 29.6525 50.3148 29.4469 50.6956 29.4469Z" fill="white"/>
<path d="M52.3905 48.7516L52.1664 48.6406L52.1665 48.6406L52.3905 48.7516ZM50.6592 27.7514V27.5014H50.6593L50.6592 27.7514ZM49.3865 27.9887L49.4622 28.227L49.1629 28.3221L49.1373 28.0091L49.3865 27.9887ZM42.9995 25.2565L43.1588 25.4492L42.8861 25.6746L42.7647 25.3424L42.9995 25.2565ZM35.0088 25.6808L35.249 25.7502L35.1461 26.1064L34.8545 25.8775L35.0088 25.6808ZM28.8878 29.1661L28.6378 29.1668V29.1661H28.8878ZM28.8939 31.4208L29.1439 31.4202L29.1444 31.574L29.0072 31.6437L28.8939 31.4208ZM26.7646 32.9626L26.5956 32.7784L26.5957 32.7783L26.7646 32.9626ZM26.1627 47.711L26.3715 47.5736L26.3715 47.5736L26.1627 47.711ZM50.8809 47.9946L50.6569 47.8836L50.6569 47.8836L50.8809 47.9946ZM27.535 46.7754L27.7439 46.638L27.7439 46.638L27.535 46.7754ZM27.801 34.2185L27.97 34.4027L27.9699 34.4028L27.801 34.2185ZM28.9544 33.4135L28.8269 33.1984L29.205 32.9741L29.2044 33.4138L28.9544 33.4135ZM28.946 39.3343H28.696V39.3339L28.946 39.3343ZM54.4087 31.1417C54.4087 31.4303 54.4036 34.9563 54.1797 38.8532C54.0677 40.8014 53.9008 42.8461 53.6518 44.6271C53.4041 46.3983 53.0713 47.9407 52.6145 48.8626L52.1665 48.6406C52.5836 47.7988 52.9089 46.3297 53.1566 44.5579C53.403 42.7959 53.5689 40.7662 53.6805 38.8245C53.9037 34.9417 53.9087 31.4267 53.9087 31.1417H54.4087ZM50.6593 27.5014C52.6867 27.502 54.4087 29.159 54.4087 31.1417H53.9087C53.9087 29.45 52.4257 28.0019 50.6591 28.0014L50.6593 27.5014ZM49.3108 27.7504C49.8345 27.584 50.3557 27.5014 50.6592 27.5014V28.0014C50.4207 28.0014 49.9519 28.0713 49.4622 28.227L49.3108 27.7504ZM45.4799 24.1116C47.6646 24.1116 49.4596 25.8134 49.6357 27.9683L49.1373 28.0091C48.9819 26.1076 47.3983 24.6116 45.4799 24.6116V24.1116ZM42.8402 25.0639C43.5588 24.4697 44.4786 24.1116 45.4799 24.1116V24.6116C44.6 24.6116 43.7918 24.9259 43.1588 25.4492L42.8402 25.0639ZM39.3208 22.4167C41.1164 22.4167 42.6478 23.5665 43.2343 25.1707L42.7647 25.3424C42.247 23.9263 40.897 22.9167 39.3208 22.9167V22.4167ZM34.7687 25.6114C35.3753 23.5127 37.4144 22.4167 39.3208 22.4167V22.9167C37.5787 22.9167 35.779 23.9168 35.249 25.7502L34.7687 25.6114ZM32.7395 24.6766C33.6717 24.6766 34.5017 24.9649 35.1632 25.4842L34.8545 25.8775C34.2853 25.4307 33.5654 25.1766 32.7395 25.1766V24.6766ZM28.6378 29.1661C28.6378 26.5935 30.3476 24.6766 32.7395 24.6766V25.1766C30.6677 25.1766 29.1378 26.8235 29.1378 29.1661H28.6378ZM28.6439 31.4215L28.6378 29.1668L29.1378 29.1654L29.1439 31.4202L28.6439 31.4215ZM26.5957 32.7783C27.5303 31.922 28.2835 31.4506 28.7807 31.198L29.0072 31.6437C28.5526 31.8747 27.8365 32.3196 26.9334 33.147L26.5957 32.7783ZM25.9538 47.8484C24.204 45.1887 23.5838 42.1427 23.787 39.407C23.9899 36.6769 25.016 34.2271 26.5956 32.7784L26.9336 33.1469C25.4733 34.4862 24.482 36.8016 24.2857 39.4441C24.0897 42.0811 24.6884 45.0152 26.3715 47.5736L25.9538 47.8484ZM41.1361 56.2501C34.9077 56.2501 29.5134 53.2602 25.9538 47.8483L26.3715 47.5736C29.8434 52.8519 35.0843 55.7501 41.1361 55.7501V56.2501ZM52.6145 48.8626C51.703 50.7025 50.6373 52.5571 48.8892 53.9469C47.1345 55.3421 44.7171 56.2501 41.1361 56.2501V55.7501C44.6262 55.7501 46.9276 54.8677 48.578 53.5556C50.2351 52.2381 51.261 50.4685 52.1664 48.6406L52.6145 48.8626ZM52.225 31.1417C52.225 30.3864 51.5369 29.6969 50.6956 29.6969V29.1969C51.7939 29.1969 52.725 30.0915 52.725 31.1417H52.225ZM50.6569 47.8836C50.9639 47.264 51.2227 46.1542 51.4334 44.7467C51.6426 43.3489 51.8005 41.6877 51.918 39.9861C52.1529 36.5834 52.225 33.0345 52.225 31.1417H52.725C52.725 33.0433 52.6527 36.6039 52.4168 40.0205C52.2989 41.7287 52.1399 43.4045 51.9279 44.8207C51.7173 46.2272 51.4505 47.4082 51.1049 48.1056L50.6569 47.8836ZM41.1226 54.0563C44.1446 54.0563 46.0976 53.3524 47.503 52.2489C48.9156 51.1398 49.8032 49.6066 50.6569 47.8836L51.1049 48.1056C50.2475 49.8362 49.319 51.4588 47.8118 52.6422C46.2973 53.8312 44.2267 54.5563 41.1226 54.5563V54.0563ZM27.7439 46.638C30.8938 51.4278 35.6521 54.0563 41.1226 54.0563V54.5563C35.4753 54.5563 30.5638 51.8358 27.3261 46.9127L27.7439 46.638ZM27.9699 34.4028C26.4103 35.8329 25.8374 38.1061 25.9223 40.4442C26.0071 42.7795 26.7473 45.123 27.7439 46.638L27.3262 46.9128C26.2729 45.3115 25.5103 42.8765 25.4226 40.4624C25.3351 38.0512 25.9201 35.6041 27.632 34.0343L27.9699 34.4028ZM28.9544 33.4135C29.082 33.6285 29.082 33.6285 29.082 33.6285C29.082 33.6285 29.082 33.6285 29.082 33.6285C29.082 33.6285 29.0819 33.6285 29.0819 33.6285C29.0818 33.6285 29.0817 33.6286 29.0816 33.6287C29.0813 33.6289 29.0808 33.6292 29.0801 33.6296C29.0787 33.6304 29.0767 33.6316 29.0739 33.6333C29.0684 33.6366 29.0601 33.6416 29.0494 33.648C29.0279 33.661 28.9966 33.68 28.9578 33.7039C28.8802 33.7518 28.7729 33.8192 28.6544 33.8969C28.4133 34.055 28.1399 34.2467 27.97 34.4027L27.6319 34.0344C27.8344 33.8485 28.1378 33.6377 28.3803 33.4787C28.5035 33.3979 28.6148 33.3281 28.6953 33.2784C28.7356 33.2536 28.7682 33.2337 28.7909 33.22C28.8023 33.2132 28.8111 33.2078 28.8172 33.2042C28.8203 33.2024 28.8226 33.201 28.8242 33.2C28.8251 33.1995 28.8257 33.1992 28.8261 33.1989C28.8263 33.1988 28.8265 33.1987 28.8266 33.1986C28.8267 33.1985 28.8268 33.1985 28.8268 33.1985C28.8268 33.1985 28.8268 33.1985 28.8269 33.1985C28.8269 33.1984 28.8269 33.1984 28.9544 33.4135ZM28.696 39.3339L28.7044 33.4131L29.2044 33.4138L29.196 39.3346L28.696 39.3339ZM29.689 40.7142C29.3535 40.7142 29.0871 40.5659 28.9175 40.2977C28.7583 40.0461 28.696 39.7087 28.696 39.3343H29.196C29.196 39.6661 29.2535 39.8936 29.34 40.0304C29.4161 40.1506 29.5212 40.2142 29.689 40.2142V40.7142ZM30.6882 39.3343C30.6882 39.7199 30.6246 40.0592 30.462 40.3092C30.2881 40.5766 30.0189 40.7142 29.689 40.7142V40.2142C29.8625 40.2142 29.9679 40.1518 30.0428 40.0367C30.1289 39.9042 30.1882 39.6786 30.1882 39.3343H30.6882ZM30.6882 29.1644V39.3343H30.1882V29.1644H30.6882ZM32.6846 26.872C32.014 26.872 31.5239 27.1537 31.1955 27.5728C30.8618 27.9987 30.6882 28.5771 30.6882 29.1644H30.1882C30.1882 28.4861 30.3875 27.7934 30.8019 27.2645C31.2215 26.7289 31.8546 26.372 32.6846 26.372V26.872ZM34.559 29.1644C34.559 28.613 34.4233 28.0313 34.1226 27.5953C33.8296 27.1705 33.3737 26.872 32.6846 26.872V26.372C33.5465 26.372 34.1528 26.7584 34.5342 27.3115C34.908 27.8534 35.059 28.5429 35.059 29.1644H34.559ZM35.6936 30.2618C35.1068 30.2618 34.559 29.7846 34.559 29.1644H35.059C35.059 29.4797 35.3532 29.7618 35.6936 29.7618V30.2618ZM36.8473 29.1644C36.8473 29.7911 36.2734 30.2618 35.6936 30.2618V29.7618C36.041 29.7618 36.3473 29.4732 36.3473 29.1644H36.8473ZM36.8473 26.9045V29.1644H36.3473V26.9045H36.8473ZM39.3969 24.6122C38.8771 24.6122 38.2307 24.7701 37.7211 25.1367C37.2215 25.4962 36.8473 26.0589 36.8473 26.9045H36.3473C36.3473 25.8846 36.8102 25.1762 37.4291 24.7309C38.038 24.2927 38.7913 24.1122 39.3969 24.1122V24.6122ZM41.3866 26.622C41.3866 25.5117 40.4919 24.6122 39.3969 24.6122V24.1122C40.7723 24.1122 41.8866 25.2398 41.8866 26.622H41.3866ZM41.3866 29.7293V26.622H41.8866V29.7293H41.3866ZM42.4765 30.8268C41.8727 30.8268 41.3866 30.3331 41.3866 29.7293H41.8866C41.8866 30.0612 42.1531 30.3268 42.4765 30.3268V30.8268ZM43.5664 29.7293C43.5664 30.3331 43.0803 30.8268 42.4765 30.8268V30.3268C42.7999 30.3268 43.0664 30.0612 43.0664 29.7293H43.5664ZM43.5664 28.3169V29.7293H43.0664V28.3169H43.5664ZM45.5561 26.3071C44.4611 26.3071 43.5664 27.2066 43.5664 28.3169H43.0664C43.0664 26.9347 44.1807 25.8071 45.5561 25.8071V26.3071ZM47.5458 28.3169C47.5458 27.2066 46.6511 26.3071 45.5561 26.3071V25.8071C46.9314 25.8071 48.0458 26.9347 48.0458 28.3169H47.5458ZM47.5458 31.9892V28.3169H48.0458V31.9892H47.5458ZM48.6356 33.0866C48.0318 33.0866 47.5458 32.5929 47.5458 31.9892H48.0458C48.0458 32.321 48.3122 32.5866 48.6356 32.5866V33.0866ZM49.7255 31.9892C49.7255 32.5929 49.2394 33.0866 48.6356 33.0866V32.5866C48.9591 32.5866 49.2255 32.321 49.2255 31.9892H49.7255ZM49.7255 29.8107V31.9892H49.2255V29.8107H49.7255ZM50.6956 29.6969C50.5362 29.6969 50.2552 29.7424 50.0094 29.8104C49.8874 29.8441 49.7874 29.8798 49.7227 29.9116C49.7073 29.9191 49.6957 29.9256 49.6874 29.9308C49.6787 29.9361 49.676 29.9386 49.6771 29.9377C49.6775 29.9373 49.6874 29.9288 49.6983 29.911C49.7097 29.8924 49.7255 29.8577 49.7255 29.8107H49.2255C49.2255 29.6799 49.3083 29.5961 49.3476 29.5616C49.3949 29.5201 49.4513 29.4878 49.5025 29.4627C49.6071 29.4113 49.7407 29.366 49.8761 29.3285C50.1452 29.2541 50.4742 29.1969 50.6956 29.1969V29.6969Z" fill="white"/>
</g>
</svg>
