<svg width="150" height="331" viewBox="0 0 150 331" fill="none" xmlns="http://www.w3.org/2000/svg">
<mask id="mask0_19_2868" style="mask-type:luminance" maskUnits="userSpaceOnUse" x="11" y="-92" width="119" height="376">
<path fill-rule="evenodd" clip-rule="evenodd" d="M129.061 281.447L17.8028 283.389L11.2893 -89.764L122.547 -91.706L129.061 281.447Z" fill="white"/>
</mask>
<g mask="url(#mask0_19_2868)">
<path fill-rule="evenodd" clip-rule="evenodd" d="M96.8645 -82.8219C104.102 -74.8574 128.807 -28.741 122.807 -19.174C63.3529 75.6156 77.1616 249.504 77.6118 251.006C77.6118 251.006 74.079 277.778 61.0022 281.678C47.9225 285.581 31.8863 278.661 27.9582 265.632C25.8517 258.636 -13.8692 34.5089 57.5463 -79.348C64.7875 -90.8908 80.048 -94.4 91.6302 -87.1817C93.6148 -85.9456 95.3653 -84.4719 96.8645 -82.8219Z" fill="#FCD9C3"/>
</g>
<path fill-rule="evenodd" clip-rule="evenodd" d="M78.0669 -86.5302C80.0522 -85.2923 81.8026 -83.818 83.3004 -82.1698C90.5387 -74.2041 115.245 -28.0865 109.244 -18.5204C49.7887 76.2672 63.5996 250.158 64.0497 251.659C67.8648 264.418 60.8129 277.821 48.2536 282.045C52.3285 283.003 56.6998 282.962 61.0024 281.678C74.0791 277.778 77.6119 251.006 77.6119 251.006C77.1617 249.503 63.353 75.6156 122.807 -19.174C128.807 -28.741 104.102 -74.8574 96.8647 -82.8219C95.3654 -84.4719 93.615 -85.9456 91.6304 -87.1817C85.0791 -91.263 77.3541 -91.9103 70.5675 -89.6175C73.1536 -89.017 75.6899 -88.011 78.0669 -86.5302Z" fill="#F2BCA7"/>
<path fill-rule="evenodd" clip-rule="evenodd" d="M126.052 266.672C129.578 270.553 130.35 276.411 127.556 281.17L115.366 301.934C112.91 306.119 108.222 308.479 103.386 307.97L64.5713 303.865C57.7826 303.146 52.8606 297.075 53.5802 290.31C54.3 283.541 60.3914 278.633 67.1834 279.352L98.0536 282.615L106.207 268.722C109.656 262.846 117.232 260.871 123.126 264.306C124.246 264.959 125.225 265.763 126.052 266.672Z" fill="#F2BCA7"/>
<path fill-rule="evenodd" clip-rule="evenodd" d="M80.7228 232.409C55.5275 220.893 20.9071 212.353 23.3575 238.185C27.3551 280.329 44.2894 319.046 70.5294 320.184C70.5294 320.184 86.9281 306.516 90.7372 290.285C66.516 254.897 80.7228 232.409 80.7228 232.409Z" fill="#FCD9C3"/>
<path fill-rule="evenodd" clip-rule="evenodd" d="M70.3448 256.027C70.702 265.575 78.6834 285.21 90.7371 290.285C66.5158 254.897 82.9082 227.58 82.9082 227.58C76.5317 224.665 69.6801 238.082 70.3448 256.027Z" fill="#F2BCA7"/>
<mask id="mask1_19_2868" style="mask-type:luminance" maskUnits="userSpaceOnUse" x="55" y="260" width="95" height="71">
<path fill-rule="evenodd" clip-rule="evenodd" d="M149.658 328.429L57.1031 330.045L55.9185 262.18L148.473 260.565L149.658 328.429Z" fill="white"/>
</mask>
<g mask="url(#mask1_19_2868)">
<path fill-rule="evenodd" clip-rule="evenodd" d="M145.487 264.827C147.672 267.232 148.905 270.484 148.659 273.974C148.346 278.365 144.806 317.142 116.932 326.635C90.7938 335.534 63.7362 319.192 62.5974 318.491C56.7838 314.916 54.9762 307.323 58.5643 301.528C62.1423 295.746 69.7391 293.94 75.5471 297.486C80.6221 300.545 96.4949 307.544 108.942 303.307C118.783 299.955 123.394 280.565 123.984 272.236C124.466 265.445 130.382 260.329 137.193 260.81C140.507 261.042 143.423 262.556 145.487 264.827Z" fill="#FCD9C3"/>
</g>
<mask id="mask2_19_2868" style="mask-type:luminance" maskUnits="userSpaceOnUse" x="96" y="260" width="54" height="70">
<path fill-rule="evenodd" clip-rule="evenodd" d="M149.658 328.425L97.2883 329.339L96.1039 261.481L148.473 260.567L149.658 328.425Z" fill="white"/>
</mask>
<g mask="url(#mask2_19_2868)">
<path fill-rule="evenodd" clip-rule="evenodd" d="M137.522 264.964C139.707 267.368 140.942 270.62 140.692 274.112C140.381 278.501 136.842 317.279 108.967 326.771C105.064 328.102 101.141 328.857 97.2859 329.196C103.603 329.522 110.295 328.895 116.932 326.635C144.806 317.143 148.346 278.365 148.659 273.974C148.905 270.484 147.672 267.232 145.487 264.828C143.422 262.556 140.507 261.042 137.193 260.811C135.406 260.684 133.692 260.962 132.111 261.535C134.219 262.204 136.085 263.383 137.522 264.964Z" fill="#F2BCA7"/>
</g>
<path fill-rule="evenodd" clip-rule="evenodd" d="M67.582 297.622C72.0871 300.338 85.1034 306.142 96.6774 304.446C87.6129 303.545 79.0328 299.586 75.547 297.486C72.2192 295.457 68.3098 295.189 64.9015 296.408C65.819 296.704 66.721 297.097 67.582 297.622Z" fill="#EA9975"/>
<path fill-rule="evenodd" clip-rule="evenodd" d="M64.4972 311.566C74.1485 314.884 106.881 323.988 122.968 317.452C131.698 313.658 138.456 307.175 143.005 298.704C147.517 287.157 148.501 276.188 148.659 273.974C148.905 270.484 147.672 267.232 145.487 264.827C143.422 262.556 140.507 261.042 137.193 260.81C131.817 260.43 127.046 263.564 125.018 268.226C125.146 276.246 123.645 282.868 120.665 287.623C118.218 294.7 114.381 301.455 108.942 303.307C96.4947 307.544 80.622 300.545 75.5473 297.486C69.7392 293.94 62.1425 295.746 58.5644 301.529C57.7304 302.879 57.1978 304.326 56.9295 305.798C58.6335 308.507 61.2576 310.643 64.4972 311.566Z" fill="#F2BCA7"/>
<path fill-rule="evenodd" clip-rule="evenodd" d="M143.13 245.57C144.805 247.414 145.939 249.777 146.244 252.437C149.426 280.211 139.569 301.925 119.875 310.522C103.909 317.494 72.85 311.523 63.7107 309.528C57.0367 308.071 52.8145 301.497 54.277 294.85C55.7415 288.2 62.334 283.99 69.0046 285.446C84.0516 288.717 104.093 290.501 109.955 287.942C119.313 283.857 123.583 271.937 121.671 255.237C120.896 248.476 125.769 242.365 132.554 241.593C136.671 241.124 140.546 242.726 143.13 245.57Z" fill="#FCD9C3"/>
<path fill-rule="evenodd" clip-rule="evenodd" d="M132.254 223.945C135.608 227.636 136.506 233.153 134.091 237.846C130.98 243.895 123.544 246.288 117.473 243.206C112.685 240.795 97.8625 234.996 86.8841 237.134C76.1645 239.221 70.2124 252.622 70.1558 252.758C67.5658 259.055 60.3413 262.071 54.0217 259.488C47.7077 256.901 44.6816 249.707 47.2694 243.408C47.7018 242.357 58.1337 217.615 82.1467 212.94C103.476 208.785 126.207 219.967 128.73 221.255C130.097 221.953 131.279 222.872 132.254 223.945Z" fill="#FCD9C3"/>
<path fill-rule="evenodd" clip-rule="evenodd" d="M135.343 231.455C135.343 231.455 135.608 227.636 132.254 223.945C131.279 222.872 130.098 221.953 128.73 221.255C126.207 219.967 103.476 208.785 82.1466 212.94C78.7781 213.594 75.6884 214.656 72.8434 215.979C93.8283 212.445 128.983 221.163 135.343 231.455Z" fill="#F2BCA7"/>
<path fill-rule="evenodd" clip-rule="evenodd" d="M120.702 217.766C115.661 219.041 114.074 226.01 116.581 229.506C117.325 230.542 118.349 231.347 119.534 231.826L130.324 236.24L134.091 237.845L134.477 236.958C137.15 230.803 134.33 223.653 128.167 220.962L121.971 218.257L120.702 217.766Z" fill="#CE4EAA"/>
<path fill-rule="evenodd" clip-rule="evenodd" d="M133.635 241.458L133.121 251.977C133.046 253.288 133.346 254.592 133.987 255.739C137.759 261.465 143.377 260.587 146.693 257.644C147.297 244.65 139.563 241.67 133.635 241.458Z" fill="#CE4EAA"/>
<path d="M75.8072 204.515C104.573 188.02 -5.73436 204.025 6.96147 221.501C8.84919 224.1 17.7908 223.652 20.9742 222.768" stroke="#FFB600" stroke-width="1.8"/>
<path d="M19.3945 204.362C-14.9049 205.674 87.8575 159.809 86.8641 181.796C86.7163 185.064 78.7283 189.518 75.4707 190.478" stroke="#FFB600" stroke-width="1.8"/>
</svg>
