<svg width="36" height="42" viewBox="0 0 36 42" fill="none" xmlns="http://www.w3.org/2000/svg">
<mask id="mask0_19_2901" style="mask-type:luminance" maskUnits="userSpaceOnUse" x="0" y="0" width="36" height="42">
<path fill-rule="evenodd" clip-rule="evenodd" d="M0 0.396225H35.8522V41.7797H0V0.396225Z" fill="white"/>
</mask>
<g mask="url(#mask0_19_2901)">
<path fill-rule="evenodd" clip-rule="evenodd" d="M13.8769 0.865949C5.99131 2.44887 -0.84707 10.4459 0.08529 21.0921C1.01765 31.7387 9.43599 44.7116 28.3445 41.1907C36.1981 39.2967 35.4668 30.6107 35.0959 26.3279C34.7254 22.0454 37.9832 14.5433 33.2777 7.34702C28.5726 0.151156 19.4306 -0.249032 13.8769 0.865949Z" fill="#EE413C"/>
</g>
<path fill-rule="evenodd" clip-rule="evenodd" d="M6.88388 18.9678C2.85391 21.0024 2.88869 29.5965 7.91292 32.3883C12.9375 35.1801 20.2273 33.5857 21.4259 31.3657C23.2331 28.0168 19.0042 21.8669 14.8714 19.6742C11.373 17.8183 8.92456 17.9372 6.88388 18.9678Z" fill="#FFD91D"/>
<path fill-rule="evenodd" clip-rule="evenodd" d="M9.25034 21.4068C6.21986 22.9371 6.21663 28.7144 9.99501 30.8137C13.7738 32.9133 18.6427 31.7753 19.5148 30.0905C20.5349 28.1205 18.3652 23.5873 15.2571 21.9382C12.6262 20.5423 10.785 20.6322 9.25034 21.4068Z" fill="#F3DFA2"/>
<path fill-rule="evenodd" clip-rule="evenodd" d="M35.0961 26.3279C34.8502 23.485 36.2004 19.2236 35.7619 14.5751C34.8902 13.0924 33.3867 12.5016 31.0233 13.7275C28.5 15.0363 24.07 20.3929 26.4945 27.0546C27.3812 29.4914 32.0592 30.3231 34.6487 27.5963C34.8207 27.4152 34.9865 27.1814 35.1455 26.9084C35.1289 26.7083 35.1123 26.5126 35.0961 26.3279Z" fill="#FFD91D"/>
<path fill-rule="evenodd" clip-rule="evenodd" d="M30.451 16.2077C28.5583 17.1896 25.8227 20.9597 27.6414 25.9569C28.3067 27.7847 31.228 28.6568 33.1704 26.611C35.1819 24.4928 36.1827 13.2344 30.451 16.2077Z" fill="#F3DFA2"/>
<path fill-rule="evenodd" clip-rule="evenodd" d="M17.6529 29.8735C16.5907 27.6047 13.3212 26.2211 11.2126 28.0651C11.0212 28.2319 11.1604 28.6218 11.4423 28.541C12.53 28.2299 13.5829 27.888 14.722 28.1562C15.8323 28.4178 16.7497 29.129 17.392 30.0383C17.4952 30.1841 17.7249 30.0276 17.6529 29.8735Z" fill="#1B122E"/>
<path fill-rule="evenodd" clip-rule="evenodd" d="M29.4525 26.1898C29.7967 24.1001 31.0284 22.7296 32.5198 21.3039C32.6986 21.1324 32.5202 20.8273 32.2771 20.9347C30.2526 21.8282 29.1973 24.0894 29.0023 26.1518C28.9752 26.4386 29.4068 26.468 29.4525 26.1898Z" fill="#1B122E"/>
<path fill-rule="evenodd" clip-rule="evenodd" d="M29.193 17.3492C28.4289 17.4126 27.7898 18.2118 27.3712 18.7689C26.8146 19.5094 26.3086 20.3712 26.7471 21.277C26.8813 21.5548 27.2409 21.7592 27.5585 21.6823C28.5503 21.441 28.9155 20.6034 29.2128 19.7179C29.4353 19.0554 29.7617 18.1326 29.4195 17.4625C29.3746 17.3746 29.2881 17.3413 29.193 17.3492Z" fill="#1B122E"/>
<path fill-rule="evenodd" clip-rule="evenodd" d="M13.5744 23.3365C13.883 24.0117 14.8141 24.3572 15.4743 24.6044C16.3739 24.9412 17.2573 25.2039 18.0861 24.5977C18.3494 24.4047 18.4154 24.0045 18.2795 23.724C17.841 22.8171 16.8698 22.6617 15.9285 22.611C15.2158 22.573 14.1653 22.5512 13.6282 23.0928C13.5614 23.1602 13.5335 23.2474 13.5744 23.3365Z" fill="#1B122E"/>
<path fill-rule="evenodd" clip-rule="evenodd" d="M28.7523 29.5922C28.9213 29.1306 25.0151 22.915 23.6823 23.4114C22.5914 23.8188 21.74 31.7159 22.3087 31.8126" fill="#FFD91D"/>
<path fill-rule="evenodd" clip-rule="evenodd" d="M25.8497 32.1084C23.1946 32.9112 18.7553 34.252 19.8676 37.4147C20.8255 40.1368 25.8412 39.0987 27.6558 38.0657C29.2924 37.1346 33.2317 35.9847 32.7751 32.6877C32.318 29.3907 27.2015 31.6999 25.8497 32.1084Z" fill="#FFD91D"/>
<path fill-rule="evenodd" clip-rule="evenodd" d="M25.9416 32.7925C23.9143 33.4055 20.525 34.4293 21.3741 36.8439C22.1054 38.9222 25.9351 38.1297 27.3205 37.3408C28.5704 36.63 31.5778 35.7519 31.2292 33.2343C30.8805 30.7171 26.9739 32.4803 25.9416 32.7925Z" fill="#F3DFA2"/>
<path fill-rule="evenodd" clip-rule="evenodd" d="M24.0616 24.3441C23.2745 24.6373 22.6605 30.3347 23.0706 30.4044C23.4808 30.4737 27.5969 29.1353 27.7191 28.8025C27.8408 28.4696 25.0227 23.9859 24.0616 24.3441Z" fill="#F3DFA2"/>
<path fill-rule="evenodd" clip-rule="evenodd" d="M26.3097 34.1882C25.5573 34.3986 22.9325 34.0377 22.4427 34.8876C21.9528 35.7371 22.2105 37.6263 27.0713 36.2565C31.9321 34.8864 30.7474 32.8062 29.7851 32.6568C28.8228 32.5075 26.3097 34.1882 26.3097 34.1882Z" fill="white"/>
<path fill-rule="evenodd" clip-rule="evenodd" d="M24.7339 34.2815C24.8455 35.0732 24.9766 35.8942 25.2023 36.6636C25.3884 36.6375 25.5837 36.6054 25.792 36.565C25.6213 35.7995 25.4098 35.0391 25.2371 34.2716C25.0753 34.274 24.9062 34.2772 24.7339 34.2815Z" fill="#1B122E"/>
<path fill-rule="evenodd" clip-rule="evenodd" d="M27.6479 33.3877C27.9461 34.1706 28.2422 34.9769 28.6317 35.7103C28.806 35.6339 28.9638 35.5566 29.1118 35.4785C28.859 34.6833 28.4812 33.9051 28.135 33.138C27.9695 33.2181 27.8061 33.3021 27.6479 33.3877Z" fill="#1B122E"/>
<path fill-rule="evenodd" clip-rule="evenodd" d="M22.5378 15.6993C22.5617 15.6993 22.5617 15.6632 22.5378 15.6632C22.514 15.6632 22.514 15.6993 22.5378 15.6993Z" fill="#FFD91D"/>
<path fill-rule="evenodd" clip-rule="evenodd" d="M7.93276 13.1019C7.35191 12.6506 6.39932 12.7255 5.85245 13.1899C4.98926 13.9233 4.91726 15.2083 5.65991 16.057C6.13721 16.6026 6.79856 17.0777 7.56184 16.7298C8.02499 16.5194 8.42988 15.9643 8.61757 15.5011C8.98323 14.5997 8.69402 13.6935 7.93276 13.1019Z" fill="#FFD91D"/>
<path fill-rule="evenodd" clip-rule="evenodd" d="M1.6975 16.2762C0.757863 16.4898 0.0597061 17.3627 0.255481 18.3338C0.512335 19.6069 1.7873 20.292 3.04164 20.0503C4.16775 19.8328 4.65598 18.7051 4.25795 17.7129C3.86681 16.7386 2.78357 16.0294 1.6975 16.2762Z" fill="#FFD91D"/>
<path fill-rule="evenodd" clip-rule="evenodd" d="M1.51675 24.608C1.94147 24.5711 2.24969 24.3703 2.56277 24.106C3.0967 23.6551 2.86412 22.9609 2.30794 22.6772C2.37387 22.7101 2.36052 22.7014 2.26789 22.651C2.15989 22.5841 2.04744 22.5238 1.93135 22.4707C1.70201 22.3875 1.33796 22.3582 1.0981 22.4022C0.787848 22.4585 0.501062 22.6554 0.317017 22.9157C0.396702 23.4007 0.492163 23.888 0.602994 24.3766C0.861871 24.5521 1.19072 24.6361 1.51675 24.608Z" fill="#FFD91D"/>
<path fill-rule="evenodd" clip-rule="evenodd" d="M31.7981 7.75483C30.7072 8.577 30.9956 10.1136 31.9967 10.8537C32.3697 11.1295 32.9509 11.183 33.366 10.9682C33.9051 10.6893 34.3291 10.1627 34.4921 9.58856C34.1871 8.89596 33.8198 8.20256 33.3797 7.51154C32.8676 7.32017 32.305 7.37326 31.7981 7.75483Z" fill="#FFD91D"/>
<path fill-rule="evenodd" clip-rule="evenodd" d="M14.0024 8.21647C15.5123 9.20782 16.3084 10.6477 16.5135 12.4097C16.6562 13.6337 16.3517 15.2907 16.8973 16.4259C17.2949 17.2536 18.3159 17.6066 18.8939 16.7504C18.9044 16.7353 18.8878 16.7167 18.8709 16.7234C17.6278 17.2381 17.9276 13.409 17.9199 12.966C17.9037 12.0436 17.8277 11.1208 17.5243 10.2412C16.9993 8.71967 15.8679 7.45096 14.4914 6.59867C12.9871 5.66715 11.1903 5.22971 9.42955 5.1045C8.3455 5.02684 7.11018 5.11481 5.96546 5.00545C5.40402 5.52728 4.8717 6.09032 4.37256 6.69179C4.56712 6.75162 4.76451 6.80432 4.96352 6.84433C8.05265 7.46522 11.1507 6.3443 14.0024 8.21647Z" fill="#FFD91D"/>
<path fill-rule="evenodd" clip-rule="evenodd" d="M19.8957 6.06508C19.6324 7.68961 19.8727 9.38862 20.7387 10.8091C21.1565 11.495 21.7063 12.0643 22.3001 12.6048C22.8053 13.0652 25.9547 15.1735 24.7331 15.9557C24.7193 15.9644 24.7282 15.9874 24.7436 15.9878C26.061 16.0294 26.2103 14.7757 25.5639 13.8751C24.8306 12.854 23.6745 12.1555 22.8445 11.2129C21.5958 9.79555 21.1679 8.15081 21.5538 6.31668C22.0125 4.13625 23.4383 2.74074 24.7707 1.22596C24.0313 1.01002 23.2842 0.838851 22.5375 0.712059C22.5197 0.733455 22.5011 0.755248 22.4837 0.776644C21.2342 2.314 20.2141 4.10257 19.8957 6.06508Z" fill="#FFD91D"/>
<path fill-rule="evenodd" clip-rule="evenodd" d="M14.2212 4.04254C14.2474 4.03461 14.262 3.98865 14.2264 3.98072C13.2144 3.75646 12.2347 3.51595 11.3492 2.95925C10.9492 2.70765 10.6009 2.39027 10.247 2.08121C9.88862 2.25159 9.5363 2.43901 9.18884 2.63672C9.74219 2.96837 10.2203 3.40105 10.8149 3.70178C11.8613 4.23114 13.0946 4.37616 14.2212 4.04254Z" fill="#FFD91D"/>
<path fill-rule="evenodd" clip-rule="evenodd" d="M18.1034 2.76716C18.0913 2.78103 18.1107 2.79886 18.1253 2.79252C19.2837 2.30635 19.6356 1.47467 19.9876 0.431804C19.5996 0.411201 19.2158 0.400899 18.8352 0.398521C18.8894 1.21475 18.7733 2.00918 18.1034 2.76716Z" fill="#FFD91D"/>
<path fill-rule="evenodd" clip-rule="evenodd" d="M24.0574 9.32253C24.074 9.34829 24.1221 9.34789 24.1233 9.31065C24.1707 7.82084 24.0141 6.47089 24.629 5.05002C25.156 3.83123 26.0957 2.9104 27.1348 2.1017C26.8654 1.97808 26.5928 1.86436 26.3181 1.7558C23.9555 3.32921 22.4669 6.80967 24.0574 9.32253Z" fill="#FFD91D"/>
<path fill-rule="evenodd" clip-rule="evenodd" d="M3.35081 10.5791C5.89589 10.7459 10.6208 8.79487 12.3027 11.1932C12.4718 11.4341 12.867 11.1746 12.7375 10.919C11.9621 9.39119 10.4388 9.04608 8.80825 8.93078C7.2821 8.82301 4.84704 9.05321 3.01549 8.55238C2.64659 9.13167 2.30358 9.73512 1.99414 10.3647C2.41603 10.4828 2.88079 10.5482 3.35081 10.5791Z" fill="#FFD91D"/>
<path fill-rule="evenodd" clip-rule="evenodd" d="M13.877 0.865754C8.22625 2.00015 3.11465 6.42877 1.01331 12.7652C1.32032 12.35 1.64877 11.9494 1.98854 11.5651C5.29124 7.83141 9.80378 5.14024 14.7058 3.98009C19.6083 2.81994 24.8773 3.19596 29.556 5.04079C30.6797 5.48377 31.7735 6.02026 32.7965 6.657C27.9716 0.127188 19.2471 -0.211982 13.877 0.865754Z" fill="#EE413C"/>
<path opacity="0.01" fill-rule="evenodd" clip-rule="evenodd" d="M7.19958 36.2C11.7841 40.4895 18.699 42.9869 28.3445 41.1908C33.2098 40.0172 34.7792 36.2372 35.1817 32.5119C32.1039 37.1759 29.7307 38.5995 23.3968 39.1518C15.7563 39.8191 12.3124 37.83 7.19958 36.2Z" fill="#CCCCCC"/>
</svg>
