<svg width="154" height="512" viewBox="0 0 154 512" fill="none" xmlns="http://www.w3.org/2000/svg">
<g clip-path="url(#clip0_19_4366)">
<path fill-rule="evenodd" clip-rule="evenodd" d="M26.9661 178.27L27.4647 178.897C33.2252 185.054 42.8626 185.358 48.9882 179.576C55.1143 173.795 55.4067 164.118 49.6485 157.964L34.9725 142.283L43.314 120.207C46.2975 112.315 42.3402 103.483 34.4773 100.482C26.6132 97.4816 17.822 101.447 14.8408 109.34C6.95649 132.884 11.5234 158.847 26.9661 178.27Z" fill="#EA9975"/>
<path fill-rule="evenodd" clip-rule="evenodd" d="M73.4779 202.783C101.662 201.157 123.181 176.896 121.541 148.59L120.995 133.639C119.351 105.333 95.1767 83.709 66.9895 85.3377C38.8051 86.9643 17.2872 111.224 18.928 139.531L19.4758 154.479C21.1165 182.787 45.2952 204.411 73.4779 202.783Z" fill="#FBC399"/>
<mask id="mask0_19_4366" style="mask-type:luminance" maskUnits="userSpaceOnUse" x="31" y="153" width="116" height="357">
<path fill-rule="evenodd" clip-rule="evenodd" d="M31.1259 161.008L115.62 153.615L146.113 502.148L61.6186 509.54L31.1259 161.008Z" fill="white"/>
</mask>
<g mask="url(#mask0_19_4366)">
<path fill-rule="evenodd" clip-rule="evenodd" d="M49.5735 190.093L58.9531 479.074C60.4251 495.899 90.9822 506.971 107.737 505.505C124.492 504.039 144.92 488.506 143.448 471.682L110.246 184.785C108.774 167.958 93.9989 155.507 77.2442 156.973C60.4896 158.439 48.1013 173.266 49.5735 190.093Z" fill="#FBC399"/>
</g>
<mask id="mask1_19_4366" style="mask-type:luminance" maskUnits="userSpaceOnUse" x="17" y="131" width="123" height="380">
<path fill-rule="evenodd" clip-rule="evenodd" d="M17.9153 139.62L107.396 131.791L139.846 502.696L50.3653 510.524L17.9153 139.62Z" fill="white"/>
</mask>
<g mask="url(#mask1_19_4366)">
<path fill-rule="evenodd" clip-rule="evenodd" d="M53.5938 193.336C57.8446 195.252 60.0281 200.088 60.1719 204.763L69.3988 469.006C70.8708 485.83 109.468 496.197 126.223 494.731C130.814 494.329 135.058 492.898 138.799 490.723C133.889 498.475 117.557 504.646 107.737 505.505C90.9823 506.971 60.4251 495.899 58.9532 479.074L50.4832 203.834C50.3894 200.784 48.6761 198.03 46.01 196.564C31.0661 188.343 17.1285 173.304 18.9278 139.531C18.9278 139.531 17.1812 176.924 53.5938 193.336Z" fill="#EA9975"/>
</g>
<path fill-rule="evenodd" clip-rule="evenodd" d="M30.7029 124.934C32.0644 131.448 38.4207 135.635 44.9168 134.289C51.4209 132.939 55.6018 126.549 54.2541 120.018L45.5085 77.6349C45.5065 77.6257 34.0268 22.6917 34.0251 22.6825C32.6631 16.1656 26.3069 11.9791 19.812 13.3248C13.3067 14.6746 9.12695 21.0644 10.4743 27.5962L30.6963 124.902C30.6982 124.911 30.7007 124.922 30.7029 124.934Z" fill="#FBC399"/>
<path fill-rule="evenodd" clip-rule="evenodd" d="M14.9779 26.6504C14.9779 26.6504 32.0644 131.448 30.7029 124.933C30.7007 124.922 30.6982 124.911 30.6963 124.902L10.4743 27.5961C9.12692 21.0643 13.3067 14.6746 19.812 13.3247C20.57 13.1677 21.3264 13.0924 22.0733 13.0819C16.8857 15.2741 13.7923 20.9042 14.9779 26.6504Z" fill="#EA9975"/>
<path fill-rule="evenodd" clip-rule="evenodd" d="M71.355 82.5199L71.3578 82.5513L75.2115 125.327C75.8111 131.972 81.6595 136.873 88.2753 136.278C94.8811 135.682 99.7535 129.829 99.1736 123.201L99.1706 123.167L95.3171 80.3936C94.7175 73.7488 88.8689 68.8454 82.2533 69.4423C75.6475 70.0383 70.7749 75.8893 71.355 82.5199Z" fill="#FBC399"/>
<path fill-rule="evenodd" clip-rule="evenodd" d="M78.4456 81.9502C78.4435 81.9612 78.4446 81.9389 78.4456 81.9502C78.4456 81.9502 76.0093 106.347 75.928 115.498L74.307 116.262L71.3578 82.5513L71.355 82.5199C70.7749 75.8891 75.6459 70.0204 82.2533 69.4423C85.5901 69.1504 86.3576 69.9279 87.0905 69.9984C81.6015 71.5164 79.5031 75.9876 78.4456 81.9502Z" fill="#EA9975"/>
<path fill-rule="evenodd" clip-rule="evenodd" d="M51.8709 115.722C51.9454 122.377 57.371 127.724 64.0046 127.672C70.647 127.618 75.9854 122.166 75.9279 115.497L75.5522 72.2217C75.552 72.2127 74.924 16.0934 74.9238 16.0844C74.8494 9.42677 69.4238 4.08014 62.7917 4.13185C56.1478 4.1858 50.8106 9.63697 50.868 16.3063L51.8705 115.69C51.8706 115.699 51.8707 115.71 51.8709 115.722Z" fill="#FBC399"/>
<mask id="mask2_19_4366" style="mask-type:luminance" maskUnits="userSpaceOnUse" x="91" y="72" width="31" height="70">
<path fill-rule="evenodd" clip-rule="evenodd" d="M91.6214 74.9276L115.696 72.8213L121.545 139.673L97.4701 141.779L91.6214 74.9276Z" fill="white"/>
</mask>
<g mask="url(#mask2_19_4366)">
<path fill-rule="evenodd" clip-rule="evenodd" d="M92.6742 86.9618L92.677 86.9935L96.5305 129.767C97.1302 136.412 102.979 141.315 109.594 140.718C116.2 140.122 121.073 134.271 120.493 127.641L120.49 127.609L116.636 84.8334C116.036 78.1886 110.188 73.2873 103.572 73.8821C96.9665 74.4781 92.0941 80.3312 92.6742 86.9618Z" fill="#FBC399"/>
</g>
<path fill-rule="evenodd" clip-rule="evenodd" d="M97.0406 86.5798L97.0434 86.6114C97.0434 86.6114 96.0835 124.45 95.4842 117.805L92.6768 86.9935L92.6741 86.9618C92.094 80.3312 96.9667 74.4781 103.572 73.8821C104.332 73.8135 105.079 73.8256 105.812 73.8983C100.323 75.4162 96.5249 80.6848 97.0406 86.5798Z" fill="#EA9975"/>
<path fill-rule="evenodd" clip-rule="evenodd" d="M55.4694 16.2579C55.4694 16.2579 51.5985 88.7205 51.5986 88.7115L50.8681 16.3064C50.8106 9.63703 56.1478 4.18586 62.7914 4.13194C63.5656 4.12598 64.3222 4.1999 65.0569 4.3351C59.5433 5.47286 55.4185 10.391 55.4694 16.2579Z" fill="#EA9975"/>
<path d="M26.2576 16.2614L28.9396 27.5846C29.2399 28.8248 29.1826 30.1246 28.7743 31.3328C27.3981 35.4057 22.6182 37.1479 18.9569 34.9112L18.2725 34.4929" stroke="#EA9975" stroke-width="1.8" stroke-linecap="round"/>
<path d="M69.8286 9.79125L70.3168 21.4186C70.3764 22.6931 70.0739 23.958 69.4441 25.0659C67.3212 28.801 62.2978 29.5978 59.1268 26.7029L58.534 26.1615" stroke="#EA9975" stroke-width="1.8" stroke-linecap="round"/>
<path d="M92.1393 202.266L97.0588 208.553" stroke="#EA9975" stroke-width="1.8" stroke-linecap="round"/>
<path d="M70.7338 193.722L70.01 201.681" stroke="#EA9975" stroke-width="1.8" stroke-linecap="round"/>
<path d="M80.959 214.139L82.7283 221.933" stroke="#EA9975" stroke-width="1.8" stroke-linecap="round"/>
<path d="M100.98 189.538L102.749 197.332" stroke="#EA9975" stroke-width="1.8" stroke-linecap="round"/>
<path d="M98.8736 265.8L100.643 273.594" stroke="#EA9975" stroke-width="1.8" stroke-linecap="round"/>
<path d="M97.1411 337.835L98.9104 345.629" stroke="#EA9975" stroke-width="1.8" stroke-linecap="round"/>
<path d="M104.271 292.763L107.234 300.184" stroke="#EA9975" stroke-width="1.8" stroke-linecap="round"/>
<path d="M113.813 278.108L115.582 285.902" stroke="#EA9975" stroke-width="1.8" stroke-linecap="round"/>
<path d="M90.6045 240.625L89.6019 248.553" stroke="#EA9975" stroke-width="1.8" stroke-linecap="round"/>
<path d="M87.9384 281.96L86.9358 289.889" stroke="#EA9975" stroke-width="1.8" stroke-linecap="round"/>
<path d="M82.6356 326.242L81.633 334.17" stroke="#EA9975" stroke-width="1.8" stroke-linecap="round"/>
<path d="M94.769 309.124L96.2636 316.975" stroke="#EA9975" stroke-width="1.8" stroke-linecap="round"/>
<path d="M69.9358 224.621L66.0816 231.611" stroke="#EA9975" stroke-width="1.8" stroke-linecap="round"/>
<path d="M58.4316 214.35L54.5774 221.34" stroke="#EA9975" stroke-width="1.8" stroke-linecap="round"/>
<path d="M75.6055 262.612L73.2015 270.229" stroke="#EA9975" stroke-width="1.8" stroke-linecap="round"/>
<path d="M72.4035 288.11L69.3472 295.488" stroke="#EA9975" stroke-width="1.8" stroke-linecap="round"/>
<path d="M75.0321 242.297L71.1779 249.287" stroke="#EA9975" stroke-width="1.8" stroke-linecap="round"/>
<path d="M77.1004 308.435L73.2462 315.425" stroke="#EA9975" stroke-width="1.8" stroke-linecap="round"/>
<path d="M61.0311 314.656L57.177 321.646" stroke="#EA9975" stroke-width="1.8" stroke-linecap="round"/>
<path d="M59.1519 244.822L52.8817 249.741" stroke="#EA9975" stroke-width="1.8" stroke-linecap="round"/>
<path d="M101.262 224.948L105.603 231.651" stroke="#EA9975" stroke-width="1.8" stroke-linecap="round"/>
<path d="M105.573 250.942L109.914 257.644" stroke="#EA9975" stroke-width="1.8" stroke-linecap="round"/>
<path d="M113.817 311.899L118.158 318.601" stroke="#EA9975" stroke-width="1.8" stroke-linecap="round"/>
<path d="M114.176 331.323L119.095 337.61" stroke="#EA9975" stroke-width="1.8" stroke-linecap="round"/>
<path d="M115.059 345.943L116.828 353.737" stroke="#EA9975" stroke-width="1.8" stroke-linecap="round"/>
<path d="M76.7525 414.649L78.5218 422.444" stroke="#EA9975" stroke-width="1.8" stroke-linecap="round"/>
<path d="M120.96 406.807L122.729 414.601" stroke="#EA9975" stroke-width="1.8" stroke-linecap="round"/>
<path d="M121.227 478.668L122.996 486.462" stroke="#EA9975" stroke-width="1.8" stroke-linecap="round"/>
<path d="M126.357 433.771L129.32 441.191" stroke="#EA9975" stroke-width="1.8" stroke-linecap="round"/>
<path d="M135.899 419.115L137.668 426.91" stroke="#EA9975" stroke-width="1.8" stroke-linecap="round"/>
<path d="M106.507 363.788L109.049 371.365" stroke="#EA9975" stroke-width="1.8" stroke-linecap="round"/>
<path d="M110.025 422.968L109.022 430.896" stroke="#EA9975" stroke-width="1.8" stroke-linecap="round"/>
<path d="M101.986 471.409L100.983 479.338" stroke="#EA9975" stroke-width="1.8" stroke-linecap="round"/>
<path d="M116.855 450.132L118.35 457.983" stroke="#EA9975" stroke-width="1.8" stroke-linecap="round"/>
<path d="M90.682 365.171L89.5081 373.076" stroke="#EA9975" stroke-width="1.8" stroke-linecap="round"/>
<path d="M80.0191 349.657L76.165 356.647" stroke="#EA9975" stroke-width="1.8" stroke-linecap="round"/>
<path d="M97.6918 403.62L95.2878 411.237" stroke="#EA9975" stroke-width="1.8" stroke-linecap="round"/>
<path d="M94.4898 429.118L91.4335 436.495" stroke="#EA9975" stroke-width="1.8" stroke-linecap="round"/>
<path d="M110.401 385.469L106.546 392.459" stroke="#EA9975" stroke-width="1.8" stroke-linecap="round"/>
<path d="M99.1866 449.442L95.3325 456.432" stroke="#EA9975" stroke-width="1.8" stroke-linecap="round"/>
<path d="M83.1174 455.663L79.2633 462.653" stroke="#EA9975" stroke-width="1.8" stroke-linecap="round"/>
<path d="M81.2382 385.83L74.968 390.749" stroke="#EA9975" stroke-width="1.8" stroke-linecap="round"/>
<path d="M123.349 365.956L127.69 372.658" stroke="#EA9975" stroke-width="1.8" stroke-linecap="round"/>
<path d="M127.659 391.95L132 398.652" stroke="#EA9975" stroke-width="1.8" stroke-linecap="round"/>
<path d="M132.953 458.799L137.294 465.501" stroke="#EA9975" stroke-width="1.8" stroke-linecap="round"/>
<path d="M59.2858 145.394C58.9531 143.829 58.8961 142.484 59.1148 141.358C59.3491 140.228 59.7696 139.321 60.3764 138.636C60.9833 137.951 61.6902 137.506 62.4974 137.302C62.6226 137.275 62.7421 137.299 62.856 137.373C62.9888 137.459 63.0702 137.573 63.1002 137.713L63.7289 140.671C63.7755 140.89 63.7713 141.063 63.7163 141.189C63.6647 141.331 63.5862 141.462 63.481 141.583C63.2728 141.758 63.0825 141.978 62.91 142.244C62.7408 142.525 62.624 142.861 62.5596 143.251C62.5143 143.653 62.5498 144.128 62.6662 144.676C62.8592 145.584 63.1448 146.234 63.5229 146.628C63.9044 147.038 64.3378 147.191 64.8229 147.088C65.1672 147.015 65.4223 146.83 65.5882 146.533C65.7697 146.233 65.8867 145.782 65.9391 145.182C66.0105 144.595 66.0419 143.819 66.0335 142.856C66.031 141.613 66.1357 140.528 66.3473 139.6C66.5779 138.684 66.9674 137.938 67.516 137.364C68.0801 136.786 68.8474 136.394 69.8177 136.187C70.7724 135.985 71.6819 136.069 72.5462 136.442C73.4138 136.83 74.1621 137.464 74.7909 138.345C75.4197 139.225 75.8755 140.331 76.1582 141.661C76.3878 142.741 76.4482 143.717 76.3394 144.591C76.234 145.48 76.0065 146.257 75.6567 146.92C75.307 147.583 74.896 148.112 74.4237 148.507C73.9705 148.914 73.4951 149.179 72.9976 149.301C72.8724 149.327 72.7451 149.305 72.6155 149.235C72.5017 149.161 72.4298 149.054 72.3998 148.913L71.7412 145.814C71.7046 145.642 71.7043 145.486 71.7403 145.348C71.7763 145.209 71.8547 145.078 71.9756 144.954C72.2999 144.787 72.5441 144.474 72.708 144.014C72.8909 143.566 72.9141 143.021 72.7777 142.379C72.6314 141.691 72.3914 141.177 72.0578 140.839C71.7432 140.514 71.3355 140.404 70.8347 140.51C70.5217 140.577 70.2695 140.737 70.078 140.99C69.8898 141.259 69.7612 141.655 69.6921 142.176C69.6264 142.714 69.5912 143.433 69.5863 144.334C69.623 145.814 69.531 147.036 69.3104 147.999C69.1054 148.959 68.7253 149.71 68.1702 150.253C67.6306 150.793 66.8835 151.165 65.9289 151.368C64.8646 151.594 63.8764 151.485 62.9641 151.041C62.0709 150.609 61.3077 149.905 60.6746 148.927C60.0414 147.949 59.5785 146.772 59.2858 145.394ZM62.7194 161.548C62.4033 160.061 62.3748 158.734 62.6337 157.567C62.896 156.415 63.4335 155.442 64.2461 154.648C65.062 153.869 66.1598 153.301 67.5394 152.942C68.1777 152.79 68.8646 152.636 69.6002 152.479C70.3358 152.323 71.0417 152.181 71.718 152.054C73.0929 151.827 74.313 151.911 75.3785 152.306C76.4596 152.698 77.3558 153.374 78.0672 154.336C78.7942 155.293 79.3124 156.5 79.6217 157.955C79.8413 158.988 79.9112 159.971 79.8314 160.904C79.7673 161.834 79.5547 162.681 79.1936 163.444C78.8482 164.205 78.3616 164.84 77.7338 165.349C77.125 165.871 76.3841 166.233 75.511 166.435C75.3735 166.481 75.2461 166.459 75.1289 166.369C75.0151 166.295 74.9432 166.188 74.9132 166.047L74.2396 162.878C74.1963 162.675 74.2022 162.51 74.2572 162.384C74.3278 162.254 74.4722 162.125 74.6903 161.997C75.4732 161.602 75.9601 161.122 76.151 160.558C76.3609 160.006 76.3893 159.37 76.2363 158.65C76.0533 157.79 75.666 157.16 75.0744 156.763C74.4985 156.362 73.6499 156.256 72.5287 156.445C71.2354 156.671 69.9208 156.95 68.5848 157.283C67.4837 157.567 66.7437 158.01 66.365 158.614C66.0019 159.215 65.9119 159.945 66.0948 160.806C66.2479 161.526 66.5341 162.103 66.9536 162.537C67.373 162.972 68.0113 163.204 68.8683 163.235C69.1164 163.247 69.2912 163.3 69.3927 163.393C69.5133 163.498 69.5951 163.653 69.6384 163.856L70.312 167.025C70.342 167.166 70.32 167.293 70.246 167.407C70.1754 167.537 70.068 167.609 69.9238 167.623C69.0441 167.794 68.2121 167.766 67.428 167.54C66.6629 167.326 65.9601 166.944 65.3196 166.393C64.6947 165.839 64.1561 165.152 63.7037 164.332C63.267 163.509 62.9389 162.581 62.7194 161.548ZM65.1504 171.831C65.1138 171.659 65.1386 171.506 65.2249 171.373C65.3112 171.241 65.4404 171.156 65.6125 171.119L80.8716 167.876C81.0438 167.839 81.1963 167.864 81.3291 167.95C81.462 168.037 81.5467 168.166 81.5833 168.338L82.2519 171.484C82.2885 171.656 82.2637 171.808 82.1774 171.941C82.0911 172.074 81.9619 172.159 81.7898 172.195L66.5307 175.439C66.3585 175.475 66.206 175.451 66.0732 175.364C65.9403 175.278 65.8556 175.149 65.819 174.977L65.1504 171.831ZM67.7111 185.032C67.3784 183.467 67.3214 182.122 67.5401 180.996C67.7744 179.866 68.1949 178.959 68.8017 178.274C69.4086 177.589 70.1155 177.144 70.9227 176.94C71.0479 176.913 71.1674 176.937 71.2813 177.011C71.4141 177.097 71.4955 177.211 71.5255 177.351L72.1542 180.309C72.2008 180.528 72.1966 180.701 72.1416 180.827C72.09 180.969 72.0115 181.1 71.9063 181.221C71.6981 181.396 71.5078 181.616 71.3353 181.882C71.1661 182.163 71.0493 182.499 70.9849 182.889C70.9396 183.291 70.9751 183.766 71.0915 184.314C71.2845 185.221 71.57 185.872 71.9482 186.266C72.3297 186.676 72.7631 186.829 73.2482 186.726C73.5925 186.653 73.8476 186.468 74.0135 186.171C74.195 185.87 74.312 185.42 74.3644 184.82C74.4358 184.233 74.4672 183.457 74.4588 182.494C74.4563 181.251 74.5609 180.166 74.7726 179.237C75.0032 178.322 75.3927 177.576 75.9413 177.002C76.5054 176.424 77.2727 176.032 78.243 175.825C79.1977 175.622 80.1072 175.707 80.9715 176.08C81.8391 176.468 82.5874 177.102 83.2162 177.983C83.845 178.863 84.3008 179.968 84.5835 181.299C84.8131 182.379 84.8735 183.355 84.7647 184.229C84.6593 185.118 84.4318 185.895 84.082 186.558C83.7323 187.221 83.3213 187.75 82.849 188.145C82.3958 188.552 81.9204 188.817 81.4229 188.939C81.2977 188.965 81.1704 188.943 81.0408 188.873C80.927 188.799 80.8551 188.691 80.8251 188.551L80.1665 185.452C80.1299 185.28 80.1296 185.124 80.1656 184.986C80.2016 184.847 80.28 184.716 80.4009 184.592C80.7252 184.425 80.9694 184.112 81.1333 183.651C81.3162 183.204 81.3394 182.659 81.203 182.017C81.0567 181.329 80.8167 180.815 80.4831 180.477C80.1685 180.152 79.7608 180.042 79.26 180.148C78.947 180.215 78.6948 180.375 78.5032 180.628C78.3151 180.897 78.1865 181.293 78.1174 181.814C78.0517 182.352 78.0165 183.071 78.0116 183.971C78.0483 185.452 77.9563 186.674 77.7357 187.637C77.5307 188.597 77.1506 189.348 76.5955 189.891C76.0559 190.431 75.3088 190.803 74.3542 191.006C73.2899 191.232 72.3017 191.123 71.3894 190.679C70.4962 190.247 69.733 189.542 69.0999 188.565C68.4667 187.587 68.0038 186.409 67.7111 185.032ZM71.0149 200.576C70.6823 199.011 70.6253 197.665 70.8439 196.539C71.0782 195.41 71.4988 194.502 72.1056 193.817C72.7124 193.132 73.4194 192.687 74.2266 192.483C74.3518 192.456 74.4713 192.48 74.5852 192.554C74.718 192.64 74.7994 192.754 74.8293 192.895L75.458 195.853C75.5046 196.072 75.5004 196.244 75.4455 196.371C75.3938 196.512 75.3154 196.644 75.2101 196.764C75.002 196.939 74.8116 197.16 74.6391 197.425C74.4699 197.707 74.3531 198.042 74.2888 198.432C74.2434 198.834 74.279 199.309 74.3954 199.857C74.5883 200.765 74.8739 201.416 75.2521 201.81C75.6336 202.219 76.0669 202.373 76.5521 202.269C76.8964 202.196 77.1515 202.011 77.3174 201.714C77.4989 201.414 77.6158 200.964 77.6682 200.364C77.7396 199.776 77.7711 199.001 77.7626 198.037C77.7602 196.795 77.8648 195.709 78.0764 194.781C78.307 193.865 78.6966 193.12 79.2451 192.545C79.8093 191.967 80.5765 191.575 81.5468 191.369C82.5015 191.166 83.411 191.251 84.2753 191.623C85.143 192.011 85.8912 192.645 86.52 193.526C87.1488 194.406 87.6046 195.512 87.8874 196.842C88.1169 197.922 88.1773 198.899 88.0686 199.772C87.9632 200.662 87.7356 201.438 87.3859 202.101C87.0361 202.764 86.6251 203.293 86.1529 203.688C85.6996 204.095 85.2242 204.36 84.7268 204.482C84.6016 204.509 84.4742 204.487 84.3447 204.416C84.2308 204.342 84.1589 204.235 84.129 204.094L83.4703 200.995C83.4337 200.823 83.4334 200.668 83.4694 200.529C83.5054 200.391 83.5838 200.26 83.7047 200.136C84.0291 199.969 84.2732 199.655 84.4371 199.195C84.62 198.747 84.6433 198.202 84.5069 197.561C84.3605 196.872 84.1205 196.359 83.787 196.021C83.4724 195.695 83.0647 195.585 82.5639 195.692C82.2509 195.758 81.9986 195.918 81.8071 196.172C81.6189 196.441 81.4903 196.836 81.4213 197.358C81.3556 197.895 81.3203 198.614 81.3155 199.515C81.3521 200.996 81.2601 202.217 81.0395 203.18C80.8345 204.14 80.4545 204.891 79.8993 205.435C79.3598 205.975 78.6127 206.346 77.658 206.549C76.5938 206.775 75.6055 206.666 74.6933 206.222C73.8 205.791 73.0368 205.086 72.4037 204.108C71.7706 203.13 71.3077 201.953 71.0149 200.576ZM74.4435 216.706C74.1375 215.266 74.1061 213.964 74.3494 212.8C74.5927 211.636 75.1207 210.657 75.9333 209.863C76.7615 209.065 77.8811 208.484 79.292 208.118C79.9616 207.959 80.6329 207.809 81.3059 207.666C81.9788 207.523 82.6613 207.386 83.3532 207.255C84.7751 207.018 86.0265 207.096 87.1076 207.487C88.2077 207.892 89.1134 208.574 89.8248 209.535C90.5361 210.496 91.0432 211.689 91.3459 213.113C91.6453 214.522 91.6655 215.81 91.4066 216.977C91.1509 218.16 90.6028 219.16 89.7622 219.976C88.9373 220.79 87.8256 221.37 86.427 221.716C85.745 221.894 85.0676 222.054 84.3946 222.197C83.7216 222.34 83.0454 222.467 82.3657 222.579C80.9282 222.819 79.669 222.743 78.5879 222.352C77.5224 221.956 76.6419 221.277 75.9462 220.312C75.2504 219.348 74.7496 218.146 74.4435 216.706ZM77.824 215.987C78.0003 216.817 78.3937 217.437 79.0043 217.847C79.6182 218.272 80.4763 218.384 81.5785 218.183C82.2737 218.068 82.9266 217.945 83.5369 217.816C84.1473 217.686 84.7778 217.535 85.4285 217.364C86.1574 217.177 86.7222 216.909 87.1228 216.563C87.5424 216.228 87.8168 215.826 87.9461 215.357C88.0754 214.888 88.0819 214.379 87.9654 213.832C87.8523 213.3 87.6413 212.846 87.3324 212.47C87.0235 212.094 86.6076 211.83 86.0849 211.68C85.5778 211.526 84.9532 211.511 84.2109 211.636C83.5503 211.76 82.9148 211.887 82.3044 212.017C81.6941 212.147 81.0462 212.293 80.3609 212.455C79.2754 212.735 78.5371 213.186 78.1461 213.809C77.755 214.432 77.6477 215.158 77.824 215.987ZM76.9283 227.241C76.8917 227.069 76.9165 226.917 77.0028 226.784C77.089 226.651 77.2183 226.566 77.3904 226.53L92.6495 223.286C92.8217 223.25 92.9742 223.275 93.107 223.361C93.2398 223.447 93.3246 223.576 93.3612 223.749L94.7184 230.134C95.1475 232.153 95.0157 233.841 94.3228 235.199C93.6489 236.569 92.459 237.435 90.7532 237.798C89.642 238.034 88.6447 237.96 87.7614 237.575C86.8815 237.206 86.1527 236.625 85.5752 235.831L80.4888 240.299C80.4049 240.365 80.3238 240.407 80.2455 240.424C80.1203 240.45 79.9913 240.421 79.8585 240.334C79.7446 240.26 79.6727 240.153 79.6428 240.012L78.9841 236.913C78.9209 236.616 78.9447 236.382 79.0557 236.211C79.1822 236.037 79.3015 235.905 79.4134 235.816L84.0091 232.042L83.4952 229.624L78.2836 230.732C78.1114 230.769 77.9589 230.744 77.8261 230.657C77.6933 230.571 77.6086 230.442 77.572 230.27L76.9283 227.241ZM86.8052 228.921L87.384 231.644C87.5404 232.379 87.8368 232.889 88.2733 233.172C88.7131 233.471 89.246 233.554 89.872 233.421C90.4824 233.292 90.9371 233.007 91.2362 232.567C91.5386 232.143 91.6083 231.547 91.4453 230.781L90.8665 228.057L86.8052 228.921ZM81.3212 249.063C80.9885 247.498 80.9315 246.152 81.1502 245.026C81.3845 243.897 81.805 242.989 82.4118 242.304C83.0186 241.619 83.7256 241.174 84.5328 240.97C84.658 240.944 84.7775 240.967 84.8914 241.041C85.0242 241.127 85.1056 241.241 85.1356 241.382L85.7643 244.34C85.8109 244.559 85.8067 244.731 85.7517 244.858C85.7001 245 85.6216 245.131 85.5164 245.251C85.3082 245.426 85.1179 245.647 84.9454 245.912C84.7762 246.194 84.6594 246.529 84.595 246.919C84.5497 247.321 84.5852 247.796 84.7016 248.344C84.8946 249.252 85.1801 249.903 85.5583 250.297C85.9398 250.706 86.3732 250.86 86.8583 250.756C87.2026 250.683 87.4577 250.498 87.6236 250.201C87.8051 249.901 87.9221 249.451 87.9745 248.851C88.0459 248.263 88.0773 247.488 88.0689 246.524C88.0664 245.282 88.171 244.196 88.3827 243.268C88.6133 242.352 89.0028 241.607 89.5513 241.032C90.1155 240.454 90.8828 240.062 91.8531 239.856C92.8078 239.653 93.7173 239.738 94.5816 240.11C95.4492 240.498 96.1975 241.132 96.8263 242.013C97.4551 242.893 97.9109 243.999 98.1936 245.329C98.4231 246.409 98.4836 247.386 98.3748 248.26C98.2694 249.149 98.0419 249.925 97.6921 250.588C97.3423 251.252 96.9314 251.781 96.4591 252.175C96.0059 252.583 95.5305 252.847 95.033 252.969C94.9078 252.996 94.7804 252.974 94.6509 252.903C94.5371 252.829 94.4652 252.722 94.4352 252.581L93.7766 249.482C93.74 249.31 93.7397 249.155 93.7757 249.016C93.8117 248.878 93.8901 248.747 94.011 248.623C94.3353 248.456 94.5795 248.142 94.7434 247.682C94.9263 247.234 94.9495 246.689 94.8131 246.048C94.6668 245.359 94.4268 244.846 94.0932 244.508C93.7786 244.182 93.3709 244.072 92.8701 244.179C92.5571 244.245 92.3048 244.405 92.1133 244.659C91.9252 244.928 91.7966 245.323 91.7275 245.845C91.6618 246.382 91.6265 247.101 91.6217 248.002C91.6584 249.483 91.5664 250.705 91.3458 251.667C91.1408 252.627 90.7607 253.378 90.2056 253.922C89.666 254.462 88.9189 254.833 87.9643 255.036C86.9 255.262 85.9118 255.153 84.9995 254.709C84.1063 254.278 83.3431 253.573 82.7099 252.595C82.0768 251.617 81.6139 250.44 81.3212 249.063Z" fill="#EA9975"/>
</g>
<defs>
<clipPath id="clip0_19_4366">
<rect width="110" height="504" fill="white" transform="translate(0 9.58716) rotate(-5)"/>
</clipPath>
</defs>
</svg>
